<svg xmlns="http://www.w3.org/2000/svg" xmlns:xlink="http://www.w3.org/1999/xlink" xml:lang="en" height="230.23999999999998pt" width="467.468pt" viewBox="-41.523999999999994 -94.6 467.468 230.23999999999998"><polygon points="281.664,-34.2 292.914,-45.45 335.664,-45.45 335.664,-22.95 292.914,-22.95 " style="stroke:black;fill:none;stroke-width:2.0;stroke-dasharray:-;stroke-linecap:round;stroke-linejoin:round;" /><polygon points="281.664,-55.8 292.914,-67.05 335.664,-67.05 335.664,-44.55 292.914,-44.55 " style="stroke:black;fill:none;stroke-width:2.0;stroke-dasharray:-;stroke-linecap:round;stroke-linejoin:round;" /><polygon points="121.032,-16.2 109.782,-27.45 109.782,-70.2 132.282,-70.2 132.282,-27.45 " style="stroke:black;fill:none;stroke-width:2.0;stroke-dasharray:-;stroke-linecap:round;stroke-linejoin:round;" /><polygon points="142.632,-16.2 131.382,-27.45 131.382,-70.2 153.882,-70.2 153.882,-27.45 " style="stroke:black;fill:none;stroke-width:2.0;stroke-dasharray:-;stroke-linecap:round;stroke-linejoin:round;" /><polygon points="164.232,-16.2 152.982,-27.45 152.982,-70.2 175.482,-70.2 175.482,-27.45 " style="stroke:black;fill:none;stroke-width:2.0;stroke-dasharray:-;stroke-linecap:round;stroke-linejoin:round;" /><polygon points="185.832,-16.2 174.582,-27.45 174.582,-70.2 197.082,-70.2 197.082,-27.45 " style="stroke:black;fill:none;stroke-width:2.0;stroke-dasharray:-;stroke-linecap:round;stroke-linejoin:round;" /><polygon points="296.064,-16.2 307.314,-4.95 307.314,37.8 284.814,37.8 284.814,-4.95 " style="stroke:black;fill:none;stroke-width:2.0;stroke-dasharray:-;stroke-linecap:round;stroke-linejoin:round;" /><path d="M 0.0,-0.0 L 18,-0 L 36,-0" style="stroke:black;fill:none;stroke-width:2.0;stroke-dasharray:-;stroke-linecap:round;stroke-linejoin:round;" /><path d="M 36.0,-0.0 L 36,50.76 M 45,50.76 L 27,50.76 M 45,57.24 L 27,57.24 M 36,57.24 L 36,108" style="stroke:black;fill:none;stroke-width:2.0;stroke-dasharray:-;stroke-linecap:round;stroke-linejoin:round;" /><path d="M 35.99999999999998,108.0 L 36,122.4 L 27,122.4 L 45,122.4 M 29.7,126.72 L 42.3,126.72 M 34.2,131.04 L 37.8,131.04" style="stroke:black;fill:none;stroke-width:2.0;stroke-dasharray:-;stroke-linecap:round;stroke-linejoin:round;" /><path d="M 36.0,-0.0 L 59.4,-0 L 82.8,-0" style="stroke:black;fill:none;stroke-width:2.0;stroke-dasharray:-;stroke-linecap:round;stroke-linejoin:round;" /><path d="M 82.8,-0.0 L 82.8,50.76 M 91.8,50.76 L 73.8,50.76 M 91.8,57.24 L 73.8,57.24 M 82.8,57.24 L 82.8,108" style="stroke:black;fill:none;stroke-width:2.0;stroke-dasharray:-;stroke-linecap:round;stroke-linejoin:round;" /><path d="M 82.79999999999998,108.0 L 82.8,122.4 L 73.8,122.4 L 91.8,122.4 M 76.5,126.72 L 89.1,126.72 M 81,131.04 L 84.6,131.04" style="stroke:black;fill:none;stroke-width:2.0;stroke-dasharray:-;stroke-linecap:round;stroke-linejoin:round;" /><path d="M 36.0,-0.0 L 68.4,-0 L 100.8,-0" style="stroke:black;fill:none;stroke-width:2.0;stroke-dasharray:-;stroke-linecap:round;stroke-linejoin:round;" /><path d="M 100.8,-0.0 L 206.064,-0 L 206.064,-90 L 100.8,-90 L 100.8,-0" style="stroke:black;fill:none;stroke-width:2.0;stroke-dasharray:-;stroke-linecap:round;stroke-linejoin:round;" /><path d="M 100.8,-34.199999999999996 L 82.8,-34.2" style="stroke:black;fill:none;stroke-width:2.0;stroke-dasharray:-;stroke-linecap:round;stroke-linejoin:round;" /><path d="M 100.8,-55.8 L 82.8,-55.8" style="stroke:black;fill:none;stroke-width:2.0;stroke-dasharray:-;stroke-linecap:round;stroke-linejoin:round;" /><path d="M 206.06400000000002,-34.199999999999996 L 224.064,-34.2" style="stroke:black;fill:none;stroke-width:2.0;stroke-dasharray:-;stroke-linecap:round;stroke-linejoin:round;" /><path d="M 206.06400000000002,-55.8 L 224.064,-55.8" style="stroke:black;fill:none;stroke-width:2.0;stroke-dasharray:-;stroke-linecap:round;stroke-linejoin:round;" /><path d="M 121.03200000000001,-0.0 L 121.032,18" style="stroke:black;fill:none;stroke-width:2.0;stroke-dasharray:-;stroke-linecap:round;stroke-linejoin:round;" /><path d="M 142.632,-0.0 L 142.632,18" style="stroke:black;fill:none;stroke-width:2.0;stroke-dasharray:-;stroke-linecap:round;stroke-linejoin:round;" /><path d="M 164.232,-0.0 L 164.232,18" style="stroke:black;fill:none;stroke-width:2.0;stroke-dasharray:-;stroke-linecap:round;stroke-linejoin:round;" /><path d="M 185.832,-0.0 L 185.832,18" style="stroke:black;fill:none;stroke-width:2.0;stroke-dasharray:-;stroke-linecap:round;stroke-linejoin:round;" /><path d="M 82.8,-34.199999999999996 L 59.4,-34.2 L 36,-34.2" style="stroke:black;fill:none;stroke-width:2.0;stroke-dasharray:-;stroke-linecap:round;stroke-linejoin:round;" /><path d="M 82.8,-55.8 L 64.8,-55.8 L 46.8,-55.8" style="stroke:black;fill:none;stroke-width:2.0;stroke-dasharray:-;stroke-linecap:round;stroke-linejoin:round;" /><path d="M 46.8,-55.8 L 46.8,-41.4 L 37.8,-41.4 L 55.8,-41.4 M 40.5,-37.08 L 53.1,-37.08 M 45,-32.76 L 48.6,-32.76" style="stroke:black;fill:none;stroke-width:2.0;stroke-dasharray:-;stroke-linecap:round;stroke-linejoin:round;" /><path d="M 224.06400000000002,-34.199999999999996 L 249.264,-34.2 L 274.464,-34.2" style="stroke:black;fill:none;stroke-width:2.0;stroke-dasharray:-;stroke-linecap:round;stroke-linejoin:round;" /><path d="M 224.06400000000002,-55.8 L 249.264,-55.8 L 274.464,-55.8" style="stroke:black;fill:none;stroke-width:2.0;stroke-dasharray:-;stroke-linecap:round;stroke-linejoin:round;" /><path d="M 121.03200000000001,18.0 L 121.032,28.8 L 121.032,39.6" style="stroke:black;fill:none;stroke-width:2.0;stroke-dasharray:-;stroke-linecap:round;stroke-linejoin:round;" /><path d="M 121.03200000000001,39.6 L 121.032,34.2 L 112.032,31.2 L 130.032,25.2 L 112.032,19.2 L 130.032,13.2 L 112.032,7.2 L 130.032,1.2 L 121.032,-1.8 L 121.032,-7.2" style="stroke:black;fill:none;stroke-width:2.0;stroke-dasharray:-;stroke-linecap:round;stroke-linejoin:round;" /><path d="M 121.03200000000001,39.6 L 121.032,45 L 130.032,48 L 112.032,54 L 130.032,60 L 112.032,66 L 130.032,72 L 112.032,78 L 121.032,81 L 121.032,86.4" style="stroke:black;fill:none;stroke-width:2.0;stroke-dasharray:-;stroke-linecap:round;stroke-linejoin:round;" /><path d="M 121.03200000000001,86.4 L 121.032,100.8 L 112.032,100.8 L 130.032,100.8 M 114.732,105.12 L 127.332,105.12 M 119.232,109.44 L 122.832,109.44" style="stroke:black;fill:none;stroke-width:2.0;stroke-dasharray:-;stroke-linecap:round;stroke-linejoin:round;" /><path d="M 142.632,18.0 L 142.632,28.8 L 142.632,39.6" style="stroke:black;fill:none;stroke-width:2.0;stroke-dasharray:-;stroke-linecap:round;stroke-linejoin:round;" /><path d="M 142.632,39.6 L 142.632,34.2 L 133.632,31.2 L 151.632,25.2 L 133.632,19.2 L 151.632,13.2 L 133.632,7.2 L 151.632,1.2 L 142.632,-1.8 L 142.632,-7.2" style="stroke:black;fill:none;stroke-width:2.0;stroke-dasharray:-;stroke-linecap:round;stroke-linejoin:round;" /><path d="M 142.632,39.6 L 142.632,45 L 151.632,48 L 133.632,54 L 151.632,60 L 133.632,66 L 151.632,72 L 133.632,78 L 142.632,81 L 142.632,86.4" style="stroke:black;fill:none;stroke-width:2.0;stroke-dasharray:-;stroke-linecap:round;stroke-linejoin:round;" /><path d="M 142.632,86.4 L 142.632,100.8 L 133.632,100.8 L 151.632,100.8 M 136.332,105.12 L 148.932,105.12 M 140.832,109.44 L 144.432,109.44" style="stroke:black;fill:none;stroke-width:2.0;stroke-dasharray:-;stroke-linecap:round;stroke-linejoin:round;" /><path d="M 164.232,18.0 L 164.232,28.8 L 164.232,39.6" style="stroke:black;fill:none;stroke-width:2.0;stroke-dasharray:-;stroke-linecap:round;stroke-linejoin:round;" /><path d="M 164.232,39.6 L 164.232,34.2 L 155.232,31.2 L 173.232,25.2 L 155.232,19.2 L 173.232,13.2 L 155.232,7.2 L 173.232,1.2 L 164.232,-1.8 L 164.232,-7.2" style="stroke:black;fill:none;stroke-width:2.0;stroke-dasharray:-;stroke-linecap:round;stroke-linejoin:round;" /><path d="M 164.232,39.6 L 164.232,45 L 173.232,48 L 155.232,54 L 173.232,60 L 155.232,66 L 173.232,72 L 155.232,78 L 164.232,81 L 164.232,86.4" style="stroke:black;fill:none;stroke-width:2.0;stroke-dasharray:-;stroke-linecap:round;stroke-linejoin:round;" /><path d="M 164.232,86.4 L 164.232,100.8 L 155.232,100.8 L 173.232,100.8 M 157.932,105.12 L 170.532,105.12 M 162.432,109.44 L 166.032,109.44" style="stroke:black;fill:none;stroke-width:2.0;stroke-dasharray:-;stroke-linecap:round;stroke-linejoin:round;" /><path d="M 185.832,18.0 L 185.832,28.8 L 185.832,39.6" style="stroke:black;fill:none;stroke-width:2.0;stroke-dasharray:-;stroke-linecap:round;stroke-linejoin:round;" /><path d="M 185.832,39.6 L 185.832,34.2 L 176.832,31.2 L 194.832,25.2 L 176.832,19.2 L 194.832,13.2 L 176.832,7.2 L 194.832,1.2 L 185.832,-1.8 L 185.832,-7.2" style="stroke:black;fill:none;stroke-width:2.0;stroke-dasharray:-;stroke-linecap:round;stroke-linejoin:round;" /><path d="M 185.832,39.6 L 185.832,45 L 194.832,48 L 176.832,54 L 194.832,60 L 176.832,66 L 194.832,72 L 176.832,78 L 185.832,81 L 185.832,86.4" style="stroke:black;fill:none;stroke-width:2.0;stroke-dasharray:-;stroke-linecap:round;stroke-linejoin:round;" /><path d="M 185.832,86.4 L 185.832,100.8 L 176.832,100.8 L 194.832,100.8 M 179.532,105.12 L 192.132,105.12 M 184.032,109.44 L 187.632,109.44" style="stroke:black;fill:none;stroke-width:2.0;stroke-dasharray:-;stroke-linecap:round;stroke-linejoin:round;" /><text x="23.399999999999988" y="37.5" dominant-baseline="central" fill="black" font-size="11" font-family="sans" text-anchor="end"><tspan x="23.399999999999988" dy="11">C1</tspan><tspan x="23.399999999999988" dy="11">470uF</tspan></text><text x="70.19999999999999" y="37.5" dominant-baseline="central" fill="black" font-size="11" font-family="sans" text-anchor="end"><tspan x="70.19999999999999" dy="11">C2</tspan><tspan x="70.19999999999999" dy="11">100nF</tspan></text><text x="98.1" y="-47.9" dominant-baseline="ideographic" fill="black" font-size="11" font-family="sans" text-anchor="end"><tspan x="98.1" dy="11">5V</tspan></text><text x="106.19999999999999" y="-48.199999999999996" dominant-baseline="central" fill="black" font-size="14" font-family="sans" text-anchor="start"><tspan x="106.19999999999999" dy="14">5V</tspan></text><text x="98.1" y="-69.5" dominant-baseline="ideographic" fill="black" font-size="11" font-family="sans" text-anchor="end"><tspan x="98.1" dy="11">GND</tspan></text><text x="106.19999999999999" y="-69.8" dominant-baseline="central" fill="black" font-size="14" font-family="sans" text-anchor="start"><tspan x="106.19999999999999" dy="14">GND</tspan></text><text x="208.764" y="-47.9" dominant-baseline="ideographic" fill="black" font-size="11" font-family="sans" text-anchor="start"><tspan x="208.764" dy="11">GPIO14</tspan></text><text x="200.664" y="-48.199999999999996" dominant-baseline="central" fill="black" font-size="14" font-family="sans" text-anchor="end"><tspan x="200.664" dy="14">GPIO14</tspan></text><text x="208.764" y="-69.5" dominant-baseline="ideographic" fill="black" font-size="11" font-family="sans" text-anchor="start"><tspan x="208.764" dy="11">GPIO15</tspan></text><text x="200.664" y="-69.8" dominant-baseline="central" fill="black" font-size="14" font-family="sans" text-anchor="end"><tspan x="200.664" dy="14">GPIO15</tspan></text><text x="123.73200000000001" y="-8.3" dominant-baseline="hanging" fill="black" font-size="11" font-family="sans" text-anchor="start"><tspan x="123.73200000000001" dy="11">ADC1</tspan></text><text x="121.03200000000001" y="-19.4" dominant-baseline="ideographic" fill="black" font-size="14" font-family="sans" text-anchor="middle"><tspan x="121.03200000000001" dy="14">ADC1</tspan></text><text x="145.332" y="-8.3" dominant-baseline="hanging" fill="black" font-size="11" font-family="sans" text-anchor="start"><tspan x="145.332" dy="11">ADC2</tspan></text><text x="142.632" y="-19.4" dominant-baseline="ideographic" fill="black" font-size="14" font-family="sans" text-anchor="middle"><tspan x="142.632" dy="14">ADC2</tspan></text><text x="166.93200000000002" y="-8.3" dominant-baseline="hanging" fill="black" font-size="11" font-family="sans" text-anchor="start"><tspan x="166.93200000000002" dy="11">ADC3</tspan></text><text x="164.232" y="-19.4" dominant-baseline="ideographic" fill="black" font-size="14" font-family="sans" text-anchor="middle"><tspan x="164.232" dy="14">ADC3</tspan></text><text x="188.532" y="-8.3" dominant-baseline="hanging" fill="black" font-size="11" font-family="sans" text-anchor="start"><tspan x="188.532" dy="11">ADC4</tspan></text><text x="185.832" y="-19.4" dominant-baseline="ideographic" fill="black" font-size="14" font-family="sans" text-anchor="middle"><tspan x="185.832" dy="14">ADC4</tspan></text><text x="157.032" y="-70.6" dominant-baseline="central" fill="black" font-size="11" font-family="sans" text-anchor="middle"><tspan x="157.032" dy="11">U1</tspan><tspan x="157.032" dy="11">ESP32-CAM</tspan><tspan x="157.032" dy="11">AI-Thinker</tspan></text><text x="308.664" y="-46.199999999999996" dominant-baseline="central" fill="black" font-size="12" font-family="sans" text-anchor="middle"><tspan x="308.664" dy="12">J2 SIG -&gt; M1 Pan Servo</tspan></text><text x="308.664" y="-67.8" dominant-baseline="central" fill="black" font-size="12" font-family="sans" text-anchor="middle"><tspan x="308.664" dy="12">J3 SIG -&gt; M2 Tilt Servo</tspan></text><text x="121.03200000000001" y="-21.799999999999994" dominant-baseline="ideographic" fill="black" font-size="11" font-family="sans" text-anchor="middle"><tspan x="121.03200000000001" dy="11">R1 LDR NW</tspan></text><text x="121.03200000000001" y="-55.199999999999996" dominant-baseline="central" fill="black" font-size="12" font-family="sans" text-anchor="middle"><tspan x="121.03200000000001" dy="12">to 5V</tspan></text><text x="121.03200000000001" y="25.0" dominant-baseline="ideographic" fill="black" font-size="11" font-family="sans" text-anchor="middle"><tspan x="121.03200000000001" dy="11">R5 10k</tspan></text><text x="142.632" y="-21.799999999999994" dominant-baseline="ideographic" fill="black" font-size="11" font-family="sans" text-anchor="middle"><tspan x="142.632" dy="11">R2 LDR NE</tspan></text><text x="142.632" y="-55.199999999999996" dominant-baseline="central" fill="black" font-size="12" font-family="sans" text-anchor="middle"><tspan x="142.632" dy="12">to 5V</tspan></text><text x="142.632" y="25.0" dominant-baseline="ideographic" fill="black" font-size="11" font-family="sans" text-anchor="middle"><tspan x="142.632" dy="11">R6 10k</tspan></text><text x="164.232" y="-21.799999999999994" dominant-baseline="ideographic" fill="black" font-size="11" font-family="sans" text-anchor="middle"><tspan x="164.232" dy="11">R3 LDR SW</tspan></text><text x="164.232" y="-55.199999999999996" dominant-baseline="central" fill="black" font-size="12" font-family="sans" text-anchor="middle"><tspan x="164.232" dy="12">to 5V</tspan></text><text x="164.232" y="25.0" dominant-baseline="ideographic" fill="black" font-size="11" font-family="sans" text-anchor="middle"><tspan x="164.232" dy="11">R7 10k</tspan></text><text x="185.832" y="-21.799999999999994" dominant-baseline="ideographic" fill="black" font-size="11" font-family="sans" text-anchor="middle"><tspan x="185.832" dy="11">R4 LDR SE</tspan></text><text x="185.832" y="-55.199999999999996" dominant-baseline="central" fill="black" font-size="12" font-family="sans" text-anchor="middle"><tspan x="185.832" dy="12">to 5V</tspan></text><text x="185.832" y="25.0" dominant-baseline="ideographic" fill="black" font-size="11" font-family="sans" text-anchor="middle"><tspan x="185.832" dy="11">R8 10k</tspan></text><text x="296.064" y="-1.1999999999999993" dominant-baseline="central" fill="black" font-size="12" font-family="sans" text-anchor="middle"><tspan x="296.064" dy="12">M1/M2 power: 5V and GND shared with 5V bus</tspan></text><circle cx="0" cy="-0" r="2.7" style="stroke:black;fill:white;stroke-width:2.0;stroke-dasharray:-;" /><text x="-6.3" y="-11.0" dominant-baseline="central" fill="black" font-size="11" font-family="sans" text-anchor="end"><tspan x="-6.3" dy="11">5V_IN</tspan></text><circle cx="36" cy="-0" r="2.7" style="stroke:black;fill:black;stroke-width:2.0;stroke-dasharray:-;" /><text x="36.0" y="-17.3" dominant-baseline="ideographic" fill="black" font-size="11" font-family="sans" text-anchor="middle"><tspan x="36.0" dy="11">5V BUS</tspan></text><circle cx="121.032" cy="39.6" r="2.7" style="stroke:black;fill:black;stroke-width:2.0;stroke-dasharray:-;" /><circle cx="142.632" cy="39.6" r="2.7" style="stroke:black;fill:black;stroke-width:2.0;stroke-dasharray:-;" /><circle cx="164.232" cy="39.6" r="2.7" style="stroke:black;fill:black;stroke-width:2.0;stroke-dasharray:-;" /><circle cx="185.832" cy="39.6" r="2.7" style="stroke:black;fill:black;stroke-width:2.0;stroke-dasharray:-;" /></svg>