<?xml version="1.0" encoding="utf-8" standalone="no"?>
<!DOCTYPE svg PUBLIC "-//W3C//DTD SVG 1.1//EN"
  "http://www.w3.org/Graphics/SVG/1.1/DTD/svg11.dtd">
<svg xmlns:xlink="http://www.w3.org/1999/xlink" width="547.356pt" height="354.86pt" viewBox="0 0 547.356 354.86" xmlns="http://www.w3.org/2000/svg" version="1.1">
 <metadata>
  <rdf:RDF xmlns:dc="http://purl.org/dc/elements/1.1/" xmlns:cc="http://creativecommons.org/ns#" xmlns:rdf="http://www.w3.org/1999/02/22-rdf-syntax-ns#">
   <cc:Work>
    <dc:type rdf:resource="http://purl.org/dc/dcmitype/StillImage"/>
    <dc:date>2026-06-06T19:54:08.351883</dc:date>
    <dc:format>image/svg+xml</dc:format>
    <dc:creator>
     <cc:Agent>
      <dc:title>Matplotlib v3.10.9, https://matplotlib.org/</dc:title>
     </cc:Agent>
    </dc:creator>
   </cc:Work>
  </rdf:RDF>
 </metadata>
 <defs>
  <style type="text/css">*{stroke-linejoin: round; stroke-linecap: butt}</style>
 </defs>
 <g id="figure_1">
  <g id="patch_1">
   <path d="M 0 354.86 
L 547.356 354.86 
L 547.356 0 
L 0 0 
z
" style="fill: #ffffff"/>
  </g>
  <g id="axes_1">
   <g id="patch_2">
    <path d="M 22.68 102.08 
C 27.453656 102.08 32.032438 100.183406 35.407922 96.807922 
C 38.783406 93.432438 40.68 88.853656 40.68 84.08 
C 40.68 79.306344 38.783406 74.727562 35.407922 71.352078 
C 32.032438 67.976594 27.453656 66.08 22.68 66.08 
C 17.906344 66.08 13.327562 67.976594 9.952078 71.352078 
C 6.576594 74.727562 4.68 79.306344 4.68 84.08 
C 4.68 88.853656 6.576594 93.432438 9.952078 96.807922 
C 13.327562 100.183406 17.906344 102.08 22.68 102.08 
L 22.68 102.08 
z
" clip-path="url(#p49ffdf5a51)" style="fill: none; stroke: #000000; stroke-width: 2; stroke-linejoin: miter"/>
   </g>
   <g id="patch_3">
    <path d="M 372.78 198.44 
L 381.78 185.84 
L 390.78 198.44 
L 372.78 198.44 
z
" clip-path="url(#p49ffdf5a51)" style="fill: none; stroke: #000000; stroke-width: 2; stroke-linecap: round"/>
   </g>
   <g id="patch_4">
    <path d="M 350.28 220.94 
L 362.88 229.94 
L 350.28 238.94 
L 350.28 220.94 
z
" clip-path="url(#p49ffdf5a51)" style="fill: none; stroke: #000000; stroke-width: 2; stroke-linecap: round"/>
   </g>
   <g id="patch_5">
    <path d="M 330.48 220.94 
L 343.08 229.94 
L 330.48 238.94 
L 330.48 220.94 
z
" clip-path="url(#p49ffdf5a51)" style="fill: none; stroke: #000000; stroke-width: 2; stroke-linecap: round"/>
   </g>
   <g id="patch_6">
    <path d="M 212.58 220.94 
L 212.58 256.94 
L 221.58 256.94 
L 221.58 220.94 
L 212.58 220.94 
z
" clip-path="url(#p49ffdf5a51)" style="fill: none; stroke: #000000; stroke-width: 2; stroke-linecap: round"/>
   </g>
   <g id="patch_7">
    <path d="M 221.58 220.94 
L 235.08 207.44 
L 235.08 270.44 
L 221.58 256.94 
" clip-path="url(#p49ffdf5a51)" style="fill: none; stroke: #000000; stroke-width: 2; stroke-linecap: round"/>
   </g>
   <g id="line2d_1">
    <path d="M 22.68 121.88 
L 22.68 102.08 
L 22.68 102.08 
M 22.68 66.08 
L 22.68 66.08 
L 22.68 46.28 
" clip-path="url(#p49ffdf5a51)" style="fill: none; stroke: #000000; stroke-width: 2; stroke-linecap: round"/>
   </g>
   <g id="line2d_2">
    <path d="M 26.28 93.08 
L 19.08 93.08 
" clip-path="url(#p49ffdf5a51)" style="fill: none; stroke: #000000; stroke-width: 2; stroke-linecap: round"/>
   </g>
   <g id="line2d_3">
    <path d="M 22.68 78.68 
L 22.68 71.48 
" clip-path="url(#p49ffdf5a51)" style="fill: none; stroke: #000000; stroke-width: 2; stroke-linecap: round"/>
   </g>
   <g id="line2d_4">
    <path d="M 26.28 75.08 
L 19.08 75.08 
" clip-path="url(#p49ffdf5a51)" style="fill: none; stroke: #000000; stroke-width: 2; stroke-linecap: round"/>
   </g>
   <g id="line2d_5">
    <path d="M 22.68 46.28 
L 40.68 46.28 
L 58.68 46.28 
" clip-path="url(#p49ffdf5a51)" style="fill: none; stroke: #000000; stroke-width: 2; stroke-linecap: round"/>
   </g>
   <g id="line2d_6">
    <path d="M 58.68 46.28 
L 58.68 67.88 
L 58.68 89.48 
" clip-path="url(#p49ffdf5a51)" style="fill: none; stroke: #000000; stroke-width: 2; stroke-linecap: round"/>
   </g>
   <g id="line2d_7">
    <path d="M 58.68 89.48 
L 58.68 124.04 
M 67.68 124.04 
L 49.68 124.04 
M 67.68 130.52 
L 49.68 130.52 
M 58.68 130.52 
L 58.68 165.08 
" clip-path="url(#p49ffdf5a51)" style="fill: none; stroke: #000000; stroke-width: 2; stroke-linecap: round"/>
   </g>
   <g id="line2d_8">
    <path d="M 58.68 165.08 
L 58.68 179.48 
L 49.68 179.48 
L 67.68 179.48 
M 52.38 183.8 
L 64.98 183.8 
M 56.88 188.12 
L 60.48 188.12 
" clip-path="url(#p49ffdf5a51)" style="fill: none; stroke: #000000; stroke-width: 2; stroke-linecap: round"/>
   </g>
   <g id="line2d_9">
    <path d="M 58.68 46.28 
L 94.68 46.28 
L 130.68 46.28 
" clip-path="url(#p49ffdf5a51)" style="fill: none; stroke: #000000; stroke-width: 2; stroke-linecap: round"/>
   </g>
   <g id="line2d_10">
    <path d="M 130.68 46.28 
L 130.68 58.88 
L 130.68 71.48 
" clip-path="url(#p49ffdf5a51)" style="fill: none; stroke: #000000; stroke-width: 2; stroke-linecap: round"/>
   </g>
   <g id="line2d_11">
    <path d="M 130.68 71.48 
L 130.68 211.94 
L 278.28 211.94 
L 278.28 71.48 
L 130.68 71.48 
" clip-path="url(#p49ffdf5a51)" style="fill: none; stroke: #000000; stroke-width: 2; stroke-linecap: round"/>
   </g>
   <g id="line2d_12">
    <path d="M 145.08 71.48 
L 145.08 53.48 
" clip-path="url(#p49ffdf5a51)" style="fill: none; stroke: #000000; stroke-width: 2; stroke-linecap: round"/>
   </g>
   <g id="line2d_13">
    <path d="M 164.88 71.48 
L 164.88 53.48 
" clip-path="url(#p49ffdf5a51)" style="fill: none; stroke: #000000; stroke-width: 2; stroke-linecap: round"/>
   </g>
   <g id="line2d_14">
    <path d="M 184.68 71.48 
L 184.68 53.48 
" clip-path="url(#p49ffdf5a51)" style="fill: none; stroke: #000000; stroke-width: 2; stroke-linecap: round"/>
   </g>
   <g id="line2d_15">
    <path d="M 204.48 71.48 
L 204.48 53.48 
" clip-path="url(#p49ffdf5a51)" style="fill: none; stroke: #000000; stroke-width: 2; stroke-linecap: round"/>
   </g>
   <g id="line2d_16">
    <path d="M 224.28 71.48 
L 224.28 53.48 
" clip-path="url(#p49ffdf5a51)" style="fill: none; stroke: #000000; stroke-width: 2; stroke-linecap: round"/>
   </g>
   <g id="line2d_17">
    <path d="M 244.08 71.48 
L 244.08 53.48 
" clip-path="url(#p49ffdf5a51)" style="fill: none; stroke: #000000; stroke-width: 2; stroke-linecap: round"/>
   </g>
   <g id="line2d_18">
    <path d="M 263.88 71.48 
L 263.88 53.48 
" clip-path="url(#p49ffdf5a51)" style="fill: none; stroke: #000000; stroke-width: 2; stroke-linecap: round"/>
   </g>
   <g id="line2d_19">
    <path d="M 174.78 211.94 
L 174.78 229.94 
" clip-path="url(#p49ffdf5a51)" style="fill: none; stroke: #000000; stroke-width: 2; stroke-linecap: round"/>
   </g>
   <g id="line2d_20">
    <path d="M 194.58 211.94 
L 194.58 229.94 
" clip-path="url(#p49ffdf5a51)" style="fill: none; stroke: #000000; stroke-width: 2; stroke-linecap: round"/>
   </g>
   <g id="line2d_21">
    <path d="M 214.38 211.94 
L 214.38 229.94 
" clip-path="url(#p49ffdf5a51)" style="fill: none; stroke: #000000; stroke-width: 2; stroke-linecap: round"/>
   </g>
   <g id="line2d_22">
    <path d="M 234.18 211.94 
L 234.18 229.94 
" clip-path="url(#p49ffdf5a51)" style="fill: none; stroke: #000000; stroke-width: 2; stroke-linecap: round"/>
   </g>
   <g id="line2d_23">
    <path d="M 164.88 53.48 
L 150.48 53.48 
L 136.08 53.48 
" clip-path="url(#p49ffdf5a51)" style="fill: none; stroke: #000000; stroke-width: 2; stroke-linecap: round"/>
   </g>
   <g id="line2d_24">
    <path d="M 136.08 53.48 
L 136.08 102.08 
L 136.08 150.68 
" clip-path="url(#p49ffdf5a51)" style="fill: none; stroke: #000000; stroke-width: 2; stroke-linecap: round"/>
   </g>
   <g id="line2d_25">
    <path d="M 136.08 150.68 
L 136.08 165.08 
L 127.08 165.08 
L 145.08 165.08 
M 129.78 169.4 
L 142.38 169.4 
M 134.28 173.72 
L 137.88 173.72 
" clip-path="url(#p49ffdf5a51)" style="fill: none; stroke: #000000; stroke-width: 2; stroke-linecap: round"/>
   </g>
   <g id="line2d_26">
    <path d="M 58.68 46.28 
L 166.68 46.28 
L 274.68 46.28 
" clip-path="url(#p49ffdf5a51)" style="fill: none; stroke: #000000; stroke-width: 2; stroke-linecap: round"/>
   </g>
   <g id="line2d_27">
    <path d="M 274.68 46.28 
L 274.68 118.28 
L 328.68 118.28 
L 328.68 46.28 
L 274.68 46.28 
" clip-path="url(#p49ffdf5a51)" style="fill: none; stroke: #000000; stroke-width: 2; stroke-linecap: round"/>
   </g>
   <g id="line2d_28">
    <path d="M 310.68 46.28 
L 310.68 28.28 
" clip-path="url(#p49ffdf5a51)" style="fill: none; stroke: #000000; stroke-width: 2; stroke-linecap: round"/>
   </g>
   <g id="line2d_29">
    <path d="M 310.68 118.28 
L 310.68 136.28 
" clip-path="url(#p49ffdf5a51)" style="fill: none; stroke: #000000; stroke-width: 2; stroke-linecap: round"/>
   </g>
   <g id="line2d_30">
    <path d="M 274.68 82.28 
L 256.68 82.28 
" clip-path="url(#p49ffdf5a51)" style="fill: none; stroke: #000000; stroke-width: 2; stroke-linecap: round"/>
   </g>
   <g id="line2d_31">
    <path d="M 274.68 46.28 
L 274.68 60.68 
L 265.68 60.68 
L 283.68 60.68 
M 268.38 65 
L 280.98 65 
M 272.88 69.32 
L 276.48 69.32 
" clip-path="url(#p49ffdf5a51)" style="fill: none; stroke: #000000; stroke-width: 2; stroke-linecap: round"/>
   </g>
   <g id="line2d_32">
    <path d="M 310.68 136.28 
L 346.68 136.28 
L 382.68 136.28 
" clip-path="url(#p49ffdf5a51)" style="fill: none; stroke: #000000; stroke-width: 2; stroke-linecap: round"/>
   </g>
   <g id="line2d_33">
    <path d="M 382.68 136.28 
L 382.68 157.88 
L 382.68 179.48 
" clip-path="url(#p49ffdf5a51)" style="fill: none; stroke: #000000; stroke-width: 2; stroke-linecap: round"/>
   </g>
   <g id="line2d_34">
    <path d="M 382.68 179.48 
L 382.68 214.04 
M 391.68 214.04 
L 373.68 214.04 
M 391.68 220.52 
L 373.68 220.52 
M 382.68 220.52 
L 382.68 255.08 
" clip-path="url(#p49ffdf5a51)" style="fill: none; stroke: #000000; stroke-width: 2; stroke-linecap: round"/>
   </g>
   <g id="line2d_35">
    <path d="M 382.68 255.08 
L 382.68 269.48 
L 373.68 269.48 
L 391.68 269.48 
M 376.38 273.8 
L 388.98 273.8 
M 380.88 278.12 
L 384.48 278.12 
" clip-path="url(#p49ffdf5a51)" style="fill: none; stroke: #000000; stroke-width: 2; stroke-linecap: round"/>
   </g>
   <g id="line2d_36">
    <path d="M 382.68 136.28 
L 382.68 166.88 
L 382.68 197.48 
" clip-path="url(#p49ffdf5a51)" style="fill: none; stroke: #000000; stroke-width: 2; stroke-linecap: round"/>
   </g>
   <g id="line2d_37">
    <path d="M 382.68 197.48 
L 382.68 287.48 
L 530.28 287.48 
L 530.28 197.48 
L 382.68 197.48 
" clip-path="url(#p49ffdf5a51)" style="fill: none; stroke: #000000; stroke-width: 2; stroke-linecap: round"/>
   </g>
   <g id="line2d_38">
    <path d="M 397.08 197.48 
L 397.08 179.48 
" clip-path="url(#p49ffdf5a51)" style="fill: none; stroke: #000000; stroke-width: 2; stroke-linecap: round"/>
   </g>
   <g id="line2d_39">
    <path d="M 416.88 197.48 
L 416.88 179.48 
" clip-path="url(#p49ffdf5a51)" style="fill: none; stroke: #000000; stroke-width: 2; stroke-linecap: round"/>
   </g>
   <g id="line2d_40">
    <path d="M 436.68 197.48 
L 436.68 179.48 
" clip-path="url(#p49ffdf5a51)" style="fill: none; stroke: #000000; stroke-width: 2; stroke-linecap: round"/>
   </g>
   <g id="line2d_41">
    <path d="M 456.48 197.48 
L 456.48 179.48 
" clip-path="url(#p49ffdf5a51)" style="fill: none; stroke: #000000; stroke-width: 2; stroke-linecap: round"/>
   </g>
   <g id="line2d_42">
    <path d="M 476.28 197.48 
L 476.28 179.48 
" clip-path="url(#p49ffdf5a51)" style="fill: none; stroke: #000000; stroke-width: 2; stroke-linecap: round"/>
   </g>
   <g id="line2d_43">
    <path d="M 496.08 197.48 
L 496.08 179.48 
" clip-path="url(#p49ffdf5a51)" style="fill: none; stroke: #000000; stroke-width: 2; stroke-linecap: round"/>
   </g>
   <g id="line2d_44">
    <path d="M 515.88 197.48 
L 515.88 179.48 
" clip-path="url(#p49ffdf5a51)" style="fill: none; stroke: #000000; stroke-width: 2; stroke-linecap: round"/>
   </g>
   <g id="line2d_45">
    <path d="M 416.88 179.48 
L 402.48 179.48 
L 388.08 179.48 
" clip-path="url(#p49ffdf5a51)" style="fill: none; stroke: #000000; stroke-width: 2; stroke-linecap: round"/>
   </g>
   <g id="line2d_46">
    <path d="M 388.08 179.48 
L 388.08 222.68 
L 388.08 265.88 
" clip-path="url(#p49ffdf5a51)" style="fill: none; stroke: #000000; stroke-width: 2; stroke-linecap: round"/>
   </g>
   <g id="line2d_47">
    <path d="M 388.08 265.88 
L 388.08 280.28 
L 379.08 280.28 
L 397.08 280.28 
M 381.78 284.6 
L 394.38 284.6 
M 386.28 288.92 
L 389.88 288.92 
" clip-path="url(#p49ffdf5a51)" style="fill: none; stroke: #000000; stroke-width: 2; stroke-linecap: round"/>
   </g>
   <g id="line2d_48">
    <path d="M 184.68 53.48 
L 175.68 53.48 
L 166.68 53.48 
" clip-path="url(#p49ffdf5a51)" style="fill: none; stroke: #000000; stroke-width: 2; stroke-linecap: round"/>
   </g>
   <g id="line2d_49">
    <path d="M 166.68 53.48 
L 146.88 53.48 
L 143.88 62.48 
L 137.88 44.48 
L 131.88 62.48 
L 125.88 44.48 
L 119.88 62.48 
L 113.88 44.48 
L 110.88 53.48 
L 91.08 53.48 
" clip-path="url(#p49ffdf5a51)" style="fill: none; stroke: #000000; stroke-width: 2; stroke-linecap: round"/>
   </g>
   <g id="line2d_50">
    <path d="M 91.08 53.48 
L 91.08 73.28 
L 100.08 76.28 
L 82.08 82.28 
L 100.08 88.28 
L 82.08 94.28 
L 100.08 100.28 
L 82.08 106.28 
L 91.08 109.28 
L 91.08 129.08 
" clip-path="url(#p49ffdf5a51)" style="fill: none; stroke: #000000; stroke-width: 2; stroke-linecap: round"/>
   </g>
   <g id="line2d_51">
    <path d="M 91.08 129.08 
L 91.08 143.48 
L 82.08 143.48 
L 100.08 143.48 
M 84.78 147.8 
L 97.38 147.8 
M 89.28 152.12 
L 92.88 152.12 
" clip-path="url(#p49ffdf5a51)" style="fill: none; stroke: #000000; stroke-width: 2; stroke-linecap: round"/>
   </g>
   <g id="line2d_52">
    <path d="M 91.08 53.48 
L 263.88 116.48 
L 436.68 179.48 
" clip-path="url(#p49ffdf5a51)" style="fill: none; stroke: #000000; stroke-width: 2; stroke-linecap: round"/>
   </g>
   <g id="line2d_53">
    <path d="M 224.28 53.48 
L 215.28 53.48 
L 206.28 53.48 
" clip-path="url(#p49ffdf5a51)" style="fill: none; stroke: #000000; stroke-width: 2; stroke-linecap: round"/>
   </g>
   <g id="line2d_54">
    <path d="M 206.28 53.48 
L 186.48 53.48 
L 183.48 62.48 
L 177.48 44.48 
L 171.48 62.48 
L 165.48 44.48 
L 159.48 62.48 
L 153.48 44.48 
L 150.48 53.48 
L 130.68 53.48 
" clip-path="url(#p49ffdf5a51)" style="fill: none; stroke: #000000; stroke-width: 2; stroke-linecap: round"/>
   </g>
   <g id="line2d_55">
    <path d="M 130.68 53.48 
L 130.68 73.28 
L 139.68 76.28 
L 121.68 82.28 
L 139.68 88.28 
L 121.68 94.28 
L 139.68 100.28 
L 121.68 106.28 
L 130.68 109.28 
L 130.68 129.08 
" clip-path="url(#p49ffdf5a51)" style="fill: none; stroke: #000000; stroke-width: 2; stroke-linecap: round"/>
   </g>
   <g id="line2d_56">
    <path d="M 130.68 129.08 
L 130.68 143.48 
L 121.68 143.48 
L 139.68 143.48 
M 124.38 147.8 
L 136.98 147.8 
M 128.88 152.12 
L 132.48 152.12 
" clip-path="url(#p49ffdf5a51)" style="fill: none; stroke: #000000; stroke-width: 2; stroke-linecap: round"/>
   </g>
   <g id="line2d_57">
    <path d="M 130.68 53.48 
L 303.48 116.48 
L 476.28 179.48 
" clip-path="url(#p49ffdf5a51)" style="fill: none; stroke: #000000; stroke-width: 2; stroke-linecap: round"/>
   </g>
   <g id="line2d_58">
    <path d="M 244.08 53.48 
L 235.08 53.48 
L 226.08 53.48 
" clip-path="url(#p49ffdf5a51)" style="fill: none; stroke: #000000; stroke-width: 2; stroke-linecap: round"/>
   </g>
   <g id="line2d_59">
    <path d="M 226.08 53.48 
L 206.28 53.48 
L 203.28 62.48 
L 197.28 44.48 
L 191.28 62.48 
L 185.28 44.48 
L 179.28 62.48 
L 173.28 44.48 
L 170.28 53.48 
L 150.48 53.48 
" clip-path="url(#p49ffdf5a51)" style="fill: none; stroke: #000000; stroke-width: 2; stroke-linecap: round"/>
   </g>
   <g id="line2d_60">
    <path d="M 150.48 53.48 
L 150.48 73.28 
L 159.48 76.28 
L 141.48 82.28 
L 159.48 88.28 
L 141.48 94.28 
L 159.48 100.28 
L 141.48 106.28 
L 150.48 109.28 
L 150.48 129.08 
" clip-path="url(#p49ffdf5a51)" style="fill: none; stroke: #000000; stroke-width: 2; stroke-linecap: round"/>
   </g>
   <g id="line2d_61">
    <path d="M 150.48 129.08 
L 150.48 143.48 
L 141.48 143.48 
L 159.48 143.48 
M 144.18 147.8 
L 156.78 147.8 
M 148.68 152.12 
L 152.28 152.12 
" clip-path="url(#p49ffdf5a51)" style="fill: none; stroke: #000000; stroke-width: 2; stroke-linecap: round"/>
   </g>
   <g id="line2d_62">
    <path d="M 150.48 53.48 
L 323.28 116.48 
L 496.08 179.48 
" clip-path="url(#p49ffdf5a51)" style="fill: none; stroke: #000000; stroke-width: 2; stroke-linecap: round"/>
   </g>
   <g id="line2d_63">
    <path d="M 263.88 53.48 
L 254.88 53.48 
L 245.88 53.48 
" clip-path="url(#p49ffdf5a51)" style="fill: none; stroke: #000000; stroke-width: 2; stroke-linecap: round"/>
   </g>
   <g id="line2d_64">
    <path d="M 245.88 53.48 
L 226.08 53.48 
L 223.08 62.48 
L 217.08 44.48 
L 211.08 62.48 
L 205.08 44.48 
L 199.08 62.48 
L 193.08 44.48 
L 190.08 53.48 
L 170.28 53.48 
" clip-path="url(#p49ffdf5a51)" style="fill: none; stroke: #000000; stroke-width: 2; stroke-linecap: round"/>
   </g>
   <g id="line2d_65">
    <path d="M 170.28 53.48 
L 170.28 73.28 
L 179.28 76.28 
L 161.28 82.28 
L 179.28 88.28 
L 161.28 94.28 
L 179.28 100.28 
L 161.28 106.28 
L 170.28 109.28 
L 170.28 129.08 
" clip-path="url(#p49ffdf5a51)" style="fill: none; stroke: #000000; stroke-width: 2; stroke-linecap: round"/>
   </g>
   <g id="line2d_66">
    <path d="M 170.28 129.08 
L 170.28 143.48 
L 161.28 143.48 
L 179.28 143.48 
M 163.98 147.8 
L 176.58 147.8 
M 168.48 152.12 
L 172.08 152.12 
" clip-path="url(#p49ffdf5a51)" style="fill: none; stroke: #000000; stroke-width: 2; stroke-linecap: round"/>
   </g>
   <g id="line2d_67">
    <path d="M 170.28 53.48 
L 343.08 116.48 
L 515.88 179.48 
" clip-path="url(#p49ffdf5a51)" style="fill: none; stroke: #000000; stroke-width: 2; stroke-linecap: round"/>
   </g>
   <g id="line2d_68">
    <path d="M 456.48 179.48 
L 449.28 179.48 
L 442.08 179.48 
" clip-path="url(#p49ffdf5a51)" style="fill: none; stroke: #000000; stroke-width: 2; stroke-linecap: round"/>
   </g>
   <g id="line2d_69">
    <path d="M 442.08 179.48 
L 323.28 116.48 
L 204.48 53.48 
" clip-path="url(#p49ffdf5a51)" style="fill: none; stroke: #000000; stroke-width: 2; stroke-linecap: round"/>
   </g>
   <g id="line2d_70">
    <path d="M 234.18 229.94 
L 248.58 229.94 
L 262.98 229.94 
" clip-path="url(#p49ffdf5a51)" style="fill: none; stroke: #000000; stroke-width: 2; stroke-linecap: round"/>
   </g>
   <g id="line2d_71">
    <path d="M 262.98 229.94 
L 282.78 229.94 
L 285.78 220.94 
L 291.78 238.94 
L 297.78 220.94 
L 303.78 238.94 
L 309.78 220.94 
L 315.78 238.94 
L 318.78 229.94 
L 338.58 229.94 
" clip-path="url(#p49ffdf5a51)" style="fill: none; stroke: #000000; stroke-width: 2; stroke-linecap: round"/>
   </g>
   <g id="line2d_72">
    <path d="M 338.58 229.94 
L 338.58 249.74 
L 347.58 252.74 
L 329.58 258.74 
L 347.58 264.74 
L 329.58 270.74 
L 347.58 276.74 
L 329.58 282.74 
L 338.58 285.74 
L 338.58 305.54 
" clip-path="url(#p49ffdf5a51)" style="fill: none; stroke: #000000; stroke-width: 2; stroke-linecap: round"/>
   </g>
   <g id="line2d_73">
    <path d="M 338.58 305.54 
L 338.58 319.94 
L 329.58 319.94 
L 347.58 319.94 
M 332.28 324.26 
L 344.88 324.26 
M 336.78 328.58 
L 340.38 328.58 
" clip-path="url(#p49ffdf5a51)" style="fill: none; stroke: #000000; stroke-width: 2; stroke-linecap: round"/>
   </g>
   <g id="line2d_74">
    <path d="M 338.58 229.94 
L 338.58 244.94 
L 362.58 244.94 
L 362.58 268.94 
L 338.58 268.94 
L 338.58 283.94 
" clip-path="url(#p49ffdf5a51)" style="fill: none; stroke: #000000; stroke-width: 2; stroke-linecap: round"/>
   </g>
   <g id="line2d_75">
    <path d="M 368.58 244.94 
L 368.58 268.94 
" clip-path="url(#p49ffdf5a51)" style="fill: none; stroke: #000000; stroke-width: 2; stroke-linecap: round"/>
   </g>
   <g id="line2d_76">
    <path d="M 368.58 256.94 
L 387.78 256.94 
" clip-path="url(#p49ffdf5a51)" style="fill: none; stroke: #000000; stroke-width: 2; stroke-linecap: round"/>
   </g>
   <g id="line2d_77">
    <path d="M 338.58 229.94 
L 363.18 243.44 
L 387.78 256.94 
" clip-path="url(#p49ffdf5a51)" style="fill: none; stroke: #000000; stroke-width: 2; stroke-linecap: round"/>
   </g>
   <g id="line2d_78">
    <path d="M 338.58 283.94 
L 338.58 305.54 
L 338.58 327.14 
" clip-path="url(#p49ffdf5a51)" style="fill: none; stroke: #000000; stroke-width: 2; stroke-linecap: round"/>
   </g>
   <g id="line2d_79">
    <path d="M 338.58 327.14 
L 338.58 341.54 
L 329.58 341.54 
L 347.58 341.54 
M 332.28 345.86 
L 344.88 345.86 
M 336.78 350.18 
L 340.38 350.18 
" clip-path="url(#p49ffdf5a51)" style="fill: none; stroke: #000000; stroke-width: 2; stroke-linecap: round"/>
   </g>
   <g id="line2d_80">
    <path d="M 338.58 229.94 
L 360.18 229.94 
L 381.78 229.94 
" clip-path="url(#p49ffdf5a51)" style="fill: none; stroke: #000000; stroke-width: 2; stroke-linecap: round"/>
   </g>
   <g id="line2d_81">
    <path d="M 381.78 229.94 
L 381.78 210.14 
L 378.815813 210.00593 
L 375.824893 209.59824 
L 373.058083 208.925999 
L 370.747432 208.020462 
L 369.825692 207.495433 
L 369.086729 206.932453 
L 368.546119 206.340233 
L 368.215256 205.728098 
L 368.101116 205.105793 
L 368.206102 204.48328 
L 368.528004 203.870522 
L 369.060035 203.277277 
L 369.790982 202.712894 
L 370.705436 202.186112 
L 373.004309 201.276175 
L 375.76385 200.598658 
L 378.75262 200.18526 
L 381.719957 200.045528 
L 384.416994 200.166058 
L 386.617535 200.511618 
L 388.137024 201.028102 
L 388.598989 201.329463 
L 388.848023 201.647072 
L 388.878878 201.971077 
L 388.690903 202.291491 
L 388.28806 202.598403 
L 386.876085 203.133708 
L 384.761374 203.506971 
L 382.121284 203.661764 
L 379.177236 203.559981 
L 376.176142 203.185037 
L 373.3697 202.543252 
L 370.993281 201.663329 
L 370.030506 201.148598 
L 369.246192 200.593943 
L 368.656869 200.007898 
L 368.274959 199.399658 
L 368.108513 198.778887 
L 368.161038 198.155513 
L 368.431428 197.539518 
L 368.913983 196.940729 
L 369.598532 196.36861 
L 370.470645 195.832065 
L 372.700471 194.897379 
L 375.416447 194.18994 
L 378.390789 193.743954 
L 381.374044 193.571703 
L 384.11601 193.66251 
L 386.386723 193.983635 
L 387.995742 194.483023 
L 388.507431 194.779064 
L 388.80812 195.093668 
L 388.891471 195.417048 
L 388.755725 195.739232 
L 388.403746 196.050269 
L 387.842952 196.340449 
L 386.146352 196.821772 
L 383.808218 197.117711 
L 381.024645 197.178322 
L 378.029087 196.973398 
L 375.072776 196.495002 
L 372.403655 195.758134 
L 370.245578 194.799469 
L 369.416862 194.253629 
L 368.77954 193.674287 
L 368.347045 193.070498 
L 368.128495 192.451831 
L 368.128495 191.828169 
L 368.347045 191.209502 
L 368.77954 190.605713 
L 369.416862 190.026371 
L 370.245578 189.480531 
L 371.24822 188.97654 
L 373.687527 188.122935 
L 376.530202 187.512021 
L 379.537835 187.169913 
L 382.458178 187.100179 
L 385.046309 187.283543 
L 387.085163 187.679504 
L 388.403746 188.229731 
L 388.755725 188.540768 
L 388.891471 188.862952 
L 388.80812 189.186332 
L 388.507431 189.500936 
L 387.995742 189.796977 
L 386.386723 190.296365 
L 384.11601 190.61749 
L 381.374044 190.708297 
L 378.390789 190.536046 
L 375.416447 190.09006 
L 372.700471 189.382621 
L 370.470645 188.447935 
L 369.598532 187.91139 
L 368.913983 187.339271 
L 368.431428 186.740482 
L 368.161038 186.124487 
L 368.108513 185.501113 
L 368.274959 184.880342 
L 368.656869 184.272102 
L 369.246192 183.686057 
L 370.030506 183.131402 
L 370.993281 182.616671 
L 373.3697 181.736748 
L 376.176142 181.094963 
L 379.177236 180.720019 
L 382.121284 180.618236 
L 384.761374 180.773029 
L 386.876085 181.146292 
L 388.28806 181.681597 
L 388.690903 181.988509 
L 388.878878 182.308923 
L 388.848023 182.632928 
L 388.598989 182.950537 
L 388.137024 183.251898 
L 386.617535 183.768382 
L 384.416994 184.113942 
L 381.719957 184.234472 
L 378.75262 184.09474 
L 375.76385 183.681342 
L 373.004309 183.003825 
L 370.705436 182.093888 
L 369.790982 181.567106 
L 369.060035 181.002723 
L 368.528004 180.409478 
L 368.206102 179.79672 
L 368.101116 179.174207 
L 368.215256 178.551902 
L 368.546119 177.939767 
L 369.086729 177.347547 
L 369.825692 176.784567 
L 370.747432 176.259538 
L 373.058083 175.354001 
L 375.824893 174.68176 
L 378.815813 174.27407 
L 381.78 174.14 
L 381.78 154.34 
L 381.78 154.34 
" clip-path="url(#p49ffdf5a51)" style="fill: none; stroke: #000000; stroke-width: 2; stroke-linecap: round"/>
   </g>
   <g id="line2d_82">
    <path d="M 381.78 154.34 
L 220.23 100.31 
L 58.68 46.28 
" clip-path="url(#p49ffdf5a51)" style="fill: none; stroke: #000000; stroke-width: 2; stroke-linecap: round"/>
   </g>
   <g id="line2d_83">
    <path d="M 381.78 229.94 
L 381.78 198.44 
M 372.78 185.84 
L 390.78 185.84 
M 381.78 185.84 
L 381.78 154.34 
" clip-path="url(#p49ffdf5a51)" style="fill: none; stroke: #000000; stroke-width: 2; stroke-linecap: round"/>
   </g>
   <g id="line2d_84">
    <path d="M 214.38 229.94 
L 228.78 229.94 
L 243.18 229.94 
" clip-path="url(#p49ffdf5a51)" style="fill: none; stroke: #000000; stroke-width: 2; stroke-linecap: round"/>
   </g>
   <g id="line2d_85">
    <path d="M 243.18 229.94 
L 262.98 229.94 
L 265.98 220.94 
L 271.98 238.94 
L 277.98 220.94 
L 283.98 238.94 
L 289.98 220.94 
L 295.98 238.94 
L 298.98 229.94 
L 318.78 229.94 
" clip-path="url(#p49ffdf5a51)" style="fill: none; stroke: #000000; stroke-width: 2; stroke-linecap: round"/>
   </g>
   <g id="line2d_86">
    <path d="M 318.78 229.94 
L 350.28 229.94 
M 362.88 220.94 
L 362.88 238.94 
M 362.88 229.94 
L 394.38 229.94 
" clip-path="url(#p49ffdf5a51)" style="fill: none; stroke: #000000; stroke-width: 2; stroke-linecap: round"/>
   </g>
   <g id="line2d_87">
    <path d="M 359.28 216.44 
L 364.7078 206.941351 
" clip-path="url(#p49ffdf5a51)" style="fill: none; stroke: #000000; stroke-width: 2; stroke-linecap: round"/>
   </g>
   <g id="patch_8">
    <path d="M 362.207259 205.51247 
L 368.28 200.69 
L 367.20834 208.370231 
z
" clip-path="url(#p49ffdf5a51)"/>
   </g>
   <g id="line2d_88">
    <path d="M 351.18 216.44 
L 356.6078 206.941351 
" clip-path="url(#p49ffdf5a51)" style="fill: none; stroke: #000000; stroke-width: 2; stroke-linecap: round"/>
   </g>
   <g id="patch_9">
    <path d="M 354.107259 205.51247 
L 360.18 200.69 
L 359.10834 208.370231 
z
" clip-path="url(#p49ffdf5a51)"/>
   </g>
   <g id="line2d_89">
    <path d="M 394.38 229.94 
L 394.38 244.34 
L 385.38 244.34 
L 403.38 244.34 
M 388.08 248.66 
L 400.68 248.66 
M 392.58 252.98 
L 396.18 252.98 
" clip-path="url(#p49ffdf5a51)" style="fill: none; stroke: #000000; stroke-width: 2; stroke-linecap: round"/>
   </g>
   <g id="line2d_90">
    <path d="M 194.58 229.94 
L 208.98 229.94 
L 223.38 229.94 
" clip-path="url(#p49ffdf5a51)" style="fill: none; stroke: #000000; stroke-width: 2; stroke-linecap: round"/>
   </g>
   <g id="line2d_91">
    <path d="M 223.38 229.94 
L 243.18 229.94 
L 246.18 220.94 
L 252.18 238.94 
L 258.18 220.94 
L 264.18 238.94 
L 270.18 220.94 
L 276.18 238.94 
L 279.18 229.94 
L 298.98 229.94 
" clip-path="url(#p49ffdf5a51)" style="fill: none; stroke: #000000; stroke-width: 2; stroke-linecap: round"/>
   </g>
   <g id="line2d_92">
    <path d="M 298.98 229.94 
L 330.48 229.94 
M 343.08 220.94 
L 343.08 238.94 
M 343.08 229.94 
L 374.58 229.94 
" clip-path="url(#p49ffdf5a51)" style="fill: none; stroke: #000000; stroke-width: 2; stroke-linecap: round"/>
   </g>
   <g id="line2d_93">
    <path d="M 339.48 216.44 
L 344.9078 206.941351 
" clip-path="url(#p49ffdf5a51)" style="fill: none; stroke: #000000; stroke-width: 2; stroke-linecap: round"/>
   </g>
   <g id="patch_10">
    <path d="M 342.407259 205.51247 
L 348.48 200.69 
L 347.40834 208.370231 
z
" clip-path="url(#p49ffdf5a51)"/>
   </g>
   <g id="line2d_94">
    <path d="M 331.38 216.44 
L 336.8078 206.941351 
" clip-path="url(#p49ffdf5a51)" style="fill: none; stroke: #000000; stroke-width: 2; stroke-linecap: round"/>
   </g>
   <g id="patch_11">
    <path d="M 334.307259 205.51247 
L 340.38 200.69 
L 339.30834 208.370231 
z
" clip-path="url(#p49ffdf5a51)"/>
   </g>
   <g id="line2d_95">
    <path d="M 374.58 229.94 
L 374.58 244.34 
L 365.58 244.34 
L 383.58 244.34 
M 368.28 248.66 
L 380.88 248.66 
M 372.78 252.98 
L 376.38 252.98 
" clip-path="url(#p49ffdf5a51)" style="fill: none; stroke: #000000; stroke-width: 2; stroke-linecap: round"/>
   </g>
   <g id="line2d_96">
    <path d="M 174.78 229.94 
L 189.18 229.94 
L 203.58 229.94 
" clip-path="url(#p49ffdf5a51)" style="fill: none; stroke: #000000; stroke-width: 2; stroke-linecap: round"/>
   </g>
   <g id="line2d_97">
    <path d="M 203.58 229.94 
L 212.58 229.94 
" clip-path="url(#p49ffdf5a51)" style="fill: none; stroke: #000000; stroke-width: 2; stroke-linecap: round"/>
   </g>
   <g id="line2d_98">
    <path d="M 203.58 247.94 
L 212.58 247.94 
" clip-path="url(#p49ffdf5a51)" style="fill: none; stroke: #000000; stroke-width: 2; stroke-linecap: round"/>
   </g>
   <g id="line2d_99">
    <path d="M 203.58 247.94 
L 203.58 262.34 
L 194.58 262.34 
L 212.58 262.34 
M 197.28 266.66 
L 209.88 266.66 
M 201.78 270.98 
L 205.38 270.98 
" clip-path="url(#p49ffdf5a51)" style="fill: none; stroke: #000000; stroke-width: 2; stroke-linecap: round"/>
   </g>
   <g id="text_1">
    <!-- J1 -->
    <g transform="translate(44.28 82.000313) scale(0.1 -0.1)">
     <defs>
      <path id="DejaVuSans-4a" d="M 628 4666 
L 1259 4666 
L 1259 325 
Q 1259 -519 939 -900 
Q 619 -1281 -91 -1281 
L -331 -1281 
L -331 -750 
L -134 -750 
Q 284 -750 456 -515 
Q 628 -281 628 325 
L 628 4666 
z
" transform="scale(0.015625)"/>
      <path id="DejaVuSans-31" d="M 794 531 
L 1825 531 
L 1825 4091 
L 703 3866 
L 703 4441 
L 1819 4666 
L 2450 4666 
L 2450 531 
L 3481 531 
L 3481 0 
L 794 0 
L 794 531 
z
" transform="scale(0.015625)"/>
     </defs>
     <use xlink:href="#DejaVuSans-4a"/>
     <use xlink:href="#DejaVuSans-31" transform="translate(29.492188 0)"/>
    </g>
    <!-- 12V IN -->
    <g transform="translate(44.28 91.678437) scale(0.1 -0.1)">
     <defs>
      <path id="DejaVuSans-32" d="M 1228 531 
L 3431 531 
L 3431 0 
L 469 0 
L 469 531 
Q 828 903 1448 1529 
Q 2069 2156 2228 2338 
Q 2531 2678 2651 2914 
Q 2772 3150 2772 3378 
Q 2772 3750 2511 3984 
Q 2250 4219 1831 4219 
Q 1534 4219 1204 4116 
Q 875 4013 500 3803 
L 500 4441 
Q 881 4594 1212 4672 
Q 1544 4750 1819 4750 
Q 2544 4750 2975 4387 
Q 3406 4025 3406 3419 
Q 3406 3131 3298 2873 
Q 3191 2616 2906 2266 
Q 2828 2175 2409 1742 
Q 1991 1309 1228 531 
z
" transform="scale(0.015625)"/>
      <path id="DejaVuSans-56" d="M 1831 0 
L 50 4666 
L 709 4666 
L 2188 738 
L 3669 4666 
L 4325 4666 
L 2547 0 
L 1831 0 
z
" transform="scale(0.015625)"/>
      <path id="DejaVuSans-20" transform="scale(0.015625)"/>
      <path id="DejaVuSans-49" d="M 628 4666 
L 1259 4666 
L 1259 0 
L 628 0 
L 628 4666 
z
" transform="scale(0.015625)"/>
      <path id="DejaVuSans-4e" d="M 628 4666 
L 1478 4666 
L 3547 763 
L 3547 4666 
L 4159 4666 
L 4159 0 
L 3309 0 
L 1241 3903 
L 1241 0 
L 628 0 
L 628 4666 
z
" transform="scale(0.015625)"/>
     </defs>
     <use xlink:href="#DejaVuSans-31"/>
     <use xlink:href="#DejaVuSans-32" transform="translate(63.623047 0)"/>
     <use xlink:href="#DejaVuSans-56" transform="translate(127.246094 0)"/>
     <use xlink:href="#DejaVuSans-20" transform="translate(195.654297 0)"/>
     <use xlink:href="#DejaVuSans-49" transform="translate(227.441406 0)"/>
     <use xlink:href="#DejaVuSans-4e" transform="translate(256.933594 0)"/>
    </g>
   </g>
   <g id="text_2">
    <!-- C1 -->
    <g transform="translate(52.007344 74.122187) scale(0.1 -0.1)">
     <defs>
      <path id="DejaVuSans-43" d="M 4122 4306 
L 4122 3641 
Q 3803 3938 3442 4084 
Q 3081 4231 2675 4231 
Q 1875 4231 1450 3742 
Q 1025 3253 1025 2328 
Q 1025 1406 1450 917 
Q 1875 428 2675 428 
Q 3081 428 3442 575 
Q 3803 722 4122 1019 
L 4122 359 
Q 3791 134 3420 21 
Q 3050 -91 2638 -91 
Q 1578 -91 968 557 
Q 359 1206 359 2328 
Q 359 3453 968 4101 
Q 1578 4750 2638 4750 
Q 3056 4750 3426 4639 
Q 3797 4528 4122 4306 
z
" transform="scale(0.015625)"/>
     </defs>
     <use xlink:href="#DejaVuSans-43"/>
     <use xlink:href="#DejaVuSans-31" transform="translate(69.824219 0)"/>
    </g>
    <!-- 100uF -->
    <g transform="translate(43.091719 83.800312) scale(0.1 -0.1)">
     <defs>
      <path id="DejaVuSans-30" d="M 2034 4250 
Q 1547 4250 1301 3770 
Q 1056 3291 1056 2328 
Q 1056 1369 1301 889 
Q 1547 409 2034 409 
Q 2525 409 2770 889 
Q 3016 1369 3016 2328 
Q 3016 3291 2770 3770 
Q 2525 4250 2034 4250 
z
M 2034 4750 
Q 2819 4750 3233 4129 
Q 3647 3509 3647 2328 
Q 3647 1150 3233 529 
Q 2819 -91 2034 -91 
Q 1250 -91 836 529 
Q 422 1150 422 2328 
Q 422 3509 836 4129 
Q 1250 4750 2034 4750 
z
" transform="scale(0.015625)"/>
      <path id="DejaVuSans-75" d="M 544 1381 
L 544 3500 
L 1119 3500 
L 1119 1403 
Q 1119 906 1312 657 
Q 1506 409 1894 409 
Q 2359 409 2629 706 
Q 2900 1003 2900 1516 
L 2900 3500 
L 3475 3500 
L 3475 0 
L 2900 0 
L 2900 538 
Q 2691 219 2414 64 
Q 2138 -91 1772 -91 
Q 1169 -91 856 284 
Q 544 659 544 1381 
z
M 1991 3584 
L 1991 3584 
z
" transform="scale(0.015625)"/>
      <path id="DejaVuSans-46" d="M 628 4666 
L 3309 4666 
L 3309 4134 
L 1259 4134 
L 1259 2759 
L 3109 2759 
L 3109 2228 
L 1259 2228 
L 1259 0 
L 628 0 
L 628 4666 
z
" transform="scale(0.015625)"/>
     </defs>
     <use xlink:href="#DejaVuSans-31"/>
     <use xlink:href="#DejaVuSans-30" transform="translate(63.623047 0)"/>
     <use xlink:href="#DejaVuSans-30" transform="translate(127.246094 0)"/>
     <use xlink:href="#DejaVuSans-75" transform="translate(190.869141 0)"/>
     <use xlink:href="#DejaVuSans-46" transform="translate(254.248047 0)"/>
    </g>
   </g>
   <g id="text_3">
    <!-- VIN -->
    <g transform="translate(145.08 80.743125) scale(0.14 -0.14)">
     <use xlink:href="#DejaVuSans-56"/>
     <use xlink:href="#DejaVuSans-49" transform="translate(68.408203 0)"/>
     <use xlink:href="#DejaVuSans-4e" transform="translate(97.900391 0)"/>
    </g>
   </g>
   <g id="text_4">
    <!-- GND -->
    <g transform="translate(164.88 80.743125) scale(0.14 -0.14)">
     <defs>
      <path id="DejaVuSans-47" d="M 3809 666 
L 3809 1919 
L 2778 1919 
L 2778 2438 
L 4434 2438 
L 4434 434 
Q 4069 175 3628 42 
Q 3188 -91 2688 -91 
Q 1594 -91 976 548 
Q 359 1188 359 2328 
Q 359 3472 976 4111 
Q 1594 4750 2688 4750 
Q 3144 4750 3555 4637 
Q 3966 4525 4313 4306 
L 4313 3634 
Q 3963 3931 3569 4081 
Q 3175 4231 2741 4231 
Q 1884 4231 1454 3753 
Q 1025 3275 1025 2328 
Q 1025 1384 1454 906 
Q 1884 428 2741 428 
Q 3075 428 3337 486 
Q 3600 544 3809 666 
z
" transform="scale(0.015625)"/>
      <path id="DejaVuSans-44" d="M 1259 4147 
L 1259 519 
L 2022 519 
Q 2988 519 3436 956 
Q 3884 1394 3884 2338 
Q 3884 3275 3436 3711 
Q 2988 4147 2022 4147 
L 1259 4147 
z
M 628 4666 
L 1925 4666 
Q 3281 4666 3915 4102 
Q 4550 3538 4550 2338 
Q 4550 1131 3912 565 
Q 3275 0 1925 0 
L 628 0 
L 628 4666 
z
" transform="scale(0.015625)"/>
     </defs>
     <use xlink:href="#DejaVuSans-47"/>
     <use xlink:href="#DejaVuSans-4e" transform="translate(77.490234 0)"/>
     <use xlink:href="#DejaVuSans-44" transform="translate(152.294922 0)"/>
    </g>
   </g>
   <g id="text_5">
    <!-- D13/SCK -->
    <g transform="translate(184.68 80.743125) scale(0.14 -0.14)">
     <defs>
      <path id="DejaVuSans-33" d="M 2597 2516 
Q 3050 2419 3304 2112 
Q 3559 1806 3559 1356 
Q 3559 666 3084 287 
Q 2609 -91 1734 -91 
Q 1441 -91 1130 -33 
Q 819 25 488 141 
L 488 750 
Q 750 597 1062 519 
Q 1375 441 1716 441 
Q 2309 441 2620 675 
Q 2931 909 2931 1356 
Q 2931 1769 2642 2001 
Q 2353 2234 1838 2234 
L 1294 2234 
L 1294 2753 
L 1863 2753 
Q 2328 2753 2575 2939 
Q 2822 3125 2822 3475 
Q 2822 3834 2567 4026 
Q 2313 4219 1838 4219 
Q 1578 4219 1281 4162 
Q 984 4106 628 3988 
L 628 4550 
Q 988 4650 1302 4700 
Q 1616 4750 1894 4750 
Q 2613 4750 3031 4423 
Q 3450 4097 3450 3541 
Q 3450 3153 3228 2886 
Q 3006 2619 2597 2516 
z
" transform="scale(0.015625)"/>
      <path id="DejaVuSans-2f" d="M 1625 4666 
L 2156 4666 
L 531 -594 
L 0 -594 
L 1625 4666 
z
" transform="scale(0.015625)"/>
      <path id="DejaVuSans-53" d="M 3425 4513 
L 3425 3897 
Q 3066 4069 2747 4153 
Q 2428 4238 2131 4238 
Q 1616 4238 1336 4038 
Q 1056 3838 1056 3469 
Q 1056 3159 1242 3001 
Q 1428 2844 1947 2747 
L 2328 2669 
Q 3034 2534 3370 2195 
Q 3706 1856 3706 1288 
Q 3706 609 3251 259 
Q 2797 -91 1919 -91 
Q 1588 -91 1214 -16 
Q 841 59 441 206 
L 441 856 
Q 825 641 1194 531 
Q 1563 422 1919 422 
Q 2459 422 2753 634 
Q 3047 847 3047 1241 
Q 3047 1584 2836 1778 
Q 2625 1972 2144 2069 
L 1759 2144 
Q 1053 2284 737 2584 
Q 422 2884 422 3419 
Q 422 4038 858 4394 
Q 1294 4750 2059 4750 
Q 2388 4750 2728 4690 
Q 3069 4631 3425 4513 
z
" transform="scale(0.015625)"/>
      <path id="DejaVuSans-4b" d="M 628 4666 
L 1259 4666 
L 1259 2694 
L 3353 4666 
L 4166 4666 
L 1850 2491 
L 4331 0 
L 3500 0 
L 1259 2247 
L 1259 0 
L 628 0 
L 628 4666 
z
" transform="scale(0.015625)"/>
     </defs>
     <use xlink:href="#DejaVuSans-44"/>
     <use xlink:href="#DejaVuSans-31" transform="translate(77.001953 0)"/>
     <use xlink:href="#DejaVuSans-33" transform="translate(140.625 0)"/>
     <use xlink:href="#DejaVuSans-2f" transform="translate(204.248047 0)"/>
     <use xlink:href="#DejaVuSans-53" transform="translate(237.939453 0)"/>
     <use xlink:href="#DejaVuSans-43" transform="translate(301.416016 0)"/>
     <use xlink:href="#DejaVuSans-4b" transform="translate(371.240234 0)"/>
    </g>
   </g>
   <g id="text_6">
    <!-- D12/MISO -->
    <g transform="translate(204.48 80.743125) scale(0.14 -0.14)">
     <defs>
      <path id="DejaVuSans-4d" d="M 628 4666 
L 1569 4666 
L 2759 1491 
L 3956 4666 
L 4897 4666 
L 4897 0 
L 4281 0 
L 4281 4097 
L 3078 897 
L 2444 897 
L 1241 4097 
L 1241 0 
L 628 0 
L 628 4666 
z
" transform="scale(0.015625)"/>
      <path id="DejaVuSans-4f" d="M 2522 4238 
Q 1834 4238 1429 3725 
Q 1025 3213 1025 2328 
Q 1025 1447 1429 934 
Q 1834 422 2522 422 
Q 3209 422 3611 934 
Q 4013 1447 4013 2328 
Q 4013 3213 3611 3725 
Q 3209 4238 2522 4238 
z
M 2522 4750 
Q 3503 4750 4090 4092 
Q 4678 3434 4678 2328 
Q 4678 1225 4090 567 
Q 3503 -91 2522 -91 
Q 1538 -91 948 565 
Q 359 1222 359 2328 
Q 359 3434 948 4092 
Q 1538 4750 2522 4750 
z
" transform="scale(0.015625)"/>
     </defs>
     <use xlink:href="#DejaVuSans-44"/>
     <use xlink:href="#DejaVuSans-31" transform="translate(77.001953 0)"/>
     <use xlink:href="#DejaVuSans-32" transform="translate(140.625 0)"/>
     <use xlink:href="#DejaVuSans-2f" transform="translate(204.248047 0)"/>
     <use xlink:href="#DejaVuSans-4d" transform="translate(237.939453 0)"/>
     <use xlink:href="#DejaVuSans-49" transform="translate(324.21875 0)"/>
     <use xlink:href="#DejaVuSans-53" transform="translate(353.710938 0)"/>
     <use xlink:href="#DejaVuSans-4f" transform="translate(417.1875 0)"/>
    </g>
   </g>
   <g id="text_7">
    <!-- D11/MOSI -->
    <g transform="translate(224.28 80.743125) scale(0.14 -0.14)">
     <use xlink:href="#DejaVuSans-44"/>
     <use xlink:href="#DejaVuSans-31" transform="translate(77.001953 0)"/>
     <use xlink:href="#DejaVuSans-31" transform="translate(140.625 0)"/>
     <use xlink:href="#DejaVuSans-2f" transform="translate(204.248047 0)"/>
     <use xlink:href="#DejaVuSans-4d" transform="translate(237.939453 0)"/>
     <use xlink:href="#DejaVuSans-4f" transform="translate(324.21875 0)"/>
     <use xlink:href="#DejaVuSans-53" transform="translate(402.929688 0)"/>
     <use xlink:href="#DejaVuSans-49" transform="translate(466.40625 0)"/>
    </g>
   </g>
   <g id="text_8">
    <!-- D10/SS -->
    <g transform="translate(244.08 80.743125) scale(0.14 -0.14)">
     <use xlink:href="#DejaVuSans-44"/>
     <use xlink:href="#DejaVuSans-31" transform="translate(77.001953 0)"/>
     <use xlink:href="#DejaVuSans-30" transform="translate(140.625 0)"/>
     <use xlink:href="#DejaVuSans-2f" transform="translate(204.248047 0)"/>
     <use xlink:href="#DejaVuSans-53" transform="translate(237.939453 0)"/>
     <use xlink:href="#DejaVuSans-53" transform="translate(301.416016 0)"/>
    </g>
   </g>
   <g id="text_9">
    <!-- D9/RST -->
    <g transform="translate(263.88 80.743125) scale(0.14 -0.14)">
     <defs>
      <path id="DejaVuSans-39" d="M 703 97 
L 703 672 
Q 941 559 1184 500 
Q 1428 441 1663 441 
Q 2288 441 2617 861 
Q 2947 1281 2994 2138 
Q 2813 1869 2534 1725 
Q 2256 1581 1919 1581 
Q 1219 1581 811 2004 
Q 403 2428 403 3163 
Q 403 3881 828 4315 
Q 1253 4750 1959 4750 
Q 2769 4750 3195 4129 
Q 3622 3509 3622 2328 
Q 3622 1225 3098 567 
Q 2575 -91 1691 -91 
Q 1453 -91 1209 -44 
Q 966 3 703 97 
z
M 1959 2075 
Q 2384 2075 2632 2365 
Q 2881 2656 2881 3163 
Q 2881 3666 2632 3958 
Q 2384 4250 1959 4250 
Q 1534 4250 1286 3958 
Q 1038 3666 1038 3163 
Q 1038 2656 1286 2365 
Q 1534 2075 1959 2075 
z
" transform="scale(0.015625)"/>
      <path id="DejaVuSans-52" d="M 2841 2188 
Q 3044 2119 3236 1894 
Q 3428 1669 3622 1275 
L 4263 0 
L 3584 0 
L 2988 1197 
Q 2756 1666 2539 1819 
Q 2322 1972 1947 1972 
L 1259 1972 
L 1259 0 
L 628 0 
L 628 4666 
L 2053 4666 
Q 2853 4666 3247 4331 
Q 3641 3997 3641 3322 
Q 3641 2881 3436 2590 
Q 3231 2300 2841 2188 
z
M 1259 4147 
L 1259 2491 
L 2053 2491 
Q 2509 2491 2742 2702 
Q 2975 2913 2975 3322 
Q 2975 3731 2742 3939 
Q 2509 4147 2053 4147 
L 1259 4147 
z
" transform="scale(0.015625)"/>
      <path id="DejaVuSans-54" d="M -19 4666 
L 3928 4666 
L 3928 4134 
L 2272 4134 
L 2272 0 
L 1638 0 
L 1638 4134 
L -19 4134 
L -19 4666 
z
" transform="scale(0.015625)"/>
     </defs>
     <use xlink:href="#DejaVuSans-44"/>
     <use xlink:href="#DejaVuSans-39" transform="translate(77.001953 0)"/>
     <use xlink:href="#DejaVuSans-2f" transform="translate(140.625 0)"/>
     <use xlink:href="#DejaVuSans-52" transform="translate(174.316406 0)"/>
     <use xlink:href="#DejaVuSans-53" transform="translate(243.798828 0)"/>
     <use xlink:href="#DejaVuSans-54" transform="translate(307.275391 0)"/>
    </g>
   </g>
   <g id="text_10">
    <!-- D7/BZ -->
    <g transform="translate(131.180937 210.403125) scale(0.14 -0.14)">
     <defs>
      <path id="DejaVuSans-37" d="M 525 4666 
L 3525 4666 
L 3525 4397 
L 1831 0 
L 1172 0 
L 2766 4134 
L 525 4134 
L 525 4666 
z
" transform="scale(0.015625)"/>
      <path id="DejaVuSans-42" d="M 1259 2228 
L 1259 519 
L 2272 519 
Q 2781 519 3026 730 
Q 3272 941 3272 1375 
Q 3272 1813 3026 2020 
Q 2781 2228 2272 2228 
L 1259 2228 
z
M 1259 4147 
L 1259 2741 
L 2194 2741 
Q 2656 2741 2882 2914 
Q 3109 3088 3109 3444 
Q 3109 3797 2882 3972 
Q 2656 4147 2194 4147 
L 1259 4147 
z
M 628 4666 
L 2241 4666 
Q 2963 4666 3353 4366 
Q 3744 4066 3744 3513 
Q 3744 3084 3544 2831 
Q 3344 2578 2956 2516 
Q 3422 2416 3680 2098 
Q 3938 1781 3938 1306 
Q 3938 681 3513 340 
Q 3088 0 2303 0 
L 628 0 
L 628 4666 
z
" transform="scale(0.015625)"/>
      <path id="DejaVuSans-5a" d="M 359 4666 
L 4025 4666 
L 4025 4184 
L 1075 531 
L 4097 531 
L 4097 0 
L 288 0 
L 288 481 
L 3238 4134 
L 359 4134 
L 359 4666 
z
" transform="scale(0.015625)"/>
     </defs>
     <use xlink:href="#DejaVuSans-44"/>
     <use xlink:href="#DejaVuSans-37" transform="translate(77.001953 0)"/>
     <use xlink:href="#DejaVuSans-2f" transform="translate(140.625 0)"/>
     <use xlink:href="#DejaVuSans-42" transform="translate(174.316406 0)"/>
     <use xlink:href="#DejaVuSans-5a" transform="translate(242.919922 0)"/>
    </g>
   </g>
   <g id="text_11">
    <!-- D6/RED -->
    <g transform="translate(140.822187 210.403125) scale(0.14 -0.14)">
     <defs>
      <path id="DejaVuSans-36" d="M 2113 2584 
Q 1688 2584 1439 2293 
Q 1191 2003 1191 1497 
Q 1191 994 1439 701 
Q 1688 409 2113 409 
Q 2538 409 2786 701 
Q 3034 994 3034 1497 
Q 3034 2003 2786 2293 
Q 2538 2584 2113 2584 
z
M 3366 4563 
L 3366 3988 
Q 3128 4100 2886 4159 
Q 2644 4219 2406 4219 
Q 1781 4219 1451 3797 
Q 1122 3375 1075 2522 
Q 1259 2794 1537 2939 
Q 1816 3084 2150 3084 
Q 2853 3084 3261 2657 
Q 3669 2231 3669 1497 
Q 3669 778 3244 343 
Q 2819 -91 2113 -91 
Q 1303 -91 875 529 
Q 447 1150 447 2328 
Q 447 3434 972 4092 
Q 1497 4750 2381 4750 
Q 2619 4750 2861 4703 
Q 3103 4656 3366 4563 
z
" transform="scale(0.015625)"/>
      <path id="DejaVuSans-45" d="M 628 4666 
L 3578 4666 
L 3578 4134 
L 1259 4134 
L 1259 2753 
L 3481 2753 
L 3481 2222 
L 1259 2222 
L 1259 531 
L 3634 531 
L 3634 0 
L 628 0 
L 628 4666 
z
" transform="scale(0.015625)"/>
     </defs>
     <use xlink:href="#DejaVuSans-44"/>
     <use xlink:href="#DejaVuSans-36" transform="translate(77.001953 0)"/>
     <use xlink:href="#DejaVuSans-2f" transform="translate(140.625 0)"/>
     <use xlink:href="#DejaVuSans-52" transform="translate(174.316406 0)"/>
     <use xlink:href="#DejaVuSans-45" transform="translate(243.798828 0)"/>
     <use xlink:href="#DejaVuSans-44" transform="translate(306.982422 0)"/>
    </g>
   </g>
   <g id="text_12">
    <!-- D5/GRN -->
    <g transform="translate(158.926875 210.403125) scale(0.14 -0.14)">
     <defs>
      <path id="DejaVuSans-35" d="M 691 4666 
L 3169 4666 
L 3169 4134 
L 1269 4134 
L 1269 2991 
Q 1406 3038 1543 3061 
Q 1681 3084 1819 3084 
Q 2600 3084 3056 2656 
Q 3513 2228 3513 1497 
Q 3513 744 3044 326 
Q 2575 -91 1722 -91 
Q 1428 -91 1123 -41 
Q 819 9 494 109 
L 494 744 
Q 775 591 1075 516 
Q 1375 441 1709 441 
Q 2250 441 2565 725 
Q 2881 1009 2881 1497 
Q 2881 1984 2565 2268 
Q 2250 2553 1709 2553 
Q 1456 2553 1204 2497 
Q 953 2441 691 2322 
L 691 4666 
z
" transform="scale(0.015625)"/>
     </defs>
     <use xlink:href="#DejaVuSans-44"/>
     <use xlink:href="#DejaVuSans-35" transform="translate(77.001953 0)"/>
     <use xlink:href="#DejaVuSans-2f" transform="translate(140.625 0)"/>
     <use xlink:href="#DejaVuSans-47" transform="translate(174.316406 0)"/>
     <use xlink:href="#DejaVuSans-52" transform="translate(251.806641 0)"/>
     <use xlink:href="#DejaVuSans-4e" transform="translate(321.289062 0)"/>
    </g>
   </g>
   <g id="text_13">
    <!-- D3/SOL -->
    <g transform="translate(182.067187 210.403125) scale(0.14 -0.14)">
     <defs>
      <path id="DejaVuSans-4c" d="M 628 4666 
L 1259 4666 
L 1259 531 
L 3531 531 
L 3531 0 
L 628 0 
L 628 4666 
z
" transform="scale(0.015625)"/>
     </defs>
     <use xlink:href="#DejaVuSans-44"/>
     <use xlink:href="#DejaVuSans-33" transform="translate(77.001953 0)"/>
     <use xlink:href="#DejaVuSans-2f" transform="translate(140.625 0)"/>
     <use xlink:href="#DejaVuSans-53" transform="translate(174.316406 0)"/>
     <use xlink:href="#DejaVuSans-4f" transform="translate(237.792969 0)"/>
     <use xlink:href="#DejaVuSans-4c" transform="translate(316.503906 0)"/>
    </g>
   </g>
   <g id="text_14">
    <!-- U1 -->
    <g transform="translate(201.239375 143.230312) scale(0.1 -0.1)">
     <defs>
      <path id="DejaVuSans-55" d="M 556 4666 
L 1191 4666 
L 1191 1831 
Q 1191 1081 1462 751 
Q 1734 422 2344 422 
Q 2950 422 3222 751 
Q 3494 1081 3494 1831 
L 3494 4666 
L 4128 4666 
L 4128 1753 
Q 4128 841 3676 375 
Q 3225 -91 2344 -91 
Q 1459 -91 1007 375 
Q 556 841 556 1753 
L 556 4666 
z
" transform="scale(0.015625)"/>
     </defs>
     <use xlink:href="#DejaVuSans-55"/>
     <use xlink:href="#DejaVuSans-31" transform="translate(73.193359 0)"/>
    </g>
    <!-- Arduino Nano -->
    <g transform="translate(174.109688 152.908437) scale(0.1 -0.1)">
     <defs>
      <path id="DejaVuSans-41" d="M 2188 4044 
L 1331 1722 
L 3047 1722 
L 2188 4044 
z
M 1831 4666 
L 2547 4666 
L 4325 0 
L 3669 0 
L 3244 1197 
L 1141 1197 
L 716 0 
L 50 0 
L 1831 4666 
z
" transform="scale(0.015625)"/>
      <path id="DejaVuSans-72" d="M 2631 2963 
Q 2534 3019 2420 3045 
Q 2306 3072 2169 3072 
Q 1681 3072 1420 2755 
Q 1159 2438 1159 1844 
L 1159 0 
L 581 0 
L 581 3500 
L 1159 3500 
L 1159 2956 
Q 1341 3275 1631 3429 
Q 1922 3584 2338 3584 
Q 2397 3584 2469 3576 
Q 2541 3569 2628 3553 
L 2631 2963 
z
" transform="scale(0.015625)"/>
      <path id="DejaVuSans-64" d="M 2906 2969 
L 2906 4863 
L 3481 4863 
L 3481 0 
L 2906 0 
L 2906 525 
Q 2725 213 2448 61 
Q 2172 -91 1784 -91 
Q 1150 -91 751 415 
Q 353 922 353 1747 
Q 353 2572 751 3078 
Q 1150 3584 1784 3584 
Q 2172 3584 2448 3432 
Q 2725 3281 2906 2969 
z
M 947 1747 
Q 947 1113 1208 752 
Q 1469 391 1925 391 
Q 2381 391 2643 752 
Q 2906 1113 2906 1747 
Q 2906 2381 2643 2742 
Q 2381 3103 1925 3103 
Q 1469 3103 1208 2742 
Q 947 2381 947 1747 
z
" transform="scale(0.015625)"/>
      <path id="DejaVuSans-69" d="M 603 3500 
L 1178 3500 
L 1178 0 
L 603 0 
L 603 3500 
z
M 603 4863 
L 1178 4863 
L 1178 4134 
L 603 4134 
L 603 4863 
z
" transform="scale(0.015625)"/>
      <path id="DejaVuSans-6e" d="M 3513 2113 
L 3513 0 
L 2938 0 
L 2938 2094 
Q 2938 2591 2744 2837 
Q 2550 3084 2163 3084 
Q 1697 3084 1428 2787 
Q 1159 2491 1159 1978 
L 1159 0 
L 581 0 
L 581 3500 
L 1159 3500 
L 1159 2956 
Q 1366 3272 1645 3428 
Q 1925 3584 2291 3584 
Q 2894 3584 3203 3211 
Q 3513 2838 3513 2113 
z
" transform="scale(0.015625)"/>
      <path id="DejaVuSans-6f" d="M 1959 3097 
Q 1497 3097 1228 2736 
Q 959 2375 959 1747 
Q 959 1119 1226 758 
Q 1494 397 1959 397 
Q 2419 397 2687 759 
Q 2956 1122 2956 1747 
Q 2956 2369 2687 2733 
Q 2419 3097 1959 3097 
z
M 1959 3584 
Q 2709 3584 3137 3096 
Q 3566 2609 3566 1747 
Q 3566 888 3137 398 
Q 2709 -91 1959 -91 
Q 1206 -91 779 398 
Q 353 888 353 1747 
Q 353 2609 779 3096 
Q 1206 3584 1959 3584 
z
" transform="scale(0.015625)"/>
      <path id="DejaVuSans-61" d="M 2194 1759 
Q 1497 1759 1228 1600 
Q 959 1441 959 1056 
Q 959 750 1161 570 
Q 1363 391 1709 391 
Q 2188 391 2477 730 
Q 2766 1069 2766 1631 
L 2766 1759 
L 2194 1759 
z
M 3341 1997 
L 3341 0 
L 2766 0 
L 2766 531 
Q 2569 213 2275 61 
Q 1981 -91 1556 -91 
Q 1019 -91 701 211 
Q 384 513 384 1019 
Q 384 1609 779 1909 
Q 1175 2209 1959 2209 
L 2766 2209 
L 2766 2266 
Q 2766 2663 2505 2880 
Q 2244 3097 1772 3097 
Q 1472 3097 1187 3025 
Q 903 2953 641 2809 
L 641 3341 
Q 956 3463 1253 3523 
Q 1550 3584 1831 3584 
Q 2591 3584 2966 3190 
Q 3341 2797 3341 1997 
z
" transform="scale(0.015625)"/>
     </defs>
     <use xlink:href="#DejaVuSans-41"/>
     <use xlink:href="#DejaVuSans-72" transform="translate(68.408203 0)"/>
     <use xlink:href="#DejaVuSans-64" transform="translate(107.771484 0)"/>
     <use xlink:href="#DejaVuSans-75" transform="translate(171.248047 0)"/>
     <use xlink:href="#DejaVuSans-69" transform="translate(234.626953 0)"/>
     <use xlink:href="#DejaVuSans-6e" transform="translate(262.410156 0)"/>
     <use xlink:href="#DejaVuSans-6f" transform="translate(325.789062 0)"/>
     <use xlink:href="#DejaVuSans-20" transform="translate(386.970703 0)"/>
     <use xlink:href="#DejaVuSans-4e" transform="translate(418.757812 0)"/>
     <use xlink:href="#DejaVuSans-61" transform="translate(493.5625 0)"/>
     <use xlink:href="#DejaVuSans-6e" transform="translate(554.841797 0)"/>
     <use xlink:href="#DejaVuSans-6f" transform="translate(618.220703 0)"/>
    </g>
   </g>
   <g id="text_15">
    <!-- in -->
    <g transform="translate(310.68 55.543125) scale(0.14 -0.14)">
     <use xlink:href="#DejaVuSans-69"/>
     <use xlink:href="#DejaVuSans-6e" transform="translate(27.783203 0)"/>
    </g>
   </g>
   <g id="text_16">
    <!-- out -->
    <g transform="translate(287.752813 116.743125) scale(0.14 -0.14)">
     <defs>
      <path id="DejaVuSans-74" d="M 1172 4494 
L 1172 3500 
L 2356 3500 
L 2356 3053 
L 1172 3053 
L 1172 1153 
Q 1172 725 1289 603 
Q 1406 481 1766 481 
L 2356 481 
L 2356 0 
L 1766 0 
Q 1100 0 847 248 
Q 594 497 594 1153 
L 594 3053 
L 172 3053 
L 172 3500 
L 594 3500 
L 594 4494 
L 1172 4494 
z
" transform="scale(0.015625)"/>
     </defs>
     <use xlink:href="#DejaVuSans-6f"/>
     <use xlink:href="#DejaVuSans-75" transform="translate(61.181641 0)"/>
     <use xlink:href="#DejaVuSans-74" transform="translate(124.560547 0)"/>
    </g>
   </g>
   <g id="text_17">
    <!-- gnd -->
    <g transform="translate(266.755937 79.368437) scale(0.14 -0.14)">
     <defs>
      <path id="DejaVuSans-67" d="M 2906 1791 
Q 2906 2416 2648 2759 
Q 2391 3103 1925 3103 
Q 1463 3103 1205 2759 
Q 947 2416 947 1791 
Q 947 1169 1205 825 
Q 1463 481 1925 481 
Q 2391 481 2648 825 
Q 2906 1169 2906 1791 
z
M 3481 434 
Q 3481 -459 3084 -895 
Q 2688 -1331 1869 -1331 
Q 1566 -1331 1297 -1286 
Q 1028 -1241 775 -1147 
L 775 -588 
Q 1028 -725 1275 -790 
Q 1522 -856 1778 -856 
Q 2344 -856 2625 -561 
Q 2906 -266 2906 331 
L 2906 616 
Q 2728 306 2450 153 
Q 2172 0 1784 0 
Q 1141 0 747 490 
Q 353 981 353 1791 
Q 353 2603 747 3093 
Q 1141 3584 1784 3584 
Q 2172 3584 2450 3431 
Q 2728 3278 2906 2969 
L 2906 3500 
L 3481 3500 
L 3481 434 
z
" transform="scale(0.015625)"/>
     </defs>
     <use xlink:href="#DejaVuSans-67"/>
     <use xlink:href="#DejaVuSans-6e" transform="translate(63.476562 0)"/>
     <use xlink:href="#DejaVuSans-64" transform="translate(126.855469 0)"/>
    </g>
   </g>
   <g id="text_18">
    <!-- REG1 -->
    <g transform="translate(278.990938 12.922187) scale(0.1 -0.1)">
     <use xlink:href="#DejaVuSans-52"/>
     <use xlink:href="#DejaVuSans-45" transform="translate(69.482422 0)"/>
     <use xlink:href="#DejaVuSans-47" transform="translate(132.666016 0)"/>
     <use xlink:href="#DejaVuSans-31" transform="translate(210.15625 0)"/>
    </g>
    <!-- AMS1117-3.3 -->
    <g transform="translate(259.290937 22.600312) scale(0.1 -0.1)">
     <defs>
      <path id="DejaVuSans-2d" d="M 313 2009 
L 1997 2009 
L 1997 1497 
L 313 1497 
L 313 2009 
z
" transform="scale(0.015625)"/>
      <path id="DejaVuSans-2e" d="M 684 794 
L 1344 794 
L 1344 0 
L 684 0 
L 684 794 
z
" transform="scale(0.015625)"/>
     </defs>
     <use xlink:href="#DejaVuSans-41"/>
     <use xlink:href="#DejaVuSans-4d" transform="translate(68.408203 0)"/>
     <use xlink:href="#DejaVuSans-53" transform="translate(154.6875 0)"/>
     <use xlink:href="#DejaVuSans-31" transform="translate(218.164062 0)"/>
     <use xlink:href="#DejaVuSans-31" transform="translate(281.787109 0)"/>
     <use xlink:href="#DejaVuSans-31" transform="translate(345.410156 0)"/>
     <use xlink:href="#DejaVuSans-37" transform="translate(409.033203 0)"/>
     <use xlink:href="#DejaVuSans-2d" transform="translate(472.65625 0)"/>
     <use xlink:href="#DejaVuSans-33" transform="translate(508.740234 0)"/>
     <use xlink:href="#DejaVuSans-2e" transform="translate(572.363281 0)"/>
     <use xlink:href="#DejaVuSans-33" transform="translate(604.150391 0)"/>
    </g>
   </g>
   <g id="text_19">
    <!-- C2 -->
    <g transform="translate(376.007344 164.122187) scale(0.1 -0.1)">
     <use xlink:href="#DejaVuSans-43"/>
     <use xlink:href="#DejaVuSans-32" transform="translate(69.824219 0)"/>
    </g>
    <!-- 10uF -->
    <g transform="translate(370.272969 173.800312) scale(0.1 -0.1)">
     <use xlink:href="#DejaVuSans-31"/>
     <use xlink:href="#DejaVuSans-30" transform="translate(63.623047 0)"/>
     <use xlink:href="#DejaVuSans-75" transform="translate(127.246094 0)"/>
     <use xlink:href="#DejaVuSans-46" transform="translate(190.625 0)"/>
    </g>
   </g>
   <g id="text_20">
    <!-- 3V3 -->
    <g transform="translate(397.08 206.743125) scale(0.14 -0.14)">
     <use xlink:href="#DejaVuSans-33"/>
     <use xlink:href="#DejaVuSans-56" transform="translate(63.623047 0)"/>
     <use xlink:href="#DejaVuSans-33" transform="translate(132.03125 0)"/>
    </g>
   </g>
   <g id="text_21">
    <!-- GND -->
    <g transform="translate(416.88 206.743125) scale(0.14 -0.14)">
     <use xlink:href="#DejaVuSans-47"/>
     <use xlink:href="#DejaVuSans-4e" transform="translate(77.490234 0)"/>
     <use xlink:href="#DejaVuSans-44" transform="translate(152.294922 0)"/>
    </g>
   </g>
   <g id="text_22">
    <!-- SCK -->
    <g transform="translate(436.68 206.743125) scale(0.14 -0.14)">
     <use xlink:href="#DejaVuSans-53"/>
     <use xlink:href="#DejaVuSans-43" transform="translate(63.476562 0)"/>
     <use xlink:href="#DejaVuSans-4b" transform="translate(133.300781 0)"/>
    </g>
   </g>
   <g id="text_23">
    <!-- MISO -->
    <g transform="translate(456.48 206.743125) scale(0.14 -0.14)">
     <use xlink:href="#DejaVuSans-4d"/>
     <use xlink:href="#DejaVuSans-49" transform="translate(86.279297 0)"/>
     <use xlink:href="#DejaVuSans-53" transform="translate(115.771484 0)"/>
     <use xlink:href="#DejaVuSans-4f" transform="translate(179.248047 0)"/>
    </g>
   </g>
   <g id="text_24">
    <!-- MOSI -->
    <g transform="translate(476.28 206.743125) scale(0.14 -0.14)">
     <use xlink:href="#DejaVuSans-4d"/>
     <use xlink:href="#DejaVuSans-4f" transform="translate(86.279297 0)"/>
     <use xlink:href="#DejaVuSans-53" transform="translate(164.990234 0)"/>
     <use xlink:href="#DejaVuSans-49" transform="translate(228.466797 0)"/>
    </g>
   </g>
   <g id="text_25">
    <!-- SDA -->
    <g transform="translate(496.08 206.743125) scale(0.14 -0.14)">
     <use xlink:href="#DejaVuSans-53"/>
     <use xlink:href="#DejaVuSans-44" transform="translate(63.476562 0)"/>
     <use xlink:href="#DejaVuSans-41" transform="translate(138.728516 0)"/>
    </g>
   </g>
   <g id="text_26">
    <!-- RST -->
    <g transform="translate(515.88 206.743125) scale(0.14 -0.14)">
     <use xlink:href="#DejaVuSans-52"/>
     <use xlink:href="#DejaVuSans-53" transform="translate(69.482422 0)"/>
     <use xlink:href="#DejaVuSans-54" transform="translate(132.958984 0)"/>
    </g>
   </g>
   <g id="text_27">
    <!-- U2 -->
    <g transform="translate(453.239375 244.000312) scale(0.1 -0.1)">
     <use xlink:href="#DejaVuSans-55"/>
     <use xlink:href="#DejaVuSans-32" transform="translate(73.193359 0)"/>
    </g>
    <!-- MFRC522 -->
    <g transform="translate(436.630781 253.678437) scale(0.1 -0.1)">
     <use xlink:href="#DejaVuSans-4d"/>
     <use xlink:href="#DejaVuSans-46" transform="translate(86.279297 0)"/>
     <use xlink:href="#DejaVuSans-52" transform="translate(143.798828 0)"/>
     <use xlink:href="#DejaVuSans-43" transform="translate(208.28125 0)"/>
     <use xlink:href="#DejaVuSans-35" transform="translate(278.105469 0)"/>
     <use xlink:href="#DejaVuSans-32" transform="translate(341.728516 0)"/>
     <use xlink:href="#DejaVuSans-32" transform="translate(405.351562 0)"/>
    </g>
   </g>
   <g id="text_28">
    <!-- R5 2.2k -->
    <g transform="translate(109.788594 38.800312) scale(0.1 -0.1)">
     <defs>
      <path id="DejaVuSans-6b" d="M 581 4863 
L 1159 4863 
L 1159 1991 
L 2875 3500 
L 3609 3500 
L 1753 1863 
L 3688 0 
L 2938 0 
L 1159 1709 
L 1159 0 
L 581 0 
L 581 4863 
z
" transform="scale(0.015625)"/>
     </defs>
     <use xlink:href="#DejaVuSans-52"/>
     <use xlink:href="#DejaVuSans-35" transform="translate(69.482422 0)"/>
     <use xlink:href="#DejaVuSans-20" transform="translate(133.105469 0)"/>
     <use xlink:href="#DejaVuSans-32" transform="translate(164.892578 0)"/>
     <use xlink:href="#DejaVuSans-2e" transform="translate(228.515625 0)"/>
     <use xlink:href="#DejaVuSans-32" transform="translate(260.302734 0)"/>
     <use xlink:href="#DejaVuSans-6b" transform="translate(323.925781 0)"/>
    </g>
   </g>
   <g id="text_29">
    <!-- R8 3.3k -->
    <g transform="translate(71.988594 47.800312) scale(0.1 -0.1)">
     <defs>
      <path id="DejaVuSans-38" d="M 2034 2216 
Q 1584 2216 1326 1975 
Q 1069 1734 1069 1313 
Q 1069 891 1326 650 
Q 1584 409 2034 409 
Q 2484 409 2743 651 
Q 3003 894 3003 1313 
Q 3003 1734 2745 1975 
Q 2488 2216 2034 2216 
z
M 1403 2484 
Q 997 2584 770 2862 
Q 544 3141 544 3541 
Q 544 4100 942 4425 
Q 1341 4750 2034 4750 
Q 2731 4750 3128 4425 
Q 3525 4100 3525 3541 
Q 3525 3141 3298 2862 
Q 3072 2584 2669 2484 
Q 3125 2378 3379 2068 
Q 3634 1759 3634 1313 
Q 3634 634 3220 271 
Q 2806 -91 2034 -91 
Q 1263 -91 848 271 
Q 434 634 434 1313 
Q 434 1759 690 2068 
Q 947 2378 1403 2484 
z
M 1172 3481 
Q 1172 3119 1398 2916 
Q 1625 2713 2034 2713 
Q 2441 2713 2670 2916 
Q 2900 3119 2900 3481 
Q 2900 3844 2670 4047 
Q 2441 4250 2034 4250 
Q 1625 4250 1398 4047 
Q 1172 3844 1172 3481 
z
" transform="scale(0.015625)"/>
     </defs>
     <use xlink:href="#DejaVuSans-52"/>
     <use xlink:href="#DejaVuSans-38" transform="translate(69.482422 0)"/>
     <use xlink:href="#DejaVuSans-20" transform="translate(133.105469 0)"/>
     <use xlink:href="#DejaVuSans-33" transform="translate(164.892578 0)"/>
     <use xlink:href="#DejaVuSans-2e" transform="translate(228.515625 0)"/>
     <use xlink:href="#DejaVuSans-33" transform="translate(260.302734 0)"/>
     <use xlink:href="#DejaVuSans-6b" transform="translate(323.925781 0)"/>
    </g>
   </g>
   <g id="text_30">
    <!-- R6 2.2k -->
    <g transform="translate(149.388594 38.800312) scale(0.1 -0.1)">
     <use xlink:href="#DejaVuSans-52"/>
     <use xlink:href="#DejaVuSans-36" transform="translate(69.482422 0)"/>
     <use xlink:href="#DejaVuSans-20" transform="translate(133.105469 0)"/>
     <use xlink:href="#DejaVuSans-32" transform="translate(164.892578 0)"/>
     <use xlink:href="#DejaVuSans-2e" transform="translate(228.515625 0)"/>
     <use xlink:href="#DejaVuSans-32" transform="translate(260.302734 0)"/>
     <use xlink:href="#DejaVuSans-6b" transform="translate(323.925781 0)"/>
    </g>
   </g>
   <g id="text_31">
    <!-- R9 3.3k -->
    <g transform="translate(111.588594 47.800312) scale(0.1 -0.1)">
     <use xlink:href="#DejaVuSans-52"/>
     <use xlink:href="#DejaVuSans-39" transform="translate(69.482422 0)"/>
     <use xlink:href="#DejaVuSans-20" transform="translate(133.105469 0)"/>
     <use xlink:href="#DejaVuSans-33" transform="translate(164.892578 0)"/>
     <use xlink:href="#DejaVuSans-2e" transform="translate(228.515625 0)"/>
     <use xlink:href="#DejaVuSans-33" transform="translate(260.302734 0)"/>
     <use xlink:href="#DejaVuSans-6b" transform="translate(323.925781 0)"/>
    </g>
   </g>
   <g id="text_32">
    <!-- R7 2.2k -->
    <g transform="translate(169.188594 38.800313) scale(0.1 -0.1)">
     <use xlink:href="#DejaVuSans-52"/>
     <use xlink:href="#DejaVuSans-37" transform="translate(69.482422 0)"/>
     <use xlink:href="#DejaVuSans-20" transform="translate(133.105469 0)"/>
     <use xlink:href="#DejaVuSans-32" transform="translate(164.892578 0)"/>
     <use xlink:href="#DejaVuSans-2e" transform="translate(228.515625 0)"/>
     <use xlink:href="#DejaVuSans-32" transform="translate(260.302734 0)"/>
     <use xlink:href="#DejaVuSans-6b" transform="translate(323.925781 0)"/>
    </g>
   </g>
   <g id="text_33">
    <!-- R10 3.3k -->
    <g transform="translate(128.207344 47.800313) scale(0.1 -0.1)">
     <use xlink:href="#DejaVuSans-52"/>
     <use xlink:href="#DejaVuSans-31" transform="translate(69.482422 0)"/>
     <use xlink:href="#DejaVuSans-30" transform="translate(133.105469 0)"/>
     <use xlink:href="#DejaVuSans-20" transform="translate(196.728516 0)"/>
     <use xlink:href="#DejaVuSans-33" transform="translate(228.515625 0)"/>
     <use xlink:href="#DejaVuSans-2e" transform="translate(292.138672 0)"/>
     <use xlink:href="#DejaVuSans-33" transform="translate(323.925781 0)"/>
     <use xlink:href="#DejaVuSans-6b" transform="translate(387.548828 0)"/>
    </g>
   </g>
   <g id="text_34">
    <!-- R11 2.2k -->
    <g transform="translate(185.807344 38.800313) scale(0.1 -0.1)">
     <use xlink:href="#DejaVuSans-52"/>
     <use xlink:href="#DejaVuSans-31" transform="translate(69.482422 0)"/>
     <use xlink:href="#DejaVuSans-31" transform="translate(133.105469 0)"/>
     <use xlink:href="#DejaVuSans-20" transform="translate(196.728516 0)"/>
     <use xlink:href="#DejaVuSans-32" transform="translate(228.515625 0)"/>
     <use xlink:href="#DejaVuSans-2e" transform="translate(292.138672 0)"/>
     <use xlink:href="#DejaVuSans-32" transform="translate(323.925781 0)"/>
     <use xlink:href="#DejaVuSans-6b" transform="translate(387.548828 0)"/>
    </g>
   </g>
   <g id="text_35">
    <!-- R12 3.3k -->
    <g transform="translate(148.007344 47.800313) scale(0.1 -0.1)">
     <use xlink:href="#DejaVuSans-52"/>
     <use xlink:href="#DejaVuSans-31" transform="translate(69.482422 0)"/>
     <use xlink:href="#DejaVuSans-32" transform="translate(133.105469 0)"/>
     <use xlink:href="#DejaVuSans-20" transform="translate(196.728516 0)"/>
     <use xlink:href="#DejaVuSans-33" transform="translate(228.515625 0)"/>
     <use xlink:href="#DejaVuSans-2e" transform="translate(292.138672 0)"/>
     <use xlink:href="#DejaVuSans-33" transform="translate(323.925781 0)"/>
     <use xlink:href="#DejaVuSans-6b" transform="translate(387.548828 0)"/>
    </g>
   </g>
   <g id="text_36">
    <!-- R1 220R -->
    <g transform="translate(279.5175 215.260312) scale(0.1 -0.1)">
     <use xlink:href="#DejaVuSans-52"/>
     <use xlink:href="#DejaVuSans-31" transform="translate(69.482422 0)"/>
     <use xlink:href="#DejaVuSans-20" transform="translate(133.105469 0)"/>
     <use xlink:href="#DejaVuSans-32" transform="translate(164.892578 0)"/>
     <use xlink:href="#DejaVuSans-32" transform="translate(228.515625 0)"/>
     <use xlink:href="#DejaVuSans-30" transform="translate(292.138672 0)"/>
     <use xlink:href="#DejaVuSans-52" transform="translate(355.761719 0)"/>
    </g>
   </g>
   <g id="text_37">
    <!-- R2 100k -->
    <g transform="translate(317.896406 224.260312) scale(0.1 -0.1)">
     <use xlink:href="#DejaVuSans-52"/>
     <use xlink:href="#DejaVuSans-32" transform="translate(69.482422 0)"/>
     <use xlink:href="#DejaVuSans-20" transform="translate(133.105469 0)"/>
     <use xlink:href="#DejaVuSans-31" transform="translate(164.892578 0)"/>
     <use xlink:href="#DejaVuSans-30" transform="translate(228.515625 0)"/>
     <use xlink:href="#DejaVuSans-30" transform="translate(292.138672 0)"/>
     <use xlink:href="#DejaVuSans-6b" transform="translate(355.761719 0)"/>
    </g>
   </g>
   <g id="text_38">
    <!-- Q1 -->
    <g transform="translate(391.38 254.860312) scale(0.1 -0.1)">
     <defs>
      <path id="DejaVuSans-51" d="M 2522 4238 
Q 1834 4238 1429 3725 
Q 1025 3213 1025 2328 
Q 1025 1447 1429 934 
Q 1834 422 2522 422 
Q 3209 422 3611 934 
Q 4013 1447 4013 2328 
Q 4013 3213 3611 3725 
Q 3209 4238 2522 4238 
z
M 3406 84 
L 4238 -825 
L 3475 -825 
L 2784 -78 
Q 2681 -84 2626 -87 
Q 2572 -91 2522 -91 
Q 1538 -91 948 567 
Q 359 1225 359 2328 
Q 359 3434 948 4092 
Q 1538 4750 2522 4750 
Q 3503 4750 4090 4092 
Q 4678 3434 4678 2328 
Q 4678 1516 4351 937 
Q 4025 359 3406 84 
z
" transform="scale(0.015625)"/>
     </defs>
     <use xlink:href="#DejaVuSans-51"/>
     <use xlink:href="#DejaVuSans-31" transform="translate(78.710938 0)"/>
    </g>
    <!-- IRLZ44N -->
    <g transform="translate(391.38 264.538437) scale(0.1 -0.1)">
     <defs>
      <path id="DejaVuSans-34" d="M 2419 4116 
L 825 1625 
L 2419 1625 
L 2419 4116 
z
M 2253 4666 
L 3047 4666 
L 3047 1625 
L 3713 1625 
L 3713 1100 
L 3047 1100 
L 3047 0 
L 2419 0 
L 2419 1100 
L 313 1100 
L 313 1709 
L 2253 4666 
z
" transform="scale(0.015625)"/>
     </defs>
     <use xlink:href="#DejaVuSans-49"/>
     <use xlink:href="#DejaVuSans-52" transform="translate(29.492188 0)"/>
     <use xlink:href="#DejaVuSans-4c" transform="translate(98.974609 0)"/>
     <use xlink:href="#DejaVuSans-5a" transform="translate(154.6875 0)"/>
     <use xlink:href="#DejaVuSans-34" transform="translate(223.193359 0)"/>
     <use xlink:href="#DejaVuSans-34" transform="translate(286.816406 0)"/>
     <use xlink:href="#DejaVuSans-4e" transform="translate(350.439453 0)"/>
    </g>
   </g>
   <g id="text_39">
    <!-- LOCK1 -->
    <g transform="translate(362.004106 138.982188) scale(0.1 -0.1)">
     <use xlink:href="#DejaVuSans-4c"/>
     <use xlink:href="#DejaVuSans-4f" transform="translate(52.087891 0)"/>
     <use xlink:href="#DejaVuSans-43" transform="translate(130.798828 0)"/>
     <use xlink:href="#DejaVuSans-4b" transform="translate(200.623047 0)"/>
     <use xlink:href="#DejaVuSans-31" transform="translate(266.199219 0)"/>
    </g>
    <!-- 12V Solenoid -->
    <g transform="translate(345.633793 148.660313) scale(0.1 -0.1)">
     <defs>
      <path id="DejaVuSans-6c" d="M 603 4863 
L 1178 4863 
L 1178 0 
L 603 0 
L 603 4863 
z
" transform="scale(0.015625)"/>
      <path id="DejaVuSans-65" d="M 3597 1894 
L 3597 1613 
L 953 1613 
Q 991 1019 1311 708 
Q 1631 397 2203 397 
Q 2534 397 2845 478 
Q 3156 559 3463 722 
L 3463 178 
Q 3153 47 2828 -22 
Q 2503 -91 2169 -91 
Q 1331 -91 842 396 
Q 353 884 353 1716 
Q 353 2575 817 3079 
Q 1281 3584 2069 3584 
Q 2775 3584 3186 3129 
Q 3597 2675 3597 1894 
z
M 3022 2063 
Q 3016 2534 2758 2815 
Q 2500 3097 2075 3097 
Q 1594 3097 1305 2825 
Q 1016 2553 972 2059 
L 3022 2063 
z
" transform="scale(0.015625)"/>
     </defs>
     <use xlink:href="#DejaVuSans-31"/>
     <use xlink:href="#DejaVuSans-32" transform="translate(63.623047 0)"/>
     <use xlink:href="#DejaVuSans-56" transform="translate(127.246094 0)"/>
     <use xlink:href="#DejaVuSans-20" transform="translate(195.654297 0)"/>
     <use xlink:href="#DejaVuSans-53" transform="translate(227.441406 0)"/>
     <use xlink:href="#DejaVuSans-6f" transform="translate(290.917969 0)"/>
     <use xlink:href="#DejaVuSans-6c" transform="translate(352.099609 0)"/>
     <use xlink:href="#DejaVuSans-65" transform="translate(379.882812 0)"/>
     <use xlink:href="#DejaVuSans-6e" transform="translate(441.40625 0)"/>
     <use xlink:href="#DejaVuSans-6f" transform="translate(504.785156 0)"/>
     <use xlink:href="#DejaVuSans-69" transform="translate(565.966797 0)"/>
     <use xlink:href="#DejaVuSans-64" transform="translate(593.75 0)"/>
    </g>
   </g>
   <g id="text_40">
    <!-- D1 1N5408 -->
    <g transform="translate(353.512812 148.660313) scale(0.1 -0.1)">
     <use xlink:href="#DejaVuSans-44"/>
     <use xlink:href="#DejaVuSans-31" transform="translate(77.001953 0)"/>
     <use xlink:href="#DejaVuSans-20" transform="translate(140.625 0)"/>
     <use xlink:href="#DejaVuSans-31" transform="translate(172.412109 0)"/>
     <use xlink:href="#DejaVuSans-4e" transform="translate(236.035156 0)"/>
     <use xlink:href="#DejaVuSans-35" transform="translate(310.839844 0)"/>
     <use xlink:href="#DejaVuSans-34" transform="translate(374.462891 0)"/>
     <use xlink:href="#DejaVuSans-30" transform="translate(438.085938 0)"/>
     <use xlink:href="#DejaVuSans-38" transform="translate(501.708984 0)"/>
    </g>
   </g>
   <g id="text_41">
    <!-- R3 330R -->
    <g transform="translate(259.7175 215.260312) scale(0.1 -0.1)">
     <use xlink:href="#DejaVuSans-52"/>
     <use xlink:href="#DejaVuSans-33" transform="translate(69.482422 0)"/>
     <use xlink:href="#DejaVuSans-20" transform="translate(133.105469 0)"/>
     <use xlink:href="#DejaVuSans-33" transform="translate(164.892578 0)"/>
     <use xlink:href="#DejaVuSans-33" transform="translate(228.515625 0)"/>
     <use xlink:href="#DejaVuSans-30" transform="translate(292.138672 0)"/>
     <use xlink:href="#DejaVuSans-52" transform="translate(355.761719 0)"/>
    </g>
   </g>
   <g id="text_42">
    <!-- LED1 GRN -->
    <g transform="translate(397.98 219.694375) scale(0.1 -0.1)">
     <use xlink:href="#DejaVuSans-4c"/>
     <use xlink:href="#DejaVuSans-45" transform="translate(55.712891 0)"/>
     <use xlink:href="#DejaVuSans-44" transform="translate(118.896484 0)"/>
     <use xlink:href="#DejaVuSans-31" transform="translate(195.898438 0)"/>
     <use xlink:href="#DejaVuSans-20" transform="translate(259.521484 0)"/>
     <use xlink:href="#DejaVuSans-47" transform="translate(291.308594 0)"/>
     <use xlink:href="#DejaVuSans-52" transform="translate(368.798828 0)"/>
     <use xlink:href="#DejaVuSans-4e" transform="translate(438.28125 0)"/>
    </g>
   </g>
   <g id="text_43">
    <!-- R4 330R -->
    <g transform="translate(239.9175 215.260312) scale(0.1 -0.1)">
     <use xlink:href="#DejaVuSans-52"/>
     <use xlink:href="#DejaVuSans-34" transform="translate(69.482422 0)"/>
     <use xlink:href="#DejaVuSans-20" transform="translate(133.105469 0)"/>
     <use xlink:href="#DejaVuSans-33" transform="translate(164.892578 0)"/>
     <use xlink:href="#DejaVuSans-33" transform="translate(228.515625 0)"/>
     <use xlink:href="#DejaVuSans-30" transform="translate(292.138672 0)"/>
     <use xlink:href="#DejaVuSans-52" transform="translate(355.761719 0)"/>
    </g>
   </g>
   <g id="text_44">
    <!-- LED2 RED -->
    <g transform="translate(378.18 219.694375) scale(0.1 -0.1)">
     <use xlink:href="#DejaVuSans-4c"/>
     <use xlink:href="#DejaVuSans-45" transform="translate(55.712891 0)"/>
     <use xlink:href="#DejaVuSans-44" transform="translate(118.896484 0)"/>
     <use xlink:href="#DejaVuSans-32" transform="translate(195.898438 0)"/>
     <use xlink:href="#DejaVuSans-20" transform="translate(259.521484 0)"/>
     <use xlink:href="#DejaVuSans-52" transform="translate(291.308594 0)"/>
     <use xlink:href="#DejaVuSans-45" transform="translate(360.791016 0)"/>
     <use xlink:href="#DejaVuSans-44" transform="translate(423.974609 0)"/>
    </g>
   </g>
   <g id="text_45">
    <!-- BZ1 active buzzer -->
    <g transform="translate(238.68 241.699375) scale(0.1 -0.1)">
     <defs>
      <path id="DejaVuSans-63" d="M 3122 3366 
L 3122 2828 
Q 2878 2963 2633 3030 
Q 2388 3097 2138 3097 
Q 1578 3097 1268 2742 
Q 959 2388 959 1747 
Q 959 1106 1268 751 
Q 1578 397 2138 397 
Q 2388 397 2633 464 
Q 2878 531 3122 666 
L 3122 134 
Q 2881 22 2623 -34 
Q 2366 -91 2075 -91 
Q 1284 -91 818 406 
Q 353 903 353 1747 
Q 353 2603 823 3093 
Q 1294 3584 2113 3584 
Q 2378 3584 2631 3529 
Q 2884 3475 3122 3366 
z
" transform="scale(0.015625)"/>
      <path id="DejaVuSans-76" d="M 191 3500 
L 800 3500 
L 1894 563 
L 2988 3500 
L 3597 3500 
L 2284 0 
L 1503 0 
L 191 3500 
z
" transform="scale(0.015625)"/>
      <path id="DejaVuSans-62" d="M 3116 1747 
Q 3116 2381 2855 2742 
Q 2594 3103 2138 3103 
Q 1681 3103 1420 2742 
Q 1159 2381 1159 1747 
Q 1159 1113 1420 752 
Q 1681 391 2138 391 
Q 2594 391 2855 752 
Q 3116 1113 3116 1747 
z
M 1159 2969 
Q 1341 3281 1617 3432 
Q 1894 3584 2278 3584 
Q 2916 3584 3314 3078 
Q 3713 2572 3713 1747 
Q 3713 922 3314 415 
Q 2916 -91 2278 -91 
Q 1894 -91 1617 61 
Q 1341 213 1159 525 
L 1159 0 
L 581 0 
L 581 4863 
L 1159 4863 
L 1159 2969 
z
" transform="scale(0.015625)"/>
      <path id="DejaVuSans-7a" d="M 353 3500 
L 3084 3500 
L 3084 2975 
L 922 459 
L 3084 459 
L 3084 0 
L 275 0 
L 275 525 
L 2438 3041 
L 353 3041 
L 353 3500 
z
" transform="scale(0.015625)"/>
     </defs>
     <use xlink:href="#DejaVuSans-42"/>
     <use xlink:href="#DejaVuSans-5a" transform="translate(68.603516 0)"/>
     <use xlink:href="#DejaVuSans-31" transform="translate(137.109375 0)"/>
     <use xlink:href="#DejaVuSans-20" transform="translate(200.732422 0)"/>
     <use xlink:href="#DejaVuSans-61" transform="translate(232.519531 0)"/>
     <use xlink:href="#DejaVuSans-63" transform="translate(293.798828 0)"/>
     <use xlink:href="#DejaVuSans-74" transform="translate(348.779297 0)"/>
     <use xlink:href="#DejaVuSans-69" transform="translate(387.988281 0)"/>
     <use xlink:href="#DejaVuSans-76" transform="translate(415.771484 0)"/>
     <use xlink:href="#DejaVuSans-65" transform="translate(474.951172 0)"/>
     <use xlink:href="#DejaVuSans-20" transform="translate(536.474609 0)"/>
     <use xlink:href="#DejaVuSans-62" transform="translate(568.261719 0)"/>
     <use xlink:href="#DejaVuSans-75" transform="translate(631.738281 0)"/>
     <use xlink:href="#DejaVuSans-7a" transform="translate(695.117188 0)"/>
     <use xlink:href="#DejaVuSans-7a" transform="translate(747.607422 0)"/>
     <use xlink:href="#DejaVuSans-65" transform="translate(800.097656 0)"/>
     <use xlink:href="#DejaVuSans-72" transform="translate(861.621094 0)"/>
    </g>
   </g>
   <g id="patch_12">
    <path d="M 58.68 48.98 
C 59.396048 48.98 60.082866 48.695511 60.589188 48.189188 
C 61.095511 47.682866 61.38 46.996048 61.38 46.28 
C 61.38 45.563952 61.095511 44.877134 60.589188 44.370812 
C 60.082866 43.864489 59.396048 43.58 58.68 43.58 
C 57.963952 43.58 57.277134 43.864489 56.770812 44.370812 
C 56.264489 44.877134 55.98 45.563952 55.98 46.28 
C 55.98 46.996048 56.264489 47.682866 56.770812 48.189188 
C 57.277134 48.695511 57.963952 48.98 58.68 48.98 
z
" clip-path="url(#p49ffdf5a51)" style="stroke: #000000; stroke-width: 2; stroke-linejoin: miter"/>
   </g>
   <g id="text_46">
    <!-- +12V -->
    <g transform="translate(44.707344 37.900312) scale(0.1 -0.1)">
     <defs>
      <path id="DejaVuSans-2b" d="M 2944 4013 
L 2944 2272 
L 4684 2272 
L 4684 1741 
L 2944 1741 
L 2944 0 
L 2419 0 
L 2419 1741 
L 678 1741 
L 678 2272 
L 2419 2272 
L 2419 4013 
L 2944 4013 
z
" transform="scale(0.015625)"/>
     </defs>
     <use xlink:href="#DejaVuSans-2b"/>
     <use xlink:href="#DejaVuSans-31" transform="translate(83.789062 0)"/>
     <use xlink:href="#DejaVuSans-32" transform="translate(147.412109 0)"/>
     <use xlink:href="#DejaVuSans-56" transform="translate(211.035156 0)"/>
    </g>
   </g>
   <g id="patch_13">
    <path d="M 130.68 48.98 
C 131.396048 48.98 132.082866 48.695511 132.589188 48.189188 
C 133.095511 47.682866 133.38 46.996048 133.38 46.28 
C 133.38 45.563952 133.095511 44.877134 132.589188 44.370812 
C 132.082866 43.864489 131.396048 43.58 130.68 43.58 
C 129.963952 43.58 129.277134 43.864489 128.770812 44.370812 
C 128.264489 44.877134 127.98 45.563952 127.98 46.28 
C 127.98 46.996048 128.264489 47.682866 128.770812 48.189188 
C 129.277134 48.695511 129.963952 48.98 130.68 48.98 
z
" clip-path="url(#p49ffdf5a51)" style="stroke: #000000; stroke-width: 2; stroke-linejoin: miter"/>
   </g>
   <g id="patch_14">
    <path d="M 136.08 56.18 
C 136.796048 56.18 137.482866 55.895511 137.989188 55.389188 
C 138.495511 54.882866 138.78 54.196048 138.78 53.48 
C 138.78 52.763952 138.495511 52.077134 137.989188 51.570812 
C 137.482866 51.064489 136.796048 50.78 136.08 50.78 
C 135.363952 50.78 134.677134 51.064489 134.170812 51.570812 
C 133.664489 52.077134 133.38 52.763952 133.38 53.48 
C 133.38 54.196048 133.664489 54.882866 134.170812 55.389188 
C 134.677134 55.895511 135.363952 56.18 136.08 56.18 
z
" clip-path="url(#p49ffdf5a51)" style="stroke: #000000; stroke-width: 2; stroke-linejoin: miter"/>
   </g>
   <g id="patch_15">
    <path d="M 274.68 48.98 
C 275.396048 48.98 276.082866 48.695511 276.589188 48.189188 
C 277.095511 47.682866 277.38 46.996048 277.38 46.28 
C 277.38 45.563952 277.095511 44.877134 276.589188 44.370812 
C 276.082866 43.864489 275.396048 43.58 274.68 43.58 
C 273.963952 43.58 273.277134 43.864489 272.770812 44.370812 
C 272.264489 44.877134 271.98 45.563952 271.98 46.28 
C 271.98 46.996048 272.264489 47.682866 272.770812 48.189188 
C 273.277134 48.695511 273.963952 48.98 274.68 48.98 
z
" clip-path="url(#p49ffdf5a51)" style="stroke: #000000; stroke-width: 2; stroke-linejoin: miter"/>
   </g>
   <g id="patch_16">
    <path d="M 382.68 138.98 
C 383.396048 138.98 384.082866 138.695511 384.589188 138.189188 
C 385.095511 137.682866 385.38 136.996048 385.38 136.28 
C 385.38 135.563952 385.095511 134.877134 384.589188 134.370812 
C 384.082866 133.864489 383.396048 133.58 382.68 133.58 
C 381.963952 133.58 381.277134 133.864489 380.770812 134.370812 
C 380.264489 134.877134 379.98 135.563952 379.98 136.28 
C 379.98 136.996048 380.264489 137.682866 380.770812 138.189188 
C 381.277134 138.695511 381.963952 138.98 382.68 138.98 
z
" clip-path="url(#p49ffdf5a51)" style="stroke: #000000; stroke-width: 2; stroke-linejoin: miter"/>
   </g>
   <g id="text_47">
    <!-- +3.3V -->
    <g transform="translate(367.118281 127.900312) scale(0.1 -0.1)">
     <use xlink:href="#DejaVuSans-2b"/>
     <use xlink:href="#DejaVuSans-33" transform="translate(83.789062 0)"/>
     <use xlink:href="#DejaVuSans-2e" transform="translate(147.412109 0)"/>
     <use xlink:href="#DejaVuSans-33" transform="translate(179.199219 0)"/>
     <use xlink:href="#DejaVuSans-56" transform="translate(242.822266 0)"/>
    </g>
   </g>
   <g id="patch_17">
    <path d="M 388.08 182.18 
C 388.796048 182.18 389.482866 181.895511 389.989188 181.389188 
C 390.495511 180.882866 390.78 180.196048 390.78 179.48 
C 390.78 178.763952 390.495511 178.077134 389.989188 177.570812 
C 389.482866 177.064489 388.796048 176.78 388.08 176.78 
C 387.363952 176.78 386.677134 177.064489 386.170812 177.570812 
C 385.664489 178.077134 385.38 178.763952 385.38 179.48 
C 385.38 180.196048 385.664489 180.882866 386.170812 181.389188 
C 386.677134 181.895511 387.363952 182.18 388.08 182.18 
z
" clip-path="url(#p49ffdf5a51)" style="stroke: #000000; stroke-width: 2; stroke-linejoin: miter"/>
   </g>
   <g id="patch_18">
    <path d="M 91.08 56.18 
C 91.796048 56.18 92.482866 55.895511 92.989188 55.389188 
C 93.495511 54.882866 93.78 54.196048 93.78 53.48 
C 93.78 52.763952 93.495511 52.077134 92.989188 51.570812 
C 92.482866 51.064489 91.796048 50.78 91.08 50.78 
C 90.363952 50.78 89.677134 51.064489 89.170812 51.570812 
C 88.664489 52.077134 88.38 52.763952 88.38 53.48 
C 88.38 54.196048 88.664489 54.882866 89.170812 55.389188 
C 89.677134 55.895511 90.363952 56.18 91.08 56.18 
z
" clip-path="url(#p49ffdf5a51)" style="stroke: #000000; stroke-width: 2; stroke-linejoin: miter"/>
   </g>
   <g id="text_48">
    <!-- SCK_3V3 -->
    <g transform="translate(68.852656 44.822187) scale(0.1 -0.1)">
     <defs>
      <path id="DejaVuSans-5f" d="M 3263 -1063 
L 3263 -1509 
L -63 -1509 
L -63 -1063 
L 3263 -1063 
z
" transform="scale(0.015625)"/>
     </defs>
     <use xlink:href="#DejaVuSans-53"/>
     <use xlink:href="#DejaVuSans-43" transform="translate(63.476562 0)"/>
     <use xlink:href="#DejaVuSans-4b" transform="translate(133.300781 0)"/>
     <use xlink:href="#DejaVuSans-5f" transform="translate(198.876953 0)"/>
     <use xlink:href="#DejaVuSans-33" transform="translate(248.876953 0)"/>
     <use xlink:href="#DejaVuSans-56" transform="translate(312.5 0)"/>
     <use xlink:href="#DejaVuSans-33" transform="translate(380.908203 0)"/>
    </g>
   </g>
   <g id="patch_19">
    <path d="M 130.68 56.18 
C 131.396048 56.18 132.082866 55.895511 132.589188 55.389188 
C 133.095511 54.882866 133.38 54.196048 133.38 53.48 
C 133.38 52.763952 133.095511 52.077134 132.589188 51.570812 
C 132.082866 51.064489 131.396048 50.78 130.68 50.78 
C 129.963952 50.78 129.277134 51.064489 128.770812 51.570812 
C 128.264489 52.077134 127.98 52.763952 127.98 53.48 
C 127.98 54.196048 128.264489 54.882866 128.770812 55.389188 
C 129.277134 55.895511 129.963952 56.18 130.68 56.18 
z
" clip-path="url(#p49ffdf5a51)" style="stroke: #000000; stroke-width: 2; stroke-linejoin: miter"/>
   </g>
   <g id="text_49">
    <!-- MOSI_3V3 -->
    <g transform="translate(105.497969 44.822187) scale(0.1 -0.1)">
     <use xlink:href="#DejaVuSans-4d"/>
     <use xlink:href="#DejaVuSans-4f" transform="translate(86.279297 0)"/>
     <use xlink:href="#DejaVuSans-53" transform="translate(164.990234 0)"/>
     <use xlink:href="#DejaVuSans-49" transform="translate(228.466797 0)"/>
     <use xlink:href="#DejaVuSans-5f" transform="translate(257.958984 0)"/>
     <use xlink:href="#DejaVuSans-33" transform="translate(307.958984 0)"/>
     <use xlink:href="#DejaVuSans-56" transform="translate(371.582031 0)"/>
     <use xlink:href="#DejaVuSans-33" transform="translate(439.990234 0)"/>
    </g>
   </g>
   <g id="patch_20">
    <path d="M 150.48 56.18 
C 151.196048 56.18 151.882866 55.895511 152.389188 55.389188 
C 152.895511 54.882866 153.18 54.196048 153.18 53.48 
C 153.18 52.763952 152.895511 52.077134 152.389188 51.570812 
C 151.882866 51.064489 151.196048 50.78 150.48 50.78 
C 149.763952 50.78 149.077134 51.064489 148.570812 51.570812 
C 148.064489 52.077134 147.78 52.763952 147.78 53.48 
C 147.78 54.196048 148.064489 54.882866 148.570812 55.389188 
C 149.077134 55.895511 149.763952 56.18 150.48 56.18 
z
" clip-path="url(#p49ffdf5a51)" style="stroke: #000000; stroke-width: 2; stroke-linejoin: miter"/>
   </g>
   <g id="text_50">
    <!-- SS_3V3 -->
    <g transform="translate(131.84875 44.822187) scale(0.1 -0.1)">
     <use xlink:href="#DejaVuSans-53"/>
     <use xlink:href="#DejaVuSans-53" transform="translate(63.476562 0)"/>
     <use xlink:href="#DejaVuSans-5f" transform="translate(126.953125 0)"/>
     <use xlink:href="#DejaVuSans-33" transform="translate(176.953125 0)"/>
     <use xlink:href="#DejaVuSans-56" transform="translate(240.576172 0)"/>
     <use xlink:href="#DejaVuSans-33" transform="translate(308.984375 0)"/>
    </g>
   </g>
   <g id="patch_21">
    <path d="M 170.28 56.18 
C 170.996048 56.18 171.682866 55.895511 172.189188 55.389188 
C 172.695511 54.882866 172.98 54.196048 172.98 53.48 
C 172.98 52.763952 172.695511 52.077134 172.189188 51.570812 
C 171.682866 51.064489 170.996048 50.78 170.28 50.78 
C 169.563952 50.78 168.877134 51.064489 168.370812 51.570812 
C 167.864489 52.077134 167.58 52.763952 167.58 53.48 
C 167.58 54.196048 167.864489 54.882866 168.370812 55.389188 
C 168.877134 55.895511 169.563952 56.18 170.28 56.18 
z
" clip-path="url(#p49ffdf5a51)" style="stroke: #000000; stroke-width: 2; stroke-linejoin: miter"/>
   </g>
   <g id="text_51">
    <!-- RST_3V3 -->
    <g transform="translate(148.294844 44.822187) scale(0.1 -0.1)">
     <use xlink:href="#DejaVuSans-52"/>
     <use xlink:href="#DejaVuSans-53" transform="translate(69.482422 0)"/>
     <use xlink:href="#DejaVuSans-54" transform="translate(132.958984 0)"/>
     <use xlink:href="#DejaVuSans-5f" transform="translate(194.042969 0)"/>
     <use xlink:href="#DejaVuSans-33" transform="translate(244.042969 0)"/>
     <use xlink:href="#DejaVuSans-56" transform="translate(307.666016 0)"/>
     <use xlink:href="#DejaVuSans-33" transform="translate(376.074219 0)"/>
    </g>
   </g>
   <g id="patch_22">
    <path d="M 442.08 182.18 
C 442.796048 182.18 443.482866 181.895511 443.989188 181.389188 
C 444.495511 180.882866 444.78 180.196048 444.78 179.48 
C 444.78 178.763952 444.495511 178.077134 443.989188 177.570812 
C 443.482866 177.064489 442.796048 176.78 442.08 176.78 
C 441.363952 176.78 440.677134 177.064489 440.170812 177.570812 
C 439.664489 178.077134 439.38 178.763952 439.38 179.48 
C 439.38 180.196048 439.664489 180.882866 440.170812 181.389188 
C 440.677134 181.895511 441.363952 182.18 442.08 182.18 
z
" clip-path="url(#p49ffdf5a51)" style="stroke: #000000; stroke-width: 2; stroke-linejoin: miter"/>
   </g>
   <g id="text_52">
    <!-- MISO -->
    <g transform="translate(429.180781 171.100312) scale(0.1 -0.1)">
     <use xlink:href="#DejaVuSans-4d"/>
     <use xlink:href="#DejaVuSans-49" transform="translate(86.279297 0)"/>
     <use xlink:href="#DejaVuSans-53" transform="translate(115.771484 0)"/>
     <use xlink:href="#DejaVuSans-4f" transform="translate(179.248047 0)"/>
    </g>
   </g>
   <g id="patch_23">
    <path d="M 338.58 232.64 
C 339.296048 232.64 339.982866 232.355511 340.489188 231.849188 
C 340.995511 231.342866 341.28 230.656048 341.28 229.94 
C 341.28 229.223952 340.995511 228.537134 340.489188 228.030812 
C 339.982866 227.524489 339.296048 227.24 338.58 227.24 
C 337.863952 227.24 337.177134 227.524489 336.670812 228.030812 
C 336.164489 228.537134 335.88 229.223952 335.88 229.94 
C 335.88 230.656048 336.164489 231.342866 336.670812 231.849188 
C 337.177134 232.355511 337.863952 232.64 338.58 232.64 
z
" clip-path="url(#p49ffdf5a51)" style="stroke: #000000; stroke-width: 2; stroke-linejoin: miter"/>
   </g>
   <g id="patch_24">
    <path d="M 381.78 232.64 
C 382.496048 232.64 383.182866 232.355511 383.689188 231.849188 
C 384.195511 231.342866 384.48 230.656048 384.48 229.94 
C 384.48 229.223952 384.195511 228.537134 383.689188 228.030812 
C 383.182866 227.524489 382.496048 227.24 381.78 227.24 
C 381.063952 227.24 380.377134 227.524489 379.870812 228.030812 
C 379.364489 228.537134 379.08 229.223952 379.08 229.94 
C 379.08 230.656048 379.364489 231.342866 379.870812 231.849188 
C 380.377134 232.355511 381.063952 232.64 381.78 232.64 
z
" clip-path="url(#p49ffdf5a51)" style="stroke: #000000; stroke-width: 2; stroke-linejoin: miter"/>
   </g>
   <g id="patch_25">
    <path d="M 381.78 157.04 
C 382.496048 157.04 383.182866 156.755511 383.689188 156.249188 
C 384.195511 155.742866 384.48 155.056048 384.48 154.34 
C 384.48 153.623952 384.195511 152.937134 383.689188 152.430812 
C 383.182866 151.924489 382.496048 151.64 381.78 151.64 
C 381.063952 151.64 380.377134 151.924489 379.870812 152.430812 
C 379.364489 152.937134 379.08 153.623952 379.08 154.34 
C 379.08 155.056048 379.364489 155.742866 379.870812 156.249188 
C 380.377134 156.755511 381.063952 157.04 381.78 157.04 
z
" clip-path="url(#p49ffdf5a51)" style="stroke: #000000; stroke-width: 2; stroke-linejoin: miter"/>
   </g>
  </g>
 </g>
 <defs>
  <clipPath id="p49ffdf5a51">
   <rect x="0" y="-0" width="547.356" height="354.86"/>
  </clipPath>
 </defs>
</svg>
