<svg xmlns="http://www.w3.org/2000/svg" xmlns:xlink="http://www.w3.org/1999/xlink" xml:lang="en" height="391.50000000000006pt" width="572.06pt" viewBox="-49.06 -404.00000000000006 572.06 391.50000000000006"><path d="M 21.599999999999998,-309.59999999999997 L 43.2,-309.6 L 64.8,-309.6" style="stroke:black;fill:none;stroke-width:2;stroke-dasharray:-;stroke-linecap:round;stroke-linejoin:round;" /><path d="M 71.99999999999999,-309.59999999999997 L 72,-282.24 M 81,-282.24 L 63,-282.24 M 81,-275.76 L 63,-275.76 M 72,-275.76 L 72,-248.4" style="stroke:black;fill:none;stroke-width:2;stroke-dasharray:-;stroke-linecap:round;stroke-linejoin:round;" /><path d="M 71.99999999999999,-248.39999999999998 L 72,-234 L 63,-234 L 81,-234 M 65.7,-229.68 L 78.3,-229.68 M 70.2,-225.36 L 73.8,-225.36" style="stroke:black;fill:none;stroke-width:2;stroke-dasharray:-;stroke-linecap:round;stroke-linejoin:round;" /><path d="M 118.8,-309.59999999999997 L 118.8,-282.24 M 127.8,-282.24 L 109.8,-282.24 M 127.8,-275.76 L 109.8,-275.76 M 118.8,-275.76 L 118.8,-248.4" style="stroke:black;fill:none;stroke-width:2;stroke-dasharray:-;stroke-linecap:round;stroke-linejoin:round;" /><path d="M 118.8,-248.39999999999998 L 118.8,-234 L 109.8,-234 L 127.8,-234 M 112.5,-229.68 L 125.1,-229.68 M 117,-225.36 L 120.6,-225.36" style="stroke:black;fill:none;stroke-width:2;stroke-dasharray:-;stroke-linecap:round;stroke-linejoin:round;" /><path d="M 144.0,-180.0 L 252,-180 L 252,-374.4 L 144,-374.4 L 144,-180" style="stroke:black;fill:none;stroke-width:2;stroke-dasharray:-;stroke-linecap:round;stroke-linejoin:round;" /><path d="M 144.0,-198.0 L 126,-198" style="stroke:black;fill:none;stroke-width:2;stroke-dasharray:-;stroke-linecap:round;stroke-linejoin:round;" /><path d="M 144.0,-277.2 L 126,-277.2" style="stroke:black;fill:none;stroke-width:2;stroke-dasharray:-;stroke-linecap:round;stroke-linejoin:round;" /><path d="M 144.0,-356.40000000000003 L 126,-356.4" style="stroke:black;fill:none;stroke-width:2;stroke-dasharray:-;stroke-linecap:round;stroke-linejoin:round;" /><path d="M 252.0,-198.0 L 270,-198" style="stroke:black;fill:none;stroke-width:2;stroke-dasharray:-;stroke-linecap:round;stroke-linejoin:round;" /><path d="M 252.0,-229.68 L 270,-229.68" style="stroke:black;fill:none;stroke-width:2;stroke-dasharray:-;stroke-linecap:round;stroke-linejoin:round;" /><path d="M 252.0,-261.36 L 270,-261.36" style="stroke:black;fill:none;stroke-width:2;stroke-dasharray:-;stroke-linecap:round;stroke-linejoin:round;" /><path d="M 252.0,-293.04 L 270,-293.04" style="stroke:black;fill:none;stroke-width:2;stroke-dasharray:-;stroke-linecap:round;stroke-linejoin:round;" /><path d="M 252.0,-324.71999999999997 L 270,-324.72" style="stroke:black;fill:none;stroke-width:2;stroke-dasharray:-;stroke-linecap:round;stroke-linejoin:round;" /><path d="M 252.0,-356.40000000000003 L 270,-356.4" style="stroke:black;fill:none;stroke-width:2;stroke-dasharray:-;stroke-linecap:round;stroke-linejoin:round;" /><path d="M 126.0,-198.0 L 99,-198 L 72,-198" style="stroke:black;fill:none;stroke-width:2;stroke-dasharray:-;stroke-linecap:round;stroke-linejoin:round;" /><path d="M 72.0,-198.0 L 72,-262.8 L 72,-327.6" style="stroke:black;fill:none;stroke-width:2;stroke-dasharray:-;stroke-linecap:round;stroke-linejoin:round;" /><path d="M 72.0,-327.59999999999997 L 59.4,-327.6 L 46.8,-327.6" style="stroke:black;fill:none;stroke-width:2;stroke-dasharray:-;stroke-linecap:round;stroke-linejoin:round;" /><path d="M 126.0,-356.40000000000003 L 108,-356.4 L 90,-356.4" style="stroke:black;fill:none;stroke-width:2;stroke-dasharray:-;stroke-linecap:round;stroke-linejoin:round;" /><path d="M 90.0,-356.40000000000003 L 90,-342 L 81,-342 L 99,-342 M 83.7,-337.68 L 96.3,-337.68 M 88.2,-333.36 L 91.8,-333.36" style="stroke:black;fill:none;stroke-width:2;stroke-dasharray:-;stroke-linecap:round;stroke-linejoin:round;" /><path d="M 403.2,-216.0 L 295.2,-216 L 295.2,-100.8 L 403.2,-100.8 L 403.2,-216" style="stroke:black;fill:none;stroke-width:2;stroke-dasharray:-;stroke-linecap:round;stroke-linejoin:round;" /><path d="M 403.2,-198.0 L 421.2,-198" style="stroke:black;fill:none;stroke-width:2;stroke-dasharray:-;stroke-linecap:round;stroke-linejoin:round;" /><path d="M 403.2,-171.6 L 421.2,-171.6" style="stroke:black;fill:none;stroke-width:2;stroke-dasharray:-;stroke-linecap:round;stroke-linejoin:round;" /><path d="M 403.2,-145.2 L 421.2,-145.2" style="stroke:black;fill:none;stroke-width:2;stroke-dasharray:-;stroke-linecap:round;stroke-linejoin:round;" /><path d="M 403.2,-118.8 L 421.2,-118.8" style="stroke:black;fill:none;stroke-width:2;stroke-dasharray:-;stroke-linecap:round;stroke-linejoin:round;" /><path d="M 421.2,-198.0 L 401.4,-198 L 381.6,-198" style="stroke:black;fill:none;stroke-width:2;stroke-dasharray:-;stroke-linecap:round;stroke-linejoin:round;" /><path d="M 381.59999999999997,-198.0 L 381.6,-147.6 L 381.6,-97.2" style="stroke:black;fill:none;stroke-width:2;stroke-dasharray:-;stroke-linecap:round;stroke-linejoin:round;" /><path d="M 381.59999999999997,-97.2 L 306,-97.2 L 230.4,-97.2" style="stroke:black;fill:none;stroke-width:2;stroke-dasharray:-;stroke-linecap:round;stroke-linejoin:round;" /><path d="M 126.0,-277.2 L 142.2,-277.2 L 158.4,-277.2" style="stroke:black;fill:none;stroke-width:2;stroke-dasharray:-;stroke-linecap:round;stroke-linejoin:round;" /><path d="M 421.2,-171.6 L 403.2,-171.6 L 385.2,-171.6" style="stroke:black;fill:none;stroke-width:2;stroke-dasharray:-;stroke-linecap:round;stroke-linejoin:round;" /><path d="M 385.2,-171.6 L 385.2,-157.2 L 376.2,-157.2 L 394.2,-157.2 M 378.9,-152.88 L 391.5,-152.88 M 383.4,-148.56 L 387,-148.56" style="stroke:black;fill:none;stroke-width:2;stroke-dasharray:-;stroke-linecap:round;stroke-linejoin:round;" /><path d="M 421.2,-145.2 L 403.2,-145.2 L 385.2,-145.2" style="stroke:black;fill:none;stroke-width:2;stroke-dasharray:-;stroke-linecap:round;stroke-linejoin:round;" /><path d="M 385.2,-145.2 L 385.2,-134.4 L 385.2,-123.6" style="stroke:black;fill:none;stroke-width:2;stroke-dasharray:-;stroke-linecap:round;stroke-linejoin:round;" /><path d="M 385.2,-123.6 L 334.8,-123.6 L 284.4,-123.6" style="stroke:black;fill:none;stroke-width:2;stroke-dasharray:-;stroke-linecap:round;stroke-linejoin:round;" /><path d="M 270.0,-198.0 L 288,-198 L 306,-198" style="stroke:black;fill:none;stroke-width:2;stroke-dasharray:-;stroke-linecap:round;stroke-linejoin:round;" /><path d="M 421.2,-118.8 L 403.2,-118.8 L 385.2,-118.8" style="stroke:black;fill:none;stroke-width:2;stroke-dasharray:-;stroke-linecap:round;stroke-linejoin:round;" /><path d="M 385.2,-118.8 L 385.2,-99 L 385.2,-79.2" style="stroke:black;fill:none;stroke-width:2;stroke-dasharray:-;stroke-linecap:round;stroke-linejoin:round;" /><path d="M 385.2,-79.19999999999999 L 334.8,-79.2 L 284.4,-79.2" style="stroke:black;fill:none;stroke-width:2;stroke-dasharray:-;stroke-linecap:round;stroke-linejoin:round;" /><path d="M 270.0,-229.68 L 288,-229.68 L 306,-229.68" style="stroke:black;fill:none;stroke-width:2;stroke-dasharray:-;stroke-linecap:round;stroke-linejoin:round;" /><path d="M 403.2,-68.39999999999999 L 518.4,-68.4 L 518.4,-212.4 L 403.2,-212.4 L 403.2,-68.4" style="stroke:black;fill:none;stroke-width:2;stroke-dasharray:-;stroke-linecap:round;stroke-linejoin:round;" /><path d="M 403.2,-86.39999999999999 L 385.2,-86.4" style="stroke:black;fill:none;stroke-width:2;stroke-dasharray:-;stroke-linecap:round;stroke-linejoin:round;" /><path d="M 403.2,-108.0 L 385.2,-108" style="stroke:black;fill:none;stroke-width:2;stroke-dasharray:-;stroke-linecap:round;stroke-linejoin:round;" /><path d="M 403.2,-129.6 L 385.2,-129.6" style="stroke:black;fill:none;stroke-width:2;stroke-dasharray:-;stroke-linecap:round;stroke-linejoin:round;" /><path d="M 403.2,-151.2 L 385.2,-151.2" style="stroke:black;fill:none;stroke-width:2;stroke-dasharray:-;stroke-linecap:round;stroke-linejoin:round;" /><path d="M 403.2,-172.79999999999998 L 385.2,-172.8" style="stroke:black;fill:none;stroke-width:2;stroke-dasharray:-;stroke-linecap:round;stroke-linejoin:round;" /><path d="M 403.2,-194.4 L 385.2,-194.4" style="stroke:black;fill:none;stroke-width:2;stroke-dasharray:-;stroke-linecap:round;stroke-linejoin:round;" /><path d="M 385.2,-86.39999999999999 L 367.2,-86.4 L 349.2,-86.4" style="stroke:black;fill:none;stroke-width:2;stroke-dasharray:-;stroke-linecap:round;stroke-linejoin:round;" /><path d="M 349.2,-86.39999999999999 L 349.2,-207 L 349.2,-327.6" style="stroke:black;fill:none;stroke-width:2;stroke-dasharray:-;stroke-linecap:round;stroke-linejoin:round;" /><path d="M 349.2,-327.59999999999997 L 279,-327.6 L 208.8,-327.6" style="stroke:black;fill:none;stroke-width:2;stroke-dasharray:-;stroke-linecap:round;stroke-linejoin:round;" /><path d="M 385.2,-108.0 L 367.2,-108 L 349.2,-108" style="stroke:black;fill:none;stroke-width:2;stroke-dasharray:-;stroke-linecap:round;stroke-linejoin:round;" /><path d="M 349.2,-108.0 L 349.2,-93.6 L 340.2,-93.6 L 358.2,-93.6 M 342.9,-89.28 L 355.5,-89.28 M 347.4,-84.96 L 351,-84.96" style="stroke:black;fill:none;stroke-width:2;stroke-dasharray:-;stroke-linecap:round;stroke-linejoin:round;" /><path d="M 385.2,-129.6 L 367.2,-129.6 L 349.2,-129.6" style="stroke:black;fill:none;stroke-width:2;stroke-dasharray:-;stroke-linecap:round;stroke-linejoin:round;" /><path d="M 349.2,-129.6 L 298.8,-129.6 L 248.4,-129.6" style="stroke:black;fill:none;stroke-width:2;stroke-dasharray:-;stroke-linecap:round;stroke-linejoin:round;" /><path d="M 270.0,-261.36 L 288,-261.36 L 306,-261.36" style="stroke:black;fill:none;stroke-width:2;stroke-dasharray:-;stroke-linecap:round;stroke-linejoin:round;" /><path d="M 385.2,-151.2 L 367.2,-151.2 L 349.2,-151.2" style="stroke:black;fill:none;stroke-width:2;stroke-dasharray:-;stroke-linecap:round;stroke-linejoin:round;" /><path d="M 349.2,-151.2 L 298.8,-151.2 L 248.4,-151.2" style="stroke:black;fill:none;stroke-width:2;stroke-dasharray:-;stroke-linecap:round;stroke-linejoin:round;" /><path d="M 270.0,-293.04 L 288,-293.04 L 306,-293.04" style="stroke:black;fill:none;stroke-width:2;stroke-dasharray:-;stroke-linecap:round;stroke-linejoin:round;" /><path d="M 385.2,-172.79999999999998 L 367.2,-172.8 L 349.2,-172.8" style="stroke:black;fill:none;stroke-width:2;stroke-dasharray:-;stroke-linecap:round;stroke-linejoin:round;" /><path d="M 349.2,-172.79999999999998 L 298.8,-172.8 L 248.4,-172.8" style="stroke:black;fill:none;stroke-width:2;stroke-dasharray:-;stroke-linecap:round;stroke-linejoin:round;" /><path d="M 270.0,-324.71999999999997 L 288,-324.72 L 306,-324.72" style="stroke:black;fill:none;stroke-width:2;stroke-dasharray:-;stroke-linecap:round;stroke-linejoin:round;" /><path d="M 385.2,-194.4 L 367.2,-194.4 L 349.2,-194.4" style="stroke:black;fill:none;stroke-width:2;stroke-dasharray:-;stroke-linecap:round;stroke-linejoin:round;" /><path d="M 349.2,-194.4 L 298.8,-194.4 L 248.4,-194.4" style="stroke:black;fill:none;stroke-width:2;stroke-dasharray:-;stroke-linecap:round;stroke-linejoin:round;" /><path d="M 270.0,-356.40000000000003 L 288,-356.4 L 306,-356.4" style="stroke:black;fill:none;stroke-width:2;stroke-dasharray:-;stroke-linecap:round;stroke-linejoin:round;" /><text x="381.59999999999997" y="-406.40000000000003" dominant-baseline="central" fill="black" font-size="14" font-family="sans" text-anchor="middle"><tspan x="381.59999999999997" dy="14">Temperature / Humidity SD Logger</tspan></text><text x="71.99999999999999" y="-333.2" dominant-baseline="ideographic" fill="black" font-size="10" font-family="sans" text-anchor="middle"><tspan x="71.99999999999999" dy="10">C1</tspan><tspan x="71.99999999999999" dy="10">100 uF</tspan></text><text x="118.8" y="-333.2" dominant-baseline="ideographic" fill="black" font-size="10" font-family="sans" text-anchor="middle"><tspan x="118.8" dy="10">C2</tspan><tspan x="118.8" dy="10">0.1 uF</tspan></text><text x="149.4" y="-212.0" dominant-baseline="central" fill="black" font-size="14" font-family="sans" text-anchor="start"><tspan x="149.4" dy="14">5V</tspan></text><text x="149.4" y="-291.2" dominant-baseline="central" fill="black" font-size="14" font-family="sans" text-anchor="start"><tspan x="149.4" dy="14">3V3</tspan></text><text x="149.4" y="-370.40000000000003" dominant-baseline="central" fill="black" font-size="14" font-family="sans" text-anchor="start"><tspan x="149.4" dy="14">GND</tspan></text><text x="246.6" y="-212.0" dominant-baseline="central" fill="black" font-size="14" font-family="sans" text-anchor="end"><tspan x="246.6" dy="14">A4/SDA</tspan></text><text x="246.6" y="-243.68" dominant-baseline="central" fill="black" font-size="14" font-family="sans" text-anchor="end"><tspan x="246.6" dy="14">A5/SCL</tspan></text><text x="246.6" y="-275.36" dominant-baseline="central" fill="black" font-size="14" font-family="sans" text-anchor="end"><tspan x="246.6" dy="14">D10/CS</tspan></text><text x="246.6" y="-307.04" dominant-baseline="central" fill="black" font-size="14" font-family="sans" text-anchor="end"><tspan x="246.6" dy="14">D11/MOSI</tspan></text><text x="246.6" y="-338.71999999999997" dominant-baseline="central" fill="black" font-size="14" font-family="sans" text-anchor="end"><tspan x="246.6" dy="14">D12/MISO</tspan></text><text x="246.6" y="-370.40000000000003" dominant-baseline="central" fill="black" font-size="14" font-family="sans" text-anchor="end"><tspan x="246.6" dy="14">D13/SCK</tspan></text><text x="201.6" y="-295.8" dominant-baseline="central" fill="black" font-size="10" font-family="sans" text-anchor="middle"><tspan x="201.6" dy="10">U1</tspan><tspan x="201.6" dy="10">Arduino Nano</tspan></text><text x="397.79999999999995" y="-212.0" dominant-baseline="central" fill="black" font-size="14" font-family="sans" text-anchor="start"><tspan x="397.79999999999995" dy="14">VIN</tspan></text><text x="397.79999999999995" y="-185.6" dominant-baseline="central" fill="black" font-size="14" font-family="sans" text-anchor="start"><tspan x="397.79999999999995" dy="14">GND</tspan></text><text x="397.79999999999995" y="-159.2" dominant-baseline="central" fill="black" font-size="14" font-family="sans" text-anchor="start"><tspan x="397.79999999999995" dy="14">SDA</tspan></text><text x="397.79999999999995" y="-132.8" dominant-baseline="central" fill="black" font-size="14" font-family="sans" text-anchor="start"><tspan x="397.79999999999995" dy="14">SCL</tspan></text><text x="345.59999999999997" y="-174.79999999999998" dominant-baseline="central" fill="black" font-size="10" font-family="sans" text-anchor="middle"><tspan x="345.59999999999997" dy="10">U2</tspan><tspan x="345.59999999999997" dy="10">SHT31-D</tspan><tspan x="345.59999999999997" dy="10">I2C Sensor Module</tspan></text><text x="313.2" y="-118.0" dominant-baseline="ideographic" fill="black" font-size="10" font-family="sans" text-anchor="middle"><tspan x="313.2" dy="10">3.3V</tspan></text><text x="327.59999999999997" y="-146.2" dominant-baseline="hanging" fill="black" font-size="10" font-family="sans" text-anchor="middle"><tspan x="327.59999999999997" dy="10">I2C SDA</tspan></text><text x="327.59999999999997" y="-101.8" dominant-baseline="ideographic" fill="black" font-size="10" font-family="sans" text-anchor="middle"><tspan x="327.59999999999997" dy="10">I2C SCL</tspan></text><text x="408.59999999999997" y="-100.39999999999999" dominant-baseline="central" fill="black" font-size="14" font-family="sans" text-anchor="start"><tspan x="408.59999999999997" dy="14">VCC</tspan></text><text x="408.59999999999997" y="-122.0" dominant-baseline="central" fill="black" font-size="14" font-family="sans" text-anchor="start"><tspan x="408.59999999999997" dy="14">GND</tspan></text><text x="408.59999999999997" y="-143.6" dominant-baseline="central" fill="black" font-size="14" font-family="sans" text-anchor="start"><tspan x="408.59999999999997" dy="14">CS</tspan></text><text x="408.59999999999997" y="-165.2" dominant-baseline="central" fill="black" font-size="14" font-family="sans" text-anchor="start"><tspan x="408.59999999999997" dy="14">MOSI</tspan></text><text x="408.59999999999997" y="-186.79999999999998" dominant-baseline="central" fill="black" font-size="14" font-family="sans" text-anchor="start"><tspan x="408.59999999999997" dy="14">MISO</tspan></text><text x="408.59999999999997" y="-208.4" dominant-baseline="central" fill="black" font-size="14" font-family="sans" text-anchor="start"><tspan x="408.59999999999997" dy="14">SCK</tspan></text><text x="464.4" y="-159.0" dominant-baseline="central" fill="black" font-size="10" font-family="sans" text-anchor="middle"><tspan x="464.4" dy="10">U3</tspan><tspan x="464.4" dy="10">MicroSD SPI Module</tspan></text><text x="324.0" y="-143.2" dominant-baseline="ideographic" fill="black" font-size="10" font-family="sans" text-anchor="middle"><tspan x="324.0" dy="10">SD CS</tspan></text><text x="324.0" y="-159.39999999999995" dominant-baseline="ideographic" fill="black" font-size="10" font-family="sans" text-anchor="middle"><tspan x="324.0" dy="10">SPI MOSI</tspan></text><text x="324.0" y="-175.6" dominant-baseline="ideographic" fill="black" font-size="10" font-family="sans" text-anchor="middle"><tspan x="324.0" dy="10">SPI MISO</tspan></text><text x="324.0" y="-191.79999999999998" dominant-baseline="ideographic" fill="black" font-size="10" font-family="sans" text-anchor="middle"><tspan x="324.0" dy="10">SPI SCK</tspan></text><text x="111.60000000000001" y="-30.599999999999998" dominant-baseline="central" fill="black" font-size="9" font-family="sans" text-anchor="middle"><tspan x="111.60000000000001" dy="9">All grounds common</tspan></text><circle cx="21.6" cy="-309.6" r="2.7" style="stroke:black;fill:white;stroke-width:2;stroke-dasharray:-;" /><text x="15.299999999999999" y="-319.59999999999997" dominant-baseline="central" fill="black" font-size="10" font-family="sans" text-anchor="end"><tspan x="15.299999999999999" dy="10">J1 USB 5V IN</tspan></text><circle cx="64.8" cy="-309.6" r="2.7" style="stroke:black;fill:black;stroke-width:2;stroke-dasharray:-;" /><text x="64.8" y="-325.90000000000003" dominant-baseline="ideographic" fill="black" font-size="10" font-family="sans" text-anchor="middle"><tspan x="64.8" dy="10">+5V rail</tspan></text></svg>