<?xml version="1.0" encoding="utf-8" standalone="no"?>
<!DOCTYPE svg PUBLIC "-//W3C//DTD SVG 1.1//EN"
  "http://www.w3.org/Graphics/SVG/1.1/DTD/svg11.dtd">
<svg xmlns:xlink="http://www.w3.org/1999/xlink" width="635.136pt" height="417.4pt" viewBox="0 0 635.136 417.4" xmlns="http://www.w3.org/2000/svg" version="1.1">
 <metadata>
  <rdf:RDF xmlns:dc="http://purl.org/dc/elements/1.1/" xmlns:cc="http://creativecommons.org/ns#" xmlns:rdf="http://www.w3.org/1999/02/22-rdf-syntax-ns#">
   <cc:Work>
    <dc:type rdf:resource="http://purl.org/dc/dcmitype/StillImage"/>
    <dc:date>2026-06-06T18:47:37.715982</dc:date>
    <dc:format>image/svg+xml</dc:format>
    <dc:creator>
     <cc:Agent>
      <dc:title>Matplotlib v3.10.9, https://matplotlib.org/</dc:title>
     </cc:Agent>
    </dc:creator>
   </cc:Work>
  </rdf:RDF>
 </metadata>
 <defs>
  <style type="text/css">*{stroke-linejoin: round; stroke-linecap: butt}</style>
 </defs>
 <g id="figure_1">
  <g id="patch_1">
   <path d="M 0 417.4 
L 635.136 417.4 
L 635.136 0 
L 0 0 
z
" style="fill: #ffffff"/>
  </g>
  <g id="axes_1">
   <g id="patch_2">
    <path d="M 36.48 134.08 
C 41.253656 134.08 45.832438 132.183406 49.207922 128.807922 
C 52.583406 125.432438 54.48 120.853656 54.48 116.08 
C 54.48 111.306344 52.583406 106.727562 49.207922 103.352078 
C 45.832438 99.976594 41.253656 98.08 36.48 98.08 
C 31.706344 98.08 27.127562 99.976594 23.752078 103.352078 
C 20.376594 106.727562 18.48 111.306344 18.48 116.08 
C 18.48 120.853656 20.376594 125.432438 23.752078 128.807922 
C 27.127562 132.183406 31.706344 134.08 36.48 134.08 
L 36.48 134.08 
z
" clip-path="url(#p2b37e06797)" style="fill: none; stroke: #000000; stroke-width: 2; stroke-linejoin: miter"/>
   </g>
   <g id="line2d_1">
    <path d="M 36.48 152.08 
L 36.48 134.08 
L 36.48 134.08 
M 36.48 98.08 
L 36.48 98.08 
L 36.48 80.08 
" clip-path="url(#p2b37e06797)" style="fill: none; stroke: #000000; stroke-width: 2; stroke-linecap: round"/>
   </g>
   <g id="line2d_2">
    <path d="M 40.08 125.08 
L 32.88 125.08 
" clip-path="url(#p2b37e06797)" style="fill: none; stroke: #000000; stroke-width: 2; stroke-linecap: round"/>
   </g>
   <g id="line2d_3">
    <path d="M 36.48 110.68 
L 36.48 103.48 
" clip-path="url(#p2b37e06797)" style="fill: none; stroke: #000000; stroke-width: 2; stroke-linecap: round"/>
   </g>
   <g id="line2d_4">
    <path d="M 40.08 107.08 
L 32.88 107.08 
" clip-path="url(#p2b37e06797)" style="fill: none; stroke: #000000; stroke-width: 2; stroke-linecap: round"/>
   </g>
   <g id="line2d_5">
    <path d="M 36.48 80.08 
L 54.48 80.08 
M 63.12 76.48 
L 83.28 63.88 
M 90.48 80.08 
L 108.48 80.08 
" clip-path="url(#p2b37e06797)" style="fill: none; stroke: #000000; stroke-width: 2; stroke-linecap: round"/>
   </g>
   <g id="line2d_6">
    <path d="M 115.68 188.08 
L 205.68 188.08 
L 205.68 116.08 
L 115.68 116.08 
L 115.68 188.08 
" clip-path="url(#p2b37e06797)" style="fill: none; stroke: #000000; stroke-width: 2; stroke-linecap: round"/>
   </g>
   <g id="line2d_7">
    <path d="M 115.68 170.08 
L 97.68 170.08 
" clip-path="url(#p2b37e06797)" style="fill: none; stroke: #000000; stroke-width: 2; stroke-linecap: round"/>
   </g>
   <g id="line2d_8">
    <path d="M 115.68 134.08 
L 97.68 134.08 
" clip-path="url(#p2b37e06797)" style="fill: none; stroke: #000000; stroke-width: 2; stroke-linecap: round"/>
   </g>
   <g id="line2d_9">
    <path d="M 205.68 152.08 
L 223.68 152.08 
" clip-path="url(#p2b37e06797)" style="fill: none; stroke: #000000; stroke-width: 2; stroke-linecap: round"/>
   </g>
   <g id="line2d_10">
    <path d="M 79.68 87.28 
L 97.68 87.28 
L 115.68 87.28 
" clip-path="url(#p2b37e06797)" style="fill: none; stroke: #000000; stroke-width: 2; stroke-linecap: round"/>
   </g>
   <g id="line2d_11">
    <path d="M 97.68 170.08 
L 79.68 170.08 
L 61.68 170.08 
" clip-path="url(#p2b37e06797)" style="fill: none; stroke: #000000; stroke-width: 2; stroke-linecap: round"/>
   </g>
   <g id="line2d_12">
    <path d="M 223.68 152.08 
L 376.68 152.08 
L 529.68 152.08 
" clip-path="url(#p2b37e06797)" style="fill: none; stroke: #000000; stroke-width: 2; stroke-linecap: round"/>
   </g>
   <g id="line2d_13">
    <path d="M 61.68 134.08 
L 61.68 148.48 
L 52.68 148.48 
L 70.68 148.48 
M 55.38 152.8 
L 67.98 152.8 
M 59.88 157.12 
L 63.48 157.12 
" clip-path="url(#p2b37e06797)" style="fill: none; stroke: #000000; stroke-width: 2; stroke-linecap: round"/>
   </g>
   <g id="line2d_14">
    <path d="M 230.88 155.68 
L 230.88 184.84 
M 239.88 184.84 
L 221.88 184.84 
M 239.88 191.32 
L 221.88 191.32 
M 230.88 191.32 
L 230.88 220.48 
" clip-path="url(#p2b37e06797)" style="fill: none; stroke: #000000; stroke-width: 2; stroke-linecap: round"/>
   </g>
   <g id="line2d_15">
    <path d="M 230.88 220.48 
L 230.88 234.88 
L 221.88 234.88 
L 239.88 234.88 
M 224.58 239.2 
L 237.18 239.2 
M 229.08 243.52 
L 232.68 243.52 
" clip-path="url(#p2b37e06797)" style="fill: none; stroke: #000000; stroke-width: 2; stroke-linecap: round"/>
   </g>
   <g id="line2d_16">
    <path d="M 230.88 155.68 
L 230.88 143.08 
L 230.88 130.48 
" clip-path="url(#p2b37e06797)" style="fill: none; stroke: #000000; stroke-width: 2; stroke-linecap: round"/>
   </g>
   <g id="line2d_17">
    <path d="M 230.88 130.48 
L 362.28 130.48 
L 493.68 130.48 
" clip-path="url(#p2b37e06797)" style="fill: none; stroke: #000000; stroke-width: 2; stroke-linecap: round"/>
   </g>
   <g id="line2d_18">
    <path d="M 320.88 155.68 
L 320.88 184.84 
M 329.88 184.84 
L 311.88 184.84 
M 329.88 191.32 
L 311.88 191.32 
M 320.88 191.32 
L 320.88 220.48 
" clip-path="url(#p2b37e06797)" style="fill: none; stroke: #000000; stroke-width: 2; stroke-linecap: round"/>
   </g>
   <g id="line2d_19">
    <path d="M 320.88 220.48 
L 320.88 234.88 
L 311.88 234.88 
L 329.88 234.88 
M 314.58 239.2 
L 327.18 239.2 
M 319.08 243.52 
L 322.68 243.52 
" clip-path="url(#p2b37e06797)" style="fill: none; stroke: #000000; stroke-width: 2; stroke-linecap: round"/>
   </g>
   <g id="line2d_20">
    <path d="M 320.88 155.68 
L 320.88 143.08 
L 320.88 130.48 
" clip-path="url(#p2b37e06797)" style="fill: none; stroke: #000000; stroke-width: 2; stroke-linecap: round"/>
   </g>
   <g id="line2d_21">
    <path d="M 320.88 130.48 
L 407.28 130.48 
L 493.68 130.48 
" clip-path="url(#p2b37e06797)" style="fill: none; stroke: #000000; stroke-width: 2; stroke-linecap: round"/>
   </g>
   <g id="line2d_22">
    <path d="M 122.88 339.28 
L 220.08 339.28 
L 220.08 188.08 
L 122.88 188.08 
L 122.88 339.28 
" clip-path="url(#p2b37e06797)" style="fill: none; stroke: #000000; stroke-width: 2; stroke-linecap: round"/>
   </g>
   <g id="line2d_23">
    <path d="M 122.88 321.28 
L 104.88 321.28 
" clip-path="url(#p2b37e06797)" style="fill: none; stroke: #000000; stroke-width: 2; stroke-linecap: round"/>
   </g>
   <g id="line2d_24">
    <path d="M 122.88 206.08 
L 104.88 206.08 
" clip-path="url(#p2b37e06797)" style="fill: none; stroke: #000000; stroke-width: 2; stroke-linecap: round"/>
   </g>
   <g id="line2d_25">
    <path d="M 220.08 321.28 
L 238.08 321.28 
" clip-path="url(#p2b37e06797)" style="fill: none; stroke: #000000; stroke-width: 2; stroke-linecap: round"/>
   </g>
   <g id="line2d_26">
    <path d="M 220.08 282.88 
L 238.08 282.88 
" clip-path="url(#p2b37e06797)" style="fill: none; stroke: #000000; stroke-width: 2; stroke-linecap: round"/>
   </g>
   <g id="line2d_27">
    <path d="M 220.08 244.48 
L 238.08 244.48 
" clip-path="url(#p2b37e06797)" style="fill: none; stroke: #000000; stroke-width: 2; stroke-linecap: round"/>
   </g>
   <g id="line2d_28">
    <path d="M 220.08 206.08 
L 238.08 206.08 
" clip-path="url(#p2b37e06797)" style="fill: none; stroke: #000000; stroke-width: 2; stroke-linecap: round"/>
   </g>
   <g id="line2d_29">
    <path d="M 104.88 321.28 
L 83.28 321.28 
L 61.68 321.28 
" clip-path="url(#p2b37e06797)" style="fill: none; stroke: #000000; stroke-width: 2; stroke-linecap: round"/>
   </g>
   <g id="line2d_30">
    <path d="M 61.68 321.28 
L 61.68 245.68 
L 61.68 170.08 
" clip-path="url(#p2b37e06797)" style="fill: none; stroke: #000000; stroke-width: 2; stroke-linecap: round"/>
   </g>
   <g id="line2d_31">
    <path d="M 61.68 170.08 
L 202.08 170.08 
L 342.48 170.08 
" clip-path="url(#p2b37e06797)" style="fill: none; stroke: #000000; stroke-width: 2; stroke-linecap: round"/>
   </g>
   <g id="line2d_32">
    <path d="M 104.88 206.08 
L 86.88 206.08 
L 68.88 206.08 
" clip-path="url(#p2b37e06797)" style="fill: none; stroke: #000000; stroke-width: 2; stroke-linecap: round"/>
   </g>
   <g id="line2d_33">
    <path d="M 68.88 206.08 
L 68.88 220.48 
L 59.88 220.48 
L 77.88 220.48 
M 62.58 224.8 
L 75.18 224.8 
M 67.08 229.12 
L 70.68 229.12 
" clip-path="url(#p2b37e06797)" style="fill: none; stroke: #000000; stroke-width: 2; stroke-linecap: round"/>
   </g>
   <g id="line2d_34">
    <path d="M 306.48 270.88 
L 223.68 270.88 
L 223.68 346.48 
L 306.48 346.48 
L 306.48 270.88 
" clip-path="url(#p2b37e06797)" style="fill: none; stroke: #000000; stroke-width: 2; stroke-linecap: round"/>
   </g>
   <g id="line2d_35">
    <path d="M 306.48 288.88 
L 324.48 288.88 
" clip-path="url(#p2b37e06797)" style="fill: none; stroke: #000000; stroke-width: 2; stroke-linecap: round"/>
   </g>
   <g id="line2d_36">
    <path d="M 306.48 308.68 
L 324.48 308.68 
" clip-path="url(#p2b37e06797)" style="fill: none; stroke: #000000; stroke-width: 2; stroke-linecap: round"/>
   </g>
   <g id="line2d_37">
    <path d="M 306.48 328.48 
L 324.48 328.48 
" clip-path="url(#p2b37e06797)" style="fill: none; stroke: #000000; stroke-width: 2; stroke-linecap: round"/>
   </g>
   <g id="line2d_38">
    <path d="M 238.08 321.28 
L 256.08 321.28 
L 274.08 321.28 
" clip-path="url(#p2b37e06797)" style="fill: none; stroke: #000000; stroke-width: 2; stroke-linecap: round"/>
   </g>
   <g id="line2d_39">
    <path d="M 274.08 321.28 
L 274.08 294.28 
L 274.08 267.28 
" clip-path="url(#p2b37e06797)" style="fill: none; stroke: #000000; stroke-width: 2; stroke-linecap: round"/>
   </g>
   <g id="line2d_40">
    <path d="M 274.08 267.28 
L 293.88 267.28 
L 313.68 267.28 
" clip-path="url(#p2b37e06797)" style="fill: none; stroke: #000000; stroke-width: 2; stroke-linecap: round"/>
   </g>
   <g id="line2d_41">
    <path d="M 324.48 288.88 
L 302.88 288.88 
L 281.28 288.88 
" clip-path="url(#p2b37e06797)" style="fill: none; stroke: #000000; stroke-width: 2; stroke-linecap: round"/>
   </g>
   <g id="line2d_42">
    <path d="M 324.48 308.68 
L 308.28 308.68 
L 292.08 308.68 
" clip-path="url(#p2b37e06797)" style="fill: none; stroke: #000000; stroke-width: 2; stroke-linecap: round"/>
   </g>
   <g id="line2d_43">
    <path d="M 292.08 308.68 
L 292.08 231.28 
L 292.08 153.88 
" clip-path="url(#p2b37e06797)" style="fill: none; stroke: #000000; stroke-width: 2; stroke-linecap: round"/>
   </g>
   <g id="line2d_44">
    <path d="M 292.08 153.88 
L 369.48 153.88 
L 446.88 153.88 
" clip-path="url(#p2b37e06797)" style="fill: none; stroke: #000000; stroke-width: 2; stroke-linecap: round"/>
   </g>
   <g id="line2d_45">
    <path d="M 324.48 328.48 
L 308.28 328.48 
L 292.08 328.48 
" clip-path="url(#p2b37e06797)" style="fill: none; stroke: #000000; stroke-width: 2; stroke-linecap: round"/>
   </g>
   <g id="line2d_46">
    <path d="M 292.08 328.48 
L 292.08 342.88 
L 283.08 342.88 
L 301.08 342.88 
M 285.78 347.2 
L 298.38 347.2 
M 290.28 351.52 
L 293.88 351.52 
" clip-path="url(#p2b37e06797)" style="fill: none; stroke: #000000; stroke-width: 2; stroke-linecap: round"/>
   </g>
   <g id="line2d_47">
    <path d="M 446.88 299.68 
L 353.28 299.68 
L 353.28 407.68 
L 446.88 407.68 
L 446.88 299.68 
" clip-path="url(#p2b37e06797)" style="fill: none; stroke: #000000; stroke-width: 2; stroke-linecap: round"/>
   </g>
   <g id="line2d_48">
    <path d="M 446.88 317.68 
L 464.88 317.68 
" clip-path="url(#p2b37e06797)" style="fill: none; stroke: #000000; stroke-width: 2; stroke-linecap: round"/>
   </g>
   <g id="line2d_49">
    <path d="M 446.88 341.68 
L 464.88 341.68 
" clip-path="url(#p2b37e06797)" style="fill: none; stroke: #000000; stroke-width: 2; stroke-linecap: round"/>
   </g>
   <g id="line2d_50">
    <path d="M 446.88 365.68 
L 464.88 365.68 
" clip-path="url(#p2b37e06797)" style="fill: none; stroke: #000000; stroke-width: 2; stroke-linecap: round"/>
   </g>
   <g id="line2d_51">
    <path d="M 446.88 389.68 
L 464.88 389.68 
" clip-path="url(#p2b37e06797)" style="fill: none; stroke: #000000; stroke-width: 2; stroke-linecap: round"/>
   </g>
   <g id="line2d_52">
    <path d="M 238.08 244.48 
L 256.08 244.48 
L 274.08 244.48 
" clip-path="url(#p2b37e06797)" style="fill: none; stroke: #000000; stroke-width: 2; stroke-linecap: round"/>
   </g>
   <g id="line2d_53">
    <path d="M 274.08 244.48 
L 274.08 235.48 
L 274.08 226.48 
" clip-path="url(#p2b37e06797)" style="fill: none; stroke: #000000; stroke-width: 2; stroke-linecap: round"/>
   </g>
   <g id="line2d_54">
    <path d="M 274.08 226.48 
L 340.68 226.48 
L 407.28 226.48 
" clip-path="url(#p2b37e06797)" style="fill: none; stroke: #000000; stroke-width: 2; stroke-linecap: round"/>
   </g>
   <g id="line2d_55">
    <path d="M 464.88 317.68 
L 445.08 317.68 
L 425.28 317.68 
" clip-path="url(#p2b37e06797)" style="fill: none; stroke: #000000; stroke-width: 2; stroke-linecap: round"/>
   </g>
   <g id="line2d_56">
    <path d="M 238.08 206.08 
L 256.08 206.08 
L 274.08 206.08 
" clip-path="url(#p2b37e06797)" style="fill: none; stroke: #000000; stroke-width: 2; stroke-linecap: round"/>
   </g>
   <g id="line2d_57">
    <path d="M 274.08 206.08 
L 274.08 215.08 
L 274.08 224.08 
" clip-path="url(#p2b37e06797)" style="fill: none; stroke: #000000; stroke-width: 2; stroke-linecap: round"/>
   </g>
   <g id="line2d_58">
    <path d="M 274.08 224.08 
L 340.68 224.08 
L 407.28 224.08 
" clip-path="url(#p2b37e06797)" style="fill: none; stroke: #000000; stroke-width: 2; stroke-linecap: round"/>
   </g>
   <g id="line2d_59">
    <path d="M 464.88 341.68 
L 445.08 341.68 
L 425.28 341.68 
" clip-path="url(#p2b37e06797)" style="fill: none; stroke: #000000; stroke-width: 2; stroke-linecap: round"/>
   </g>
   <g id="line2d_60">
    <path d="M 464.88 365.68 
L 448.68 365.68 
L 432.48 365.68 
" clip-path="url(#p2b37e06797)" style="fill: none; stroke: #000000; stroke-width: 2; stroke-linecap: round"/>
   </g>
   <g id="line2d_61">
    <path d="M 432.48 365.68 
L 432.48 264.88 
L 432.48 164.08 
" clip-path="url(#p2b37e06797)" style="fill: none; stroke: #000000; stroke-width: 2; stroke-linecap: round"/>
   </g>
   <g id="line2d_62">
    <path d="M 432.48 164.08 
L 472.08 164.08 
L 511.68 164.08 
" clip-path="url(#p2b37e06797)" style="fill: none; stroke: #000000; stroke-width: 2; stroke-linecap: round"/>
   </g>
   <g id="line2d_63">
    <path d="M 464.88 389.68 
L 448.68 389.68 
L 432.48 389.68 
" clip-path="url(#p2b37e06797)" style="fill: none; stroke: #000000; stroke-width: 2; stroke-linecap: round"/>
   </g>
   <g id="line2d_64">
    <path d="M 432.48 389.68 
L 432.48 404.08 
L 423.48 404.08 
L 441.48 404.08 
M 426.18 408.4 
L 438.78 408.4 
M 430.68 412.72 
L 434.28 412.72 
" clip-path="url(#p2b37e06797)" style="fill: none; stroke: #000000; stroke-width: 2; stroke-linecap: round"/>
   </g>
   <g id="line2d_65">
    <path d="M 605.28 303.28 
L 511.68 303.28 
L 511.68 382.48 
L 605.28 382.48 
L 605.28 303.28 
" clip-path="url(#p2b37e06797)" style="fill: none; stroke: #000000; stroke-width: 2; stroke-linecap: round"/>
   </g>
   <g id="line2d_66">
    <path d="M 605.28 321.28 
L 623.28 321.28 
" clip-path="url(#p2b37e06797)" style="fill: none; stroke: #000000; stroke-width: 2; stroke-linecap: round"/>
   </g>
   <g id="line2d_67">
    <path d="M 605.28 342.88 
L 623.28 342.88 
" clip-path="url(#p2b37e06797)" style="fill: none; stroke: #000000; stroke-width: 2; stroke-linecap: round"/>
   </g>
   <g id="line2d_68">
    <path d="M 605.28 364.48 
L 623.28 364.48 
" clip-path="url(#p2b37e06797)" style="fill: none; stroke: #000000; stroke-width: 2; stroke-linecap: round"/>
   </g>
   <g id="line2d_69">
    <path d="M 238.08 282.88 
L 256.08 282.88 
L 274.08 282.88 
" clip-path="url(#p2b37e06797)" style="fill: none; stroke: #000000; stroke-width: 2; stroke-linecap: round"/>
   </g>
   <g id="line2d_70">
    <path d="M 274.08 282.88 
L 274.08 306.28 
L 274.08 329.68 
" clip-path="url(#p2b37e06797)" style="fill: none; stroke: #000000; stroke-width: 2; stroke-linecap: round"/>
   </g>
   <g id="line2d_71">
    <path d="M 274.08 329.68 
L 425.28 329.68 
L 576.48 329.68 
" clip-path="url(#p2b37e06797)" style="fill: none; stroke: #000000; stroke-width: 2; stroke-linecap: round"/>
   </g>
   <g id="line2d_72">
    <path d="M 623.28 321.28 
L 603.48 321.28 
L 583.68 321.28 
" clip-path="url(#p2b37e06797)" style="fill: none; stroke: #000000; stroke-width: 2; stroke-linecap: round"/>
   </g>
   <g id="line2d_73">
    <path d="M 623.28 342.88 
L 607.08 342.88 
L 590.88 342.88 
" clip-path="url(#p2b37e06797)" style="fill: none; stroke: #000000; stroke-width: 2; stroke-linecap: round"/>
   </g>
   <g id="line2d_74">
    <path d="M 590.88 342.88 
L 590.88 234.88 
L 590.88 126.88 
" clip-path="url(#p2b37e06797)" style="fill: none; stroke: #000000; stroke-width: 2; stroke-linecap: round"/>
   </g>
   <g id="line2d_75">
    <path d="M 590.88 126.88 
L 601.68 126.88 
L 612.48 126.88 
" clip-path="url(#p2b37e06797)" style="fill: none; stroke: #000000; stroke-width: 2; stroke-linecap: round"/>
   </g>
   <g id="line2d_76">
    <path d="M 623.28 364.48 
L 607.08 364.48 
L 590.88 364.48 
" clip-path="url(#p2b37e06797)" style="fill: none; stroke: #000000; stroke-width: 2; stroke-linecap: round"/>
   </g>
   <g id="line2d_77">
    <path d="M 590.88 364.48 
L 590.88 378.88 
L 581.88 378.88 
L 599.88 378.88 
M 584.58 383.2 
L 597.18 383.2 
M 589.08 387.52 
L 592.68 387.52 
" clip-path="url(#p2b37e06797)" style="fill: none; stroke: #000000; stroke-width: 2; stroke-linecap: round"/>
   </g>
   <g id="text_1">
    <!-- Too-Close Scanning Alarm Schematic -->
    <g transform="translate(295.669531 15.543125) scale(0.14 -0.14)">
     <defs>
      <path id="DejaVuSans-54" d="M -19 4666 
L 3928 4666 
L 3928 4134 
L 2272 4134 
L 2272 0 
L 1638 0 
L 1638 4134 
L -19 4134 
L -19 4666 
z
" transform="scale(0.015625)"/>
      <path id="DejaVuSans-6f" d="M 1959 3097 
Q 1497 3097 1228 2736 
Q 959 2375 959 1747 
Q 959 1119 1226 758 
Q 1494 397 1959 397 
Q 2419 397 2687 759 
Q 2956 1122 2956 1747 
Q 2956 2369 2687 2733 
Q 2419 3097 1959 3097 
z
M 1959 3584 
Q 2709 3584 3137 3096 
Q 3566 2609 3566 1747 
Q 3566 888 3137 398 
Q 2709 -91 1959 -91 
Q 1206 -91 779 398 
Q 353 888 353 1747 
Q 353 2609 779 3096 
Q 1206 3584 1959 3584 
z
" transform="scale(0.015625)"/>
      <path id="DejaVuSans-2d" d="M 313 2009 
L 1997 2009 
L 1997 1497 
L 313 1497 
L 313 2009 
z
" transform="scale(0.015625)"/>
      <path id="DejaVuSans-43" d="M 4122 4306 
L 4122 3641 
Q 3803 3938 3442 4084 
Q 3081 4231 2675 4231 
Q 1875 4231 1450 3742 
Q 1025 3253 1025 2328 
Q 1025 1406 1450 917 
Q 1875 428 2675 428 
Q 3081 428 3442 575 
Q 3803 722 4122 1019 
L 4122 359 
Q 3791 134 3420 21 
Q 3050 -91 2638 -91 
Q 1578 -91 968 557 
Q 359 1206 359 2328 
Q 359 3453 968 4101 
Q 1578 4750 2638 4750 
Q 3056 4750 3426 4639 
Q 3797 4528 4122 4306 
z
" transform="scale(0.015625)"/>
      <path id="DejaVuSans-6c" d="M 603 4863 
L 1178 4863 
L 1178 0 
L 603 0 
L 603 4863 
z
" transform="scale(0.015625)"/>
      <path id="DejaVuSans-73" d="M 2834 3397 
L 2834 2853 
Q 2591 2978 2328 3040 
Q 2066 3103 1784 3103 
Q 1356 3103 1142 2972 
Q 928 2841 928 2578 
Q 928 2378 1081 2264 
Q 1234 2150 1697 2047 
L 1894 2003 
Q 2506 1872 2764 1633 
Q 3022 1394 3022 966 
Q 3022 478 2636 193 
Q 2250 -91 1575 -91 
Q 1294 -91 989 -36 
Q 684 19 347 128 
L 347 722 
Q 666 556 975 473 
Q 1284 391 1588 391 
Q 1994 391 2212 530 
Q 2431 669 2431 922 
Q 2431 1156 2273 1281 
Q 2116 1406 1581 1522 
L 1381 1569 
Q 847 1681 609 1914 
Q 372 2147 372 2553 
Q 372 3047 722 3315 
Q 1072 3584 1716 3584 
Q 2034 3584 2315 3537 
Q 2597 3491 2834 3397 
z
" transform="scale(0.015625)"/>
      <path id="DejaVuSans-65" d="M 3597 1894 
L 3597 1613 
L 953 1613 
Q 991 1019 1311 708 
Q 1631 397 2203 397 
Q 2534 397 2845 478 
Q 3156 559 3463 722 
L 3463 178 
Q 3153 47 2828 -22 
Q 2503 -91 2169 -91 
Q 1331 -91 842 396 
Q 353 884 353 1716 
Q 353 2575 817 3079 
Q 1281 3584 2069 3584 
Q 2775 3584 3186 3129 
Q 3597 2675 3597 1894 
z
M 3022 2063 
Q 3016 2534 2758 2815 
Q 2500 3097 2075 3097 
Q 1594 3097 1305 2825 
Q 1016 2553 972 2059 
L 3022 2063 
z
" transform="scale(0.015625)"/>
      <path id="DejaVuSans-20" transform="scale(0.015625)"/>
      <path id="DejaVuSans-53" d="M 3425 4513 
L 3425 3897 
Q 3066 4069 2747 4153 
Q 2428 4238 2131 4238 
Q 1616 4238 1336 4038 
Q 1056 3838 1056 3469 
Q 1056 3159 1242 3001 
Q 1428 2844 1947 2747 
L 2328 2669 
Q 3034 2534 3370 2195 
Q 3706 1856 3706 1288 
Q 3706 609 3251 259 
Q 2797 -91 1919 -91 
Q 1588 -91 1214 -16 
Q 841 59 441 206 
L 441 856 
Q 825 641 1194 531 
Q 1563 422 1919 422 
Q 2459 422 2753 634 
Q 3047 847 3047 1241 
Q 3047 1584 2836 1778 
Q 2625 1972 2144 2069 
L 1759 2144 
Q 1053 2284 737 2584 
Q 422 2884 422 3419 
Q 422 4038 858 4394 
Q 1294 4750 2059 4750 
Q 2388 4750 2728 4690 
Q 3069 4631 3425 4513 
z
" transform="scale(0.015625)"/>
      <path id="DejaVuSans-63" d="M 3122 3366 
L 3122 2828 
Q 2878 2963 2633 3030 
Q 2388 3097 2138 3097 
Q 1578 3097 1268 2742 
Q 959 2388 959 1747 
Q 959 1106 1268 751 
Q 1578 397 2138 397 
Q 2388 397 2633 464 
Q 2878 531 3122 666 
L 3122 134 
Q 2881 22 2623 -34 
Q 2366 -91 2075 -91 
Q 1284 -91 818 406 
Q 353 903 353 1747 
Q 353 2603 823 3093 
Q 1294 3584 2113 3584 
Q 2378 3584 2631 3529 
Q 2884 3475 3122 3366 
z
" transform="scale(0.015625)"/>
      <path id="DejaVuSans-61" d="M 2194 1759 
Q 1497 1759 1228 1600 
Q 959 1441 959 1056 
Q 959 750 1161 570 
Q 1363 391 1709 391 
Q 2188 391 2477 730 
Q 2766 1069 2766 1631 
L 2766 1759 
L 2194 1759 
z
M 3341 1997 
L 3341 0 
L 2766 0 
L 2766 531 
Q 2569 213 2275 61 
Q 1981 -91 1556 -91 
Q 1019 -91 701 211 
Q 384 513 384 1019 
Q 384 1609 779 1909 
Q 1175 2209 1959 2209 
L 2766 2209 
L 2766 2266 
Q 2766 2663 2505 2880 
Q 2244 3097 1772 3097 
Q 1472 3097 1187 3025 
Q 903 2953 641 2809 
L 641 3341 
Q 956 3463 1253 3523 
Q 1550 3584 1831 3584 
Q 2591 3584 2966 3190 
Q 3341 2797 3341 1997 
z
" transform="scale(0.015625)"/>
      <path id="DejaVuSans-6e" d="M 3513 2113 
L 3513 0 
L 2938 0 
L 2938 2094 
Q 2938 2591 2744 2837 
Q 2550 3084 2163 3084 
Q 1697 3084 1428 2787 
Q 1159 2491 1159 1978 
L 1159 0 
L 581 0 
L 581 3500 
L 1159 3500 
L 1159 2956 
Q 1366 3272 1645 3428 
Q 1925 3584 2291 3584 
Q 2894 3584 3203 3211 
Q 3513 2838 3513 2113 
z
" transform="scale(0.015625)"/>
      <path id="DejaVuSans-69" d="M 603 3500 
L 1178 3500 
L 1178 0 
L 603 0 
L 603 3500 
z
M 603 4863 
L 1178 4863 
L 1178 4134 
L 603 4134 
L 603 4863 
z
" transform="scale(0.015625)"/>
      <path id="DejaVuSans-67" d="M 2906 1791 
Q 2906 2416 2648 2759 
Q 2391 3103 1925 3103 
Q 1463 3103 1205 2759 
Q 947 2416 947 1791 
Q 947 1169 1205 825 
Q 1463 481 1925 481 
Q 2391 481 2648 825 
Q 2906 1169 2906 1791 
z
M 3481 434 
Q 3481 -459 3084 -895 
Q 2688 -1331 1869 -1331 
Q 1566 -1331 1297 -1286 
Q 1028 -1241 775 -1147 
L 775 -588 
Q 1028 -725 1275 -790 
Q 1522 -856 1778 -856 
Q 2344 -856 2625 -561 
Q 2906 -266 2906 331 
L 2906 616 
Q 2728 306 2450 153 
Q 2172 0 1784 0 
Q 1141 0 747 490 
Q 353 981 353 1791 
Q 353 2603 747 3093 
Q 1141 3584 1784 3584 
Q 2172 3584 2450 3431 
Q 2728 3278 2906 2969 
L 2906 3500 
L 3481 3500 
L 3481 434 
z
" transform="scale(0.015625)"/>
      <path id="DejaVuSans-41" d="M 2188 4044 
L 1331 1722 
L 3047 1722 
L 2188 4044 
z
M 1831 4666 
L 2547 4666 
L 4325 0 
L 3669 0 
L 3244 1197 
L 1141 1197 
L 716 0 
L 50 0 
L 1831 4666 
z
" transform="scale(0.015625)"/>
      <path id="DejaVuSans-72" d="M 2631 2963 
Q 2534 3019 2420 3045 
Q 2306 3072 2169 3072 
Q 1681 3072 1420 2755 
Q 1159 2438 1159 1844 
L 1159 0 
L 581 0 
L 581 3500 
L 1159 3500 
L 1159 2956 
Q 1341 3275 1631 3429 
Q 1922 3584 2338 3584 
Q 2397 3584 2469 3576 
Q 2541 3569 2628 3553 
L 2631 2963 
z
" transform="scale(0.015625)"/>
      <path id="DejaVuSans-6d" d="M 3328 2828 
Q 3544 3216 3844 3400 
Q 4144 3584 4550 3584 
Q 5097 3584 5394 3201 
Q 5691 2819 5691 2113 
L 5691 0 
L 5113 0 
L 5113 2094 
Q 5113 2597 4934 2840 
Q 4756 3084 4391 3084 
Q 3944 3084 3684 2787 
Q 3425 2491 3425 1978 
L 3425 0 
L 2847 0 
L 2847 2094 
Q 2847 2600 2669 2842 
Q 2491 3084 2119 3084 
Q 1678 3084 1418 2786 
Q 1159 2488 1159 1978 
L 1159 0 
L 581 0 
L 581 3500 
L 1159 3500 
L 1159 2956 
Q 1356 3278 1631 3431 
Q 1906 3584 2284 3584 
Q 2666 3584 2933 3390 
Q 3200 3197 3328 2828 
z
" transform="scale(0.015625)"/>
      <path id="DejaVuSans-68" d="M 3513 2113 
L 3513 0 
L 2938 0 
L 2938 2094 
Q 2938 2591 2744 2837 
Q 2550 3084 2163 3084 
Q 1697 3084 1428 2787 
Q 1159 2491 1159 1978 
L 1159 0 
L 581 0 
L 581 4863 
L 1159 4863 
L 1159 2956 
Q 1366 3272 1645 3428 
Q 1925 3584 2291 3584 
Q 2894 3584 3203 3211 
Q 3513 2838 3513 2113 
z
" transform="scale(0.015625)"/>
      <path id="DejaVuSans-74" d="M 1172 4494 
L 1172 3500 
L 2356 3500 
L 2356 3053 
L 1172 3053 
L 1172 1153 
Q 1172 725 1289 603 
Q 1406 481 1766 481 
L 2356 481 
L 2356 0 
L 1766 0 
Q 1100 0 847 248 
Q 594 497 594 1153 
L 594 3053 
L 172 3053 
L 172 3500 
L 594 3500 
L 594 4494 
L 1172 4494 
z
" transform="scale(0.015625)"/>
     </defs>
     <use xlink:href="#DejaVuSans-54"/>
     <use xlink:href="#DejaVuSans-6f" transform="translate(44.083984 0)"/>
     <use xlink:href="#DejaVuSans-6f" transform="translate(105.265625 0)"/>
     <use xlink:href="#DejaVuSans-2d" transform="translate(168.322266 0)"/>
     <use xlink:href="#DejaVuSans-43" transform="translate(204.40625 0)"/>
     <use xlink:href="#DejaVuSans-6c" transform="translate(274.230469 0)"/>
     <use xlink:href="#DejaVuSans-6f" transform="translate(302.013672 0)"/>
     <use xlink:href="#DejaVuSans-73" transform="translate(363.195312 0)"/>
     <use xlink:href="#DejaVuSans-65" transform="translate(415.294922 0)"/>
     <use xlink:href="#DejaVuSans-20" transform="translate(476.818359 0)"/>
     <use xlink:href="#DejaVuSans-53" transform="translate(508.605469 0)"/>
     <use xlink:href="#DejaVuSans-63" transform="translate(572.082031 0)"/>
     <use xlink:href="#DejaVuSans-61" transform="translate(627.0625 0)"/>
     <use xlink:href="#DejaVuSans-6e" transform="translate(688.341797 0)"/>
     <use xlink:href="#DejaVuSans-6e" transform="translate(751.720703 0)"/>
     <use xlink:href="#DejaVuSans-69" transform="translate(815.099609 0)"/>
     <use xlink:href="#DejaVuSans-6e" transform="translate(842.882812 0)"/>
     <use xlink:href="#DejaVuSans-67" transform="translate(906.261719 0)"/>
     <use xlink:href="#DejaVuSans-20" transform="translate(969.738281 0)"/>
     <use xlink:href="#DejaVuSans-41" transform="translate(1001.525391 0)"/>
     <use xlink:href="#DejaVuSans-6c" transform="translate(1069.933594 0)"/>
     <use xlink:href="#DejaVuSans-61" transform="translate(1097.716797 0)"/>
     <use xlink:href="#DejaVuSans-72" transform="translate(1158.996094 0)"/>
     <use xlink:href="#DejaVuSans-6d" transform="translate(1198.359375 0)"/>
     <use xlink:href="#DejaVuSans-20" transform="translate(1295.771484 0)"/>
     <use xlink:href="#DejaVuSans-53" transform="translate(1327.558594 0)"/>
     <use xlink:href="#DejaVuSans-63" transform="translate(1391.035156 0)"/>
     <use xlink:href="#DejaVuSans-68" transform="translate(1446.015625 0)"/>
     <use xlink:href="#DejaVuSans-65" transform="translate(1509.394531 0)"/>
     <use xlink:href="#DejaVuSans-6d" transform="translate(1570.917969 0)"/>
     <use xlink:href="#DejaVuSans-61" transform="translate(1668.330078 0)"/>
     <use xlink:href="#DejaVuSans-74" transform="translate(1729.609375 0)"/>
     <use xlink:href="#DejaVuSans-69" transform="translate(1768.818359 0)"/>
     <use xlink:href="#DejaVuSans-63" transform="translate(1796.601562 0)"/>
    </g>
   </g>
   <g id="text_2">
    <!-- BT1 -->
    <g transform="translate(26.814375 163.278437) scale(0.1 -0.1)">
     <defs>
      <path id="DejaVuSans-42" d="M 1259 2228 
L 1259 519 
L 2272 519 
Q 2781 519 3026 730 
Q 3272 941 3272 1375 
Q 3272 1813 3026 2020 
Q 2781 2228 2272 2228 
L 1259 2228 
z
M 1259 4147 
L 1259 2741 
L 2194 2741 
Q 2656 2741 2882 2914 
Q 3109 3088 3109 3444 
Q 3109 3797 2882 3972 
Q 2656 4147 2194 4147 
L 1259 4147 
z
M 628 4666 
L 2241 4666 
Q 2963 4666 3353 4366 
Q 3744 4066 3744 3513 
Q 3744 3084 3544 2831 
Q 3344 2578 2956 2516 
Q 3422 2416 3680 2098 
Q 3938 1781 3938 1306 
Q 3938 681 3513 340 
Q 3088 0 2303 0 
L 628 0 
L 628 4666 
z
" transform="scale(0.015625)"/>
      <path id="DejaVuSans-31" d="M 794 531 
L 1825 531 
L 1825 4091 
L 703 3866 
L 703 4441 
L 1819 4666 
L 2450 4666 
L 2450 531 
L 3481 531 
L 3481 0 
L 794 0 
L 794 531 
z
" transform="scale(0.015625)"/>
     </defs>
     <use xlink:href="#DejaVuSans-42"/>
     <use xlink:href="#DejaVuSans-54" transform="translate(68.603516 0)"/>
     <use xlink:href="#DejaVuSans-31" transform="translate(129.6875 0)"/>
    </g>
    <!-- 2S Li-ion pack -->
    <g transform="translate(1.4675 172.956563) scale(0.1 -0.1)">
     <defs>
      <path id="DejaVuSans-32" d="M 1228 531 
L 3431 531 
L 3431 0 
L 469 0 
L 469 531 
Q 828 903 1448 1529 
Q 2069 2156 2228 2338 
Q 2531 2678 2651 2914 
Q 2772 3150 2772 3378 
Q 2772 3750 2511 3984 
Q 2250 4219 1831 4219 
Q 1534 4219 1204 4116 
Q 875 4013 500 3803 
L 500 4441 
Q 881 4594 1212 4672 
Q 1544 4750 1819 4750 
Q 2544 4750 2975 4387 
Q 3406 4025 3406 3419 
Q 3406 3131 3298 2873 
Q 3191 2616 2906 2266 
Q 2828 2175 2409 1742 
Q 1991 1309 1228 531 
z
" transform="scale(0.015625)"/>
      <path id="DejaVuSans-4c" d="M 628 4666 
L 1259 4666 
L 1259 531 
L 3531 531 
L 3531 0 
L 628 0 
L 628 4666 
z
" transform="scale(0.015625)"/>
      <path id="DejaVuSans-70" d="M 1159 525 
L 1159 -1331 
L 581 -1331 
L 581 3500 
L 1159 3500 
L 1159 2969 
Q 1341 3281 1617 3432 
Q 1894 3584 2278 3584 
Q 2916 3584 3314 3078 
Q 3713 2572 3713 1747 
Q 3713 922 3314 415 
Q 2916 -91 2278 -91 
Q 1894 -91 1617 61 
Q 1341 213 1159 525 
z
M 3116 1747 
Q 3116 2381 2855 2742 
Q 2594 3103 2138 3103 
Q 1681 3103 1420 2742 
Q 1159 2381 1159 1747 
Q 1159 1113 1420 752 
Q 1681 391 2138 391 
Q 2594 391 2855 752 
Q 3116 1113 3116 1747 
z
" transform="scale(0.015625)"/>
      <path id="DejaVuSans-6b" d="M 581 4863 
L 1159 4863 
L 1159 1991 
L 2875 3500 
L 3609 3500 
L 1753 1863 
L 3688 0 
L 2938 0 
L 1159 1709 
L 1159 0 
L 581 0 
L 581 4863 
z
" transform="scale(0.015625)"/>
     </defs>
     <use xlink:href="#DejaVuSans-32"/>
     <use xlink:href="#DejaVuSans-53" transform="translate(63.623047 0)"/>
     <use xlink:href="#DejaVuSans-20" transform="translate(127.099609 0)"/>
     <use xlink:href="#DejaVuSans-4c" transform="translate(158.886719 0)"/>
     <use xlink:href="#DejaVuSans-69" transform="translate(214.599609 0)"/>
     <use xlink:href="#DejaVuSans-2d" transform="translate(242.382812 0)"/>
     <use xlink:href="#DejaVuSans-69" transform="translate(278.466797 0)"/>
     <use xlink:href="#DejaVuSans-6f" transform="translate(306.25 0)"/>
     <use xlink:href="#DejaVuSans-6e" transform="translate(367.431641 0)"/>
     <use xlink:href="#DejaVuSans-20" transform="translate(430.810547 0)"/>
     <use xlink:href="#DejaVuSans-70" transform="translate(462.597656 0)"/>
     <use xlink:href="#DejaVuSans-61" transform="translate(526.074219 0)"/>
     <use xlink:href="#DejaVuSans-63" transform="translate(587.353516 0)"/>
     <use xlink:href="#DejaVuSans-6b" transform="translate(642.333984 0)"/>
    </g>
    <!-- 7.4 V nom. -->
    <g transform="translate(9.2425 182.634688) scale(0.1 -0.1)">
     <defs>
      <path id="DejaVuSans-37" d="M 525 4666 
L 3525 4666 
L 3525 4397 
L 1831 0 
L 1172 0 
L 2766 4134 
L 525 4134 
L 525 4666 
z
" transform="scale(0.015625)"/>
      <path id="DejaVuSans-2e" d="M 684 794 
L 1344 794 
L 1344 0 
L 684 0 
L 684 794 
z
" transform="scale(0.015625)"/>
      <path id="DejaVuSans-34" d="M 2419 4116 
L 825 1625 
L 2419 1625 
L 2419 4116 
z
M 2253 4666 
L 3047 4666 
L 3047 1625 
L 3713 1625 
L 3713 1100 
L 3047 1100 
L 3047 0 
L 2419 0 
L 2419 1100 
L 313 1100 
L 313 1709 
L 2253 4666 
z
" transform="scale(0.015625)"/>
      <path id="DejaVuSans-56" d="M 1831 0 
L 50 4666 
L 709 4666 
L 2188 738 
L 3669 4666 
L 4325 4666 
L 2547 0 
L 1831 0 
z
" transform="scale(0.015625)"/>
     </defs>
     <use xlink:href="#DejaVuSans-37"/>
     <use xlink:href="#DejaVuSans-2e" transform="translate(63.623047 0)"/>
     <use xlink:href="#DejaVuSans-34" transform="translate(95.410156 0)"/>
     <use xlink:href="#DejaVuSans-20" transform="translate(159.033203 0)"/>
     <use xlink:href="#DejaVuSans-56" transform="translate(190.820312 0)"/>
     <use xlink:href="#DejaVuSans-20" transform="translate(259.228516 0)"/>
     <use xlink:href="#DejaVuSans-6e" transform="translate(291.015625 0)"/>
     <use xlink:href="#DejaVuSans-6f" transform="translate(354.394531 0)"/>
     <use xlink:href="#DejaVuSans-6d" transform="translate(415.576172 0)"/>
     <use xlink:href="#DejaVuSans-2e" transform="translate(512.988281 0)"/>
    </g>
   </g>
   <g id="patch_3">
    <path d="M 58.8 84.4 
C 59.945677 84.4 61.044585 83.944818 61.854701 83.134701 
C 62.664818 82.324585 63.12 81.225677 63.12 80.08 
C 63.12 78.934323 62.664818 77.835415 61.854701 77.025299 
C 61.044585 76.215182 59.945677 75.76 58.8 75.76 
C 57.654323 75.76 56.555415 76.215182 55.745299 77.025299 
C 54.935182 77.835415 54.48 78.934323 54.48 80.08 
C 54.48 81.225677 54.935182 82.324585 55.745299 83.134701 
C 56.555415 83.944818 57.654323 84.4 58.8 84.4 
z
" clip-path="url(#p2b37e06797)" style="fill: #ffffff; stroke: #000000; stroke-width: 2; stroke-linejoin: miter"/>
   </g>
   <g id="patch_4">
    <path d="M 86.16 84.4 
C 87.305677 84.4 88.404585 83.944818 89.214701 83.134701 
C 90.024818 82.324585 90.48 81.225677 90.48 80.08 
C 90.48 78.934323 90.024818 77.835415 89.214701 77.025299 
C 88.404585 76.215182 87.305677 75.76 86.16 75.76 
C 85.014323 75.76 83.915415 76.215182 83.105299 77.025299 
C 82.295182 77.835415 81.84 78.934323 81.84 80.08 
C 81.84 81.225677 82.295182 82.324585 83.105299 83.134701 
C 83.915415 83.944818 85.014323 84.4 86.16 84.4 
z
" clip-path="url(#p2b37e06797)" style="fill: #ffffff; stroke: #000000; stroke-width: 2; stroke-linejoin: miter"/>
   </g>
   <g id="text_3">
    <!-- S1 -->
    <g transform="translate(66.124531 48.522188) scale(0.1 -0.1)">
     <use xlink:href="#DejaVuSans-53"/>
     <use xlink:href="#DejaVuSans-31" transform="translate(63.476562 0)"/>
    </g>
    <!-- SPST -->
    <g transform="translate(60.062812 58.200313) scale(0.1 -0.1)">
     <defs>
      <path id="DejaVuSans-50" d="M 1259 4147 
L 1259 2394 
L 2053 2394 
Q 2494 2394 2734 2622 
Q 2975 2850 2975 3272 
Q 2975 3691 2734 3919 
Q 2494 4147 2053 4147 
L 1259 4147 
z
M 628 4666 
L 2053 4666 
Q 2838 4666 3239 4311 
Q 3641 3956 3641 3272 
Q 3641 2581 3239 2228 
Q 2838 1875 2053 1875 
L 1259 1875 
L 1259 0 
L 628 0 
L 628 4666 
z
" transform="scale(0.015625)"/>
     </defs>
     <use xlink:href="#DejaVuSans-53"/>
     <use xlink:href="#DejaVuSans-50" transform="translate(63.476562 0)"/>
     <use xlink:href="#DejaVuSans-53" transform="translate(123.779297 0)"/>
     <use xlink:href="#DejaVuSans-54" transform="translate(187.255859 0)"/>
    </g>
   </g>
   <g id="text_4">
    <!-- VIN -->
    <g transform="translate(121.08 173.943125) scale(0.14 -0.14)">
     <defs>
      <path id="DejaVuSans-49" d="M 628 4666 
L 1259 4666 
L 1259 0 
L 628 0 
L 628 4666 
z
" transform="scale(0.015625)"/>
      <path id="DejaVuSans-4e" d="M 628 4666 
L 1478 4666 
L 3547 763 
L 3547 4666 
L 4159 4666 
L 4159 0 
L 3309 0 
L 1241 3903 
L 1241 0 
L 628 0 
L 628 4666 
z
" transform="scale(0.015625)"/>
     </defs>
     <use xlink:href="#DejaVuSans-56"/>
     <use xlink:href="#DejaVuSans-49" transform="translate(68.408203 0)"/>
     <use xlink:href="#DejaVuSans-4e" transform="translate(97.900391 0)"/>
    </g>
   </g>
   <g id="text_5">
    <!-- GND -->
    <g transform="translate(121.08 137.943125) scale(0.14 -0.14)">
     <defs>
      <path id="DejaVuSans-47" d="M 3809 666 
L 3809 1919 
L 2778 1919 
L 2778 2438 
L 4434 2438 
L 4434 434 
Q 4069 175 3628 42 
Q 3188 -91 2688 -91 
Q 1594 -91 976 548 
Q 359 1188 359 2328 
Q 359 3472 976 4111 
Q 1594 4750 2688 4750 
Q 3144 4750 3555 4637 
Q 3966 4525 4313 4306 
L 4313 3634 
Q 3963 3931 3569 4081 
Q 3175 4231 2741 4231 
Q 1884 4231 1454 3753 
Q 1025 3275 1025 2328 
Q 1025 1384 1454 906 
Q 1884 428 2741 428 
Q 3075 428 3337 486 
Q 3600 544 3809 666 
z
" transform="scale(0.015625)"/>
      <path id="DejaVuSans-44" d="M 1259 4147 
L 1259 519 
L 2022 519 
Q 2988 519 3436 956 
Q 3884 1394 3884 2338 
Q 3884 3275 3436 3711 
Q 2988 4147 2022 4147 
L 1259 4147 
z
M 628 4666 
L 1925 4666 
Q 3281 4666 3915 4102 
Q 4550 3538 4550 2338 
Q 4550 1131 3912 565 
Q 3275 0 1925 0 
L 628 0 
L 628 4666 
z
" transform="scale(0.015625)"/>
     </defs>
     <use xlink:href="#DejaVuSans-47"/>
     <use xlink:href="#DejaVuSans-4e" transform="translate(77.490234 0)"/>
     <use xlink:href="#DejaVuSans-44" transform="translate(152.294922 0)"/>
    </g>
   </g>
   <g id="text_6">
    <!-- VOUT -->
    <g transform="translate(161.130312 155.943125) scale(0.14 -0.14)">
     <defs>
      <path id="DejaVuSans-4f" d="M 2522 4238 
Q 1834 4238 1429 3725 
Q 1025 3213 1025 2328 
Q 1025 1447 1429 934 
Q 1834 422 2522 422 
Q 3209 422 3611 934 
Q 4013 1447 4013 2328 
Q 4013 3213 3611 3725 
Q 3209 4238 2522 4238 
z
M 2522 4750 
Q 3503 4750 4090 4092 
Q 4678 3434 4678 2328 
Q 4678 1225 4090 567 
Q 3503 -91 2522 -91 
Q 1538 -91 948 565 
Q 359 1222 359 2328 
Q 359 3434 948 4092 
Q 1538 4750 2522 4750 
z
" transform="scale(0.015625)"/>
      <path id="DejaVuSans-55" d="M 556 4666 
L 1191 4666 
L 1191 1831 
Q 1191 1081 1462 751 
Q 1734 422 2344 422 
Q 2950 422 3222 751 
Q 3494 1081 3494 1831 
L 3494 4666 
L 4128 4666 
L 4128 1753 
Q 4128 841 3676 375 
Q 3225 -91 2344 -91 
Q 1459 -91 1007 375 
Q 556 841 556 1753 
L 556 4666 
z
" transform="scale(0.015625)"/>
     </defs>
     <use xlink:href="#DejaVuSans-56"/>
     <use xlink:href="#DejaVuSans-4f" transform="translate(66.658203 0)"/>
     <use xlink:href="#DejaVuSans-55" transform="translate(145.369141 0)"/>
     <use xlink:href="#DejaVuSans-54" transform="translate(218.5625 0)"/>
    </g>
   </g>
   <g id="text_7">
    <!-- REG1 -->
    <g transform="translate(150.590937 141.56125) scale(0.1 -0.1)">
     <defs>
      <path id="DejaVuSans-52" d="M 2841 2188 
Q 3044 2119 3236 1894 
Q 3428 1669 3622 1275 
L 4263 0 
L 3584 0 
L 2988 1197 
Q 2756 1666 2539 1819 
Q 2322 1972 1947 1972 
L 1259 1972 
L 1259 0 
L 628 0 
L 628 4666 
L 2053 4666 
Q 2853 4666 3247 4331 
Q 3641 3997 3641 3322 
Q 3641 2881 3436 2590 
Q 3231 2300 2841 2188 
z
M 1259 4147 
L 1259 2491 
L 2053 2491 
Q 2509 2491 2742 2702 
Q 2975 2913 2975 3322 
Q 2975 3731 2742 3939 
Q 2509 4147 2053 4147 
L 1259 4147 
z
" transform="scale(0.015625)"/>
      <path id="DejaVuSans-45" d="M 628 4666 
L 3578 4666 
L 3578 4134 
L 1259 4134 
L 1259 2753 
L 3481 2753 
L 3481 2222 
L 1259 2222 
L 1259 531 
L 3634 531 
L 3634 0 
L 628 0 
L 628 4666 
z
" transform="scale(0.015625)"/>
     </defs>
     <use xlink:href="#DejaVuSans-52"/>
     <use xlink:href="#DejaVuSans-45" transform="translate(69.482422 0)"/>
     <use xlink:href="#DejaVuSans-47" transform="translate(132.666016 0)"/>
     <use xlink:href="#DejaVuSans-31" transform="translate(210.15625 0)"/>
    </g>
    <!-- LM2596 module -->
    <g transform="translate(124.127656 151.239375) scale(0.1 -0.1)">
     <defs>
      <path id="DejaVuSans-4d" d="M 628 4666 
L 1569 4666 
L 2759 1491 
L 3956 4666 
L 4897 4666 
L 4897 0 
L 4281 0 
L 4281 4097 
L 3078 897 
L 2444 897 
L 1241 4097 
L 1241 0 
L 628 0 
L 628 4666 
z
" transform="scale(0.015625)"/>
      <path id="DejaVuSans-35" d="M 691 4666 
L 3169 4666 
L 3169 4134 
L 1269 4134 
L 1269 2991 
Q 1406 3038 1543 3061 
Q 1681 3084 1819 3084 
Q 2600 3084 3056 2656 
Q 3513 2228 3513 1497 
Q 3513 744 3044 326 
Q 2575 -91 1722 -91 
Q 1428 -91 1123 -41 
Q 819 9 494 109 
L 494 744 
Q 775 591 1075 516 
Q 1375 441 1709 441 
Q 2250 441 2565 725 
Q 2881 1009 2881 1497 
Q 2881 1984 2565 2268 
Q 2250 2553 1709 2553 
Q 1456 2553 1204 2497 
Q 953 2441 691 2322 
L 691 4666 
z
" transform="scale(0.015625)"/>
      <path id="DejaVuSans-39" d="M 703 97 
L 703 672 
Q 941 559 1184 500 
Q 1428 441 1663 441 
Q 2288 441 2617 861 
Q 2947 1281 2994 2138 
Q 2813 1869 2534 1725 
Q 2256 1581 1919 1581 
Q 1219 1581 811 2004 
Q 403 2428 403 3163 
Q 403 3881 828 4315 
Q 1253 4750 1959 4750 
Q 2769 4750 3195 4129 
Q 3622 3509 3622 2328 
Q 3622 1225 3098 567 
Q 2575 -91 1691 -91 
Q 1453 -91 1209 -44 
Q 966 3 703 97 
z
M 1959 2075 
Q 2384 2075 2632 2365 
Q 2881 2656 2881 3163 
Q 2881 3666 2632 3958 
Q 2384 4250 1959 4250 
Q 1534 4250 1286 3958 
Q 1038 3666 1038 3163 
Q 1038 2656 1286 2365 
Q 1534 2075 1959 2075 
z
" transform="scale(0.015625)"/>
      <path id="DejaVuSans-36" d="M 2113 2584 
Q 1688 2584 1439 2293 
Q 1191 2003 1191 1497 
Q 1191 994 1439 701 
Q 1688 409 2113 409 
Q 2538 409 2786 701 
Q 3034 994 3034 1497 
Q 3034 2003 2786 2293 
Q 2538 2584 2113 2584 
z
M 3366 4563 
L 3366 3988 
Q 3128 4100 2886 4159 
Q 2644 4219 2406 4219 
Q 1781 4219 1451 3797 
Q 1122 3375 1075 2522 
Q 1259 2794 1537 2939 
Q 1816 3084 2150 3084 
Q 2853 3084 3261 2657 
Q 3669 2231 3669 1497 
Q 3669 778 3244 343 
Q 2819 -91 2113 -91 
Q 1303 -91 875 529 
Q 447 1150 447 2328 
Q 447 3434 972 4092 
Q 1497 4750 2381 4750 
Q 2619 4750 2861 4703 
Q 3103 4656 3366 4563 
z
" transform="scale(0.015625)"/>
      <path id="DejaVuSans-64" d="M 2906 2969 
L 2906 4863 
L 3481 4863 
L 3481 0 
L 2906 0 
L 2906 525 
Q 2725 213 2448 61 
Q 2172 -91 1784 -91 
Q 1150 -91 751 415 
Q 353 922 353 1747 
Q 353 2572 751 3078 
Q 1150 3584 1784 3584 
Q 2172 3584 2448 3432 
Q 2725 3281 2906 2969 
z
M 947 1747 
Q 947 1113 1208 752 
Q 1469 391 1925 391 
Q 2381 391 2643 752 
Q 2906 1113 2906 1747 
Q 2906 2381 2643 2742 
Q 2381 3103 1925 3103 
Q 1469 3103 1208 2742 
Q 947 2381 947 1747 
z
" transform="scale(0.015625)"/>
      <path id="DejaVuSans-75" d="M 544 1381 
L 544 3500 
L 1119 3500 
L 1119 1403 
Q 1119 906 1312 657 
Q 1506 409 1894 409 
Q 2359 409 2629 706 
Q 2900 1003 2900 1516 
L 2900 3500 
L 3475 3500 
L 3475 0 
L 2900 0 
L 2900 538 
Q 2691 219 2414 64 
Q 2138 -91 1772 -91 
Q 1169 -91 856 284 
Q 544 659 544 1381 
z
M 1991 3584 
L 1991 3584 
z
" transform="scale(0.015625)"/>
     </defs>
     <use xlink:href="#DejaVuSans-4c"/>
     <use xlink:href="#DejaVuSans-4d" transform="translate(55.712891 0)"/>
     <use xlink:href="#DejaVuSans-32" transform="translate(141.992188 0)"/>
     <use xlink:href="#DejaVuSans-35" transform="translate(205.615234 0)"/>
     <use xlink:href="#DejaVuSans-39" transform="translate(269.238281 0)"/>
     <use xlink:href="#DejaVuSans-36" transform="translate(332.861328 0)"/>
     <use xlink:href="#DejaVuSans-20" transform="translate(396.484375 0)"/>
     <use xlink:href="#DejaVuSans-6d" transform="translate(428.271484 0)"/>
     <use xlink:href="#DejaVuSans-6f" transform="translate(525.683594 0)"/>
     <use xlink:href="#DejaVuSans-64" transform="translate(586.865234 0)"/>
     <use xlink:href="#DejaVuSans-75" transform="translate(650.341797 0)"/>
     <use xlink:href="#DejaVuSans-6c" transform="translate(713.720703 0)"/>
     <use xlink:href="#DejaVuSans-65" transform="translate(741.503906 0)"/>
    </g>
    <!-- 5.0 V out -->
    <g transform="translate(141.541719 160.9175) scale(0.1 -0.1)">
     <defs>
      <path id="DejaVuSans-30" d="M 2034 4250 
Q 1547 4250 1301 3770 
Q 1056 3291 1056 2328 
Q 1056 1369 1301 889 
Q 1547 409 2034 409 
Q 2525 409 2770 889 
Q 3016 1369 3016 2328 
Q 3016 3291 2770 3770 
Q 2525 4250 2034 4250 
z
M 2034 4750 
Q 2819 4750 3233 4129 
Q 3647 3509 3647 2328 
Q 3647 1150 3233 529 
Q 2819 -91 2034 -91 
Q 1250 -91 836 529 
Q 422 1150 422 2328 
Q 422 3509 836 4129 
Q 1250 4750 2034 4750 
z
" transform="scale(0.015625)"/>
     </defs>
     <use xlink:href="#DejaVuSans-35"/>
     <use xlink:href="#DejaVuSans-2e" transform="translate(63.623047 0)"/>
     <use xlink:href="#DejaVuSans-30" transform="translate(95.410156 0)"/>
     <use xlink:href="#DejaVuSans-20" transform="translate(159.033203 0)"/>
     <use xlink:href="#DejaVuSans-56" transform="translate(190.820312 0)"/>
     <use xlink:href="#DejaVuSans-20" transform="translate(259.228516 0)"/>
     <use xlink:href="#DejaVuSans-6f" transform="translate(291.015625 0)"/>
     <use xlink:href="#DejaVuSans-75" transform="translate(352.197266 0)"/>
     <use xlink:href="#DejaVuSans-74" transform="translate(415.576172 0)"/>
    </g>
   </g>
   <g id="text_8">
    <!-- C1 -->
    <g transform="translate(224.207344 130.644063) scale(0.1 -0.1)">
     <use xlink:href="#DejaVuSans-43"/>
     <use xlink:href="#DejaVuSans-31" transform="translate(69.824219 0)"/>
    </g>
    <!-- 470 uF -->
    <g transform="translate(213.702656 140.322188) scale(0.1 -0.1)">
     <defs>
      <path id="DejaVuSans-46" d="M 628 4666 
L 3309 4666 
L 3309 4134 
L 1259 4134 
L 1259 2759 
L 3109 2759 
L 3109 2228 
L 1259 2228 
L 1259 0 
L 628 0 
L 628 4666 
z
" transform="scale(0.015625)"/>
     </defs>
     <use xlink:href="#DejaVuSans-34"/>
     <use xlink:href="#DejaVuSans-37" transform="translate(63.623047 0)"/>
     <use xlink:href="#DejaVuSans-30" transform="translate(127.246094 0)"/>
     <use xlink:href="#DejaVuSans-20" transform="translate(190.869141 0)"/>
     <use xlink:href="#DejaVuSans-75" transform="translate(222.65625 0)"/>
     <use xlink:href="#DejaVuSans-46" transform="translate(286.035156 0)"/>
    </g>
    <!-- servo bulk -->
    <g transform="translate(204.908125 150.000313) scale(0.1 -0.1)">
     <defs>
      <path id="DejaVuSans-76" d="M 191 3500 
L 800 3500 
L 1894 563 
L 2988 3500 
L 3597 3500 
L 2284 0 
L 1503 0 
L 191 3500 
z
" transform="scale(0.015625)"/>
      <path id="DejaVuSans-62" d="M 3116 1747 
Q 3116 2381 2855 2742 
Q 2594 3103 2138 3103 
Q 1681 3103 1420 2742 
Q 1159 2381 1159 1747 
Q 1159 1113 1420 752 
Q 1681 391 2138 391 
Q 2594 391 2855 752 
Q 3116 1113 3116 1747 
z
M 1159 2969 
Q 1341 3281 1617 3432 
Q 1894 3584 2278 3584 
Q 2916 3584 3314 3078 
Q 3713 2572 3713 1747 
Q 3713 922 3314 415 
Q 2916 -91 2278 -91 
Q 1894 -91 1617 61 
Q 1341 213 1159 525 
L 1159 0 
L 581 0 
L 581 4863 
L 1159 4863 
L 1159 2969 
z
" transform="scale(0.015625)"/>
     </defs>
     <use xlink:href="#DejaVuSans-73"/>
     <use xlink:href="#DejaVuSans-65" transform="translate(52.099609 0)"/>
     <use xlink:href="#DejaVuSans-72" transform="translate(113.623047 0)"/>
     <use xlink:href="#DejaVuSans-76" transform="translate(154.736328 0)"/>
     <use xlink:href="#DejaVuSans-6f" transform="translate(213.916016 0)"/>
     <use xlink:href="#DejaVuSans-20" transform="translate(275.097656 0)"/>
     <use xlink:href="#DejaVuSans-62" transform="translate(306.884766 0)"/>
     <use xlink:href="#DejaVuSans-75" transform="translate(370.361328 0)"/>
     <use xlink:href="#DejaVuSans-6c" transform="translate(433.740234 0)"/>
     <use xlink:href="#DejaVuSans-6b" transform="translate(461.523438 0)"/>
    </g>
   </g>
   <g id="text_9">
    <!-- C2 -->
    <g transform="translate(314.207344 130.644063) scale(0.1 -0.1)">
     <use xlink:href="#DejaVuSans-43"/>
     <use xlink:href="#DejaVuSans-32" transform="translate(69.824219 0)"/>
    </g>
    <!-- 0.1 uF -->
    <g transform="translate(305.294844 140.322188) scale(0.1 -0.1)">
     <use xlink:href="#DejaVuSans-30"/>
     <use xlink:href="#DejaVuSans-2e" transform="translate(63.623047 0)"/>
     <use xlink:href="#DejaVuSans-31" transform="translate(95.410156 0)"/>
     <use xlink:href="#DejaVuSans-20" transform="translate(159.033203 0)"/>
     <use xlink:href="#DejaVuSans-75" transform="translate(190.820312 0)"/>
     <use xlink:href="#DejaVuSans-46" transform="translate(254.199219 0)"/>
    </g>
    <!-- bypass -->
    <g transform="translate(303.29875 150.000313) scale(0.1 -0.1)">
     <defs>
      <path id="DejaVuSans-79" d="M 2059 -325 
Q 1816 -950 1584 -1140 
Q 1353 -1331 966 -1331 
L 506 -1331 
L 506 -850 
L 844 -850 
Q 1081 -850 1212 -737 
Q 1344 -625 1503 -206 
L 1606 56 
L 191 3500 
L 800 3500 
L 1894 763 
L 2988 3500 
L 3597 3500 
L 2059 -325 
z
" transform="scale(0.015625)"/>
     </defs>
     <use xlink:href="#DejaVuSans-62"/>
     <use xlink:href="#DejaVuSans-79" transform="translate(63.476562 0)"/>
     <use xlink:href="#DejaVuSans-70" transform="translate(122.65625 0)"/>
     <use xlink:href="#DejaVuSans-61" transform="translate(186.132812 0)"/>
     <use xlink:href="#DejaVuSans-73" transform="translate(247.412109 0)"/>
     <use xlink:href="#DejaVuSans-73" transform="translate(299.511719 0)"/>
    </g>
   </g>
   <g id="text_10">
    <!-- 5V -->
    <g transform="translate(128.28 325.143125) scale(0.14 -0.14)">
     <use xlink:href="#DejaVuSans-35"/>
     <use xlink:href="#DejaVuSans-56" transform="translate(63.623047 0)"/>
    </g>
   </g>
   <g id="text_11">
    <!-- GND -->
    <g transform="translate(128.28 209.943125) scale(0.14 -0.14)">
     <use xlink:href="#DejaVuSans-47"/>
     <use xlink:href="#DejaVuSans-4e" transform="translate(77.490234 0)"/>
     <use xlink:href="#DejaVuSans-44" transform="translate(152.294922 0)"/>
    </g>
   </g>
   <g id="text_12">
    <!-- D3 -->
    <g transform="translate(194.9925 325.143125) scale(0.14 -0.14)">
     <defs>
      <path id="DejaVuSans-33" d="M 2597 2516 
Q 3050 2419 3304 2112 
Q 3559 1806 3559 1356 
Q 3559 666 3084 287 
Q 2609 -91 1734 -91 
Q 1441 -91 1130 -33 
Q 819 25 488 141 
L 488 750 
Q 750 597 1062 519 
Q 1375 441 1716 441 
Q 2309 441 2620 675 
Q 2931 909 2931 1356 
Q 2931 1769 2642 2001 
Q 2353 2234 1838 2234 
L 1294 2234 
L 1294 2753 
L 1863 2753 
Q 2328 2753 2575 2939 
Q 2822 3125 2822 3475 
Q 2822 3834 2567 4026 
Q 2313 4219 1838 4219 
Q 1578 4219 1281 4162 
Q 984 4106 628 3988 
L 628 4550 
Q 988 4650 1302 4700 
Q 1616 4750 1894 4750 
Q 2613 4750 3031 4423 
Q 3450 4097 3450 3541 
Q 3450 3153 3228 2886 
Q 3006 2619 2597 2516 
z
" transform="scale(0.015625)"/>
     </defs>
     <use xlink:href="#DejaVuSans-44"/>
     <use xlink:href="#DejaVuSans-33" transform="translate(77.001953 0)"/>
    </g>
   </g>
   <g id="text_13">
    <!-- D6 -->
    <g transform="translate(194.9925 286.743125) scale(0.14 -0.14)">
     <use xlink:href="#DejaVuSans-44"/>
     <use xlink:href="#DejaVuSans-36" transform="translate(77.001953 0)"/>
    </g>
   </g>
   <g id="text_14">
    <!-- D9 -->
    <g transform="translate(194.9925 248.343125) scale(0.14 -0.14)">
     <use xlink:href="#DejaVuSans-44"/>
     <use xlink:href="#DejaVuSans-39" transform="translate(77.001953 0)"/>
    </g>
   </g>
   <g id="text_15">
    <!-- D10 -->
    <g transform="translate(186.085 209.943125) scale(0.14 -0.14)">
     <use xlink:href="#DejaVuSans-44"/>
     <use xlink:href="#DejaVuSans-31" transform="translate(77.001953 0)"/>
     <use xlink:href="#DejaVuSans-30" transform="translate(140.625 0)"/>
    </g>
   </g>
   <g id="text_16">
    <!-- U1 -->
    <g transform="translate(168.239375 258.000313) scale(0.1 -0.1)">
     <use xlink:href="#DejaVuSans-55"/>
     <use xlink:href="#DejaVuSans-31" transform="translate(73.193359 0)"/>
    </g>
    <!-- Arduino Nano -->
    <g transform="translate(141.109687 267.678438) scale(0.1 -0.1)">
     <use xlink:href="#DejaVuSans-41"/>
     <use xlink:href="#DejaVuSans-72" transform="translate(68.408203 0)"/>
     <use xlink:href="#DejaVuSans-64" transform="translate(107.771484 0)"/>
     <use xlink:href="#DejaVuSans-75" transform="translate(171.248047 0)"/>
     <use xlink:href="#DejaVuSans-69" transform="translate(234.626953 0)"/>
     <use xlink:href="#DejaVuSans-6e" transform="translate(262.410156 0)"/>
     <use xlink:href="#DejaVuSans-6f" transform="translate(325.789062 0)"/>
     <use xlink:href="#DejaVuSans-20" transform="translate(386.970703 0)"/>
     <use xlink:href="#DejaVuSans-4e" transform="translate(418.757812 0)"/>
     <use xlink:href="#DejaVuSans-61" transform="translate(493.5625 0)"/>
     <use xlink:href="#DejaVuSans-6e" transform="translate(554.841797 0)"/>
     <use xlink:href="#DejaVuSans-6f" transform="translate(618.220703 0)"/>
    </g>
   </g>
   <g id="text_17">
    <!-- SIG -->
    <g transform="translate(301.08 292.743125) scale(0.14 -0.14)">
     <use xlink:href="#DejaVuSans-53"/>
     <use xlink:href="#DejaVuSans-49" transform="translate(63.476562 0)"/>
     <use xlink:href="#DejaVuSans-47" transform="translate(92.96875 0)"/>
    </g>
   </g>
   <g id="text_18">
    <!-- V+ -->
    <g transform="translate(301.08 312.543125) scale(0.14 -0.14)">
     <defs>
      <path id="DejaVuSans-2b" d="M 2944 4013 
L 2944 2272 
L 4684 2272 
L 4684 1741 
L 2944 1741 
L 2944 0 
L 2419 0 
L 2419 1741 
L 678 1741 
L 678 2272 
L 2419 2272 
L 2419 4013 
L 2944 4013 
z
" transform="scale(0.015625)"/>
     </defs>
     <use xlink:href="#DejaVuSans-56"/>
     <use xlink:href="#DejaVuSans-2b" transform="translate(68.408203 0)"/>
    </g>
   </g>
   <g id="text_19">
    <!-- GND -->
    <g transform="translate(301.08 332.343125) scale(0.14 -0.14)">
     <use xlink:href="#DejaVuSans-47"/>
     <use xlink:href="#DejaVuSans-4e" transform="translate(77.490234 0)"/>
     <use xlink:href="#DejaVuSans-44" transform="translate(152.294922 0)"/>
    </g>
   </g>
   <g id="text_20">
    <!-- M1 -->
    <g transform="translate(253.984687 310.200312) scale(0.1 -0.1)">
     <use xlink:href="#DejaVuSans-4d"/>
     <use xlink:href="#DejaVuSans-31" transform="translate(86.279297 0)"/>
    </g>
    <!-- SG90 servo -->
    <g transform="translate(232.724531 319.878438) scale(0.1 -0.1)">
     <use xlink:href="#DejaVuSans-53"/>
     <use xlink:href="#DejaVuSans-47" transform="translate(63.476562 0)"/>
     <use xlink:href="#DejaVuSans-39" transform="translate(140.966797 0)"/>
     <use xlink:href="#DejaVuSans-30" transform="translate(204.589844 0)"/>
     <use xlink:href="#DejaVuSans-20" transform="translate(268.212891 0)"/>
     <use xlink:href="#DejaVuSans-73" transform="translate(300 0)"/>
     <use xlink:href="#DejaVuSans-65" transform="translate(352.099609 0)"/>
     <use xlink:href="#DejaVuSans-72" transform="translate(413.623047 0)"/>
     <use xlink:href="#DejaVuSans-76" transform="translate(454.736328 0)"/>
     <use xlink:href="#DejaVuSans-6f" transform="translate(513.916016 0)"/>
    </g>
   </g>
   <g id="text_21">
    <!-- D3 servo PWM -->
    <g transform="translate(230.6425 292.878438) scale(0.1 -0.1)">
     <defs>
      <path id="DejaVuSans-57" d="M 213 4666 
L 850 4666 
L 1831 722 
L 2809 4666 
L 3519 4666 
L 4500 722 
L 5478 4666 
L 6119 4666 
L 4947 0 
L 4153 0 
L 3169 4050 
L 2175 0 
L 1381 0 
L 213 4666 
z
" transform="scale(0.015625)"/>
     </defs>
     <use xlink:href="#DejaVuSans-44"/>
     <use xlink:href="#DejaVuSans-33" transform="translate(77.001953 0)"/>
     <use xlink:href="#DejaVuSans-20" transform="translate(140.625 0)"/>
     <use xlink:href="#DejaVuSans-73" transform="translate(172.412109 0)"/>
     <use xlink:href="#DejaVuSans-65" transform="translate(224.511719 0)"/>
     <use xlink:href="#DejaVuSans-72" transform="translate(286.035156 0)"/>
     <use xlink:href="#DejaVuSans-76" transform="translate(327.148438 0)"/>
     <use xlink:href="#DejaVuSans-6f" transform="translate(386.328125 0)"/>
     <use xlink:href="#DejaVuSans-20" transform="translate(447.509766 0)"/>
     <use xlink:href="#DejaVuSans-50" transform="translate(479.296875 0)"/>
     <use xlink:href="#DejaVuSans-57" transform="translate(539.599609 0)"/>
     <use xlink:href="#DejaVuSans-4d" transform="translate(638.476562 0)"/>
    </g>
   </g>
   <g id="text_22">
    <!-- TRIG -->
    <g transform="translate(441.48 321.543125) scale(0.14 -0.14)">
     <use xlink:href="#DejaVuSans-54"/>
     <use xlink:href="#DejaVuSans-52" transform="translate(61.083984 0)"/>
     <use xlink:href="#DejaVuSans-49" transform="translate(130.566406 0)"/>
     <use xlink:href="#DejaVuSans-47" transform="translate(160.058594 0)"/>
    </g>
   </g>
   <g id="text_23">
    <!-- ECHO -->
    <g transform="translate(441.48 345.543125) scale(0.14 -0.14)">
     <defs>
      <path id="DejaVuSans-48" d="M 628 4666 
L 1259 4666 
L 1259 2753 
L 3553 2753 
L 3553 4666 
L 4184 4666 
L 4184 0 
L 3553 0 
L 3553 2222 
L 1259 2222 
L 1259 0 
L 628 0 
L 628 4666 
z
" transform="scale(0.015625)"/>
     </defs>
     <use xlink:href="#DejaVuSans-45"/>
     <use xlink:href="#DejaVuSans-43" transform="translate(63.183594 0)"/>
     <use xlink:href="#DejaVuSans-48" transform="translate(133.007812 0)"/>
     <use xlink:href="#DejaVuSans-4f" transform="translate(208.203125 0)"/>
    </g>
   </g>
   <g id="text_24">
    <!-- VCC -->
    <g transform="translate(441.48 369.543125) scale(0.14 -0.14)">
     <use xlink:href="#DejaVuSans-56"/>
     <use xlink:href="#DejaVuSans-43" transform="translate(68.408203 0)"/>
     <use xlink:href="#DejaVuSans-43" transform="translate(138.232422 0)"/>
    </g>
   </g>
   <g id="text_25">
    <!-- GND -->
    <g transform="translate(441.48 393.543125) scale(0.14 -0.14)">
     <use xlink:href="#DejaVuSans-47"/>
     <use xlink:href="#DejaVuSans-4e" transform="translate(77.490234 0)"/>
     <use xlink:href="#DejaVuSans-44" transform="translate(152.294922 0)"/>
    </g>
   </g>
   <g id="text_26">
    <!-- U2 -->
    <g transform="translate(389.639375 350.36125) scale(0.1 -0.1)">
     <use xlink:href="#DejaVuSans-55"/>
     <use xlink:href="#DejaVuSans-32" transform="translate(73.193359 0)"/>
    </g>
    <!-- HC-SR04 -->
    <g transform="translate(374.413594 360.039375) scale(0.1 -0.1)">
     <use xlink:href="#DejaVuSans-48"/>
     <use xlink:href="#DejaVuSans-43" transform="translate(75.195312 0)"/>
     <use xlink:href="#DejaVuSans-2d" transform="translate(145.019531 0)"/>
     <use xlink:href="#DejaVuSans-53" transform="translate(181.103516 0)"/>
     <use xlink:href="#DejaVuSans-52" transform="translate(244.580078 0)"/>
     <use xlink:href="#DejaVuSans-30" transform="translate(314.0625 0)"/>
     <use xlink:href="#DejaVuSans-34" transform="translate(377.685547 0)"/>
    </g>
    <!-- ultrasonic -->
    <g transform="translate(371.871406 369.7175) scale(0.1 -0.1)">
     <use xlink:href="#DejaVuSans-75"/>
     <use xlink:href="#DejaVuSans-6c" transform="translate(63.378906 0)"/>
     <use xlink:href="#DejaVuSans-74" transform="translate(91.162109 0)"/>
     <use xlink:href="#DejaVuSans-72" transform="translate(130.371094 0)"/>
     <use xlink:href="#DejaVuSans-61" transform="translate(171.484375 0)"/>
     <use xlink:href="#DejaVuSans-73" transform="translate(232.763672 0)"/>
     <use xlink:href="#DejaVuSans-6f" transform="translate(284.863281 0)"/>
     <use xlink:href="#DejaVuSans-6e" transform="translate(346.044922 0)"/>
     <use xlink:href="#DejaVuSans-69" transform="translate(409.423828 0)"/>
     <use xlink:href="#DejaVuSans-63" transform="translate(437.207031 0)"/>
    </g>
   </g>
   <g id="text_27">
    <!-- D9 TRIG -->
    <g transform="translate(357.982344 321.678438) scale(0.1 -0.1)">
     <use xlink:href="#DejaVuSans-44"/>
     <use xlink:href="#DejaVuSans-39" transform="translate(77.001953 0)"/>
     <use xlink:href="#DejaVuSans-20" transform="translate(140.625 0)"/>
     <use xlink:href="#DejaVuSans-54" transform="translate(172.412109 0)"/>
     <use xlink:href="#DejaVuSans-52" transform="translate(233.496094 0)"/>
     <use xlink:href="#DejaVuSans-49" transform="translate(302.978516 0)"/>
     <use xlink:href="#DejaVuSans-47" transform="translate(332.470703 0)"/>
    </g>
   </g>
   <g id="text_28">
    <!-- D10 ECHO -->
    <g transform="translate(359.531562 346.800313) scale(0.1 -0.1)">
     <use xlink:href="#DejaVuSans-44"/>
     <use xlink:href="#DejaVuSans-31" transform="translate(77.001953 0)"/>
     <use xlink:href="#DejaVuSans-30" transform="translate(140.625 0)"/>
     <use xlink:href="#DejaVuSans-20" transform="translate(204.248047 0)"/>
     <use xlink:href="#DejaVuSans-45" transform="translate(236.035156 0)"/>
     <use xlink:href="#DejaVuSans-43" transform="translate(299.21875 0)"/>
     <use xlink:href="#DejaVuSans-48" transform="translate(369.042969 0)"/>
     <use xlink:href="#DejaVuSans-4f" transform="translate(444.238281 0)"/>
    </g>
   </g>
   <g id="text_29">
    <!-- IN -->
    <g transform="translate(599.88 325.143125) scale(0.14 -0.14)">
     <use xlink:href="#DejaVuSans-49"/>
     <use xlink:href="#DejaVuSans-4e" transform="translate(29.492188 0)"/>
    </g>
   </g>
   <g id="text_30">
    <!-- V+ -->
    <g transform="translate(599.88 346.743125) scale(0.14 -0.14)">
     <use xlink:href="#DejaVuSans-56"/>
     <use xlink:href="#DejaVuSans-2b" transform="translate(68.408203 0)"/>
    </g>
   </g>
   <g id="text_31">
    <!-- GND -->
    <g transform="translate(599.88 368.343125) scale(0.14 -0.14)">
     <use xlink:href="#DejaVuSans-47"/>
     <use xlink:href="#DejaVuSans-4e" transform="translate(77.490234 0)"/>
     <use xlink:href="#DejaVuSans-44" transform="translate(152.294922 0)"/>
    </g>
   </g>
   <g id="text_32">
    <!-- BZ1 -->
    <g transform="translate(544.843281 339.56125) scale(0.1 -0.1)">
     <defs>
      <path id="DejaVuSans-5a" d="M 359 4666 
L 4025 4666 
L 4025 4184 
L 1075 531 
L 4097 531 
L 4097 0 
L 288 0 
L 288 481 
L 3238 4134 
L 359 4134 
L 359 4666 
z
" transform="scale(0.015625)"/>
     </defs>
     <use xlink:href="#DejaVuSans-42"/>
     <use xlink:href="#DejaVuSans-5a" transform="translate(68.603516 0)"/>
     <use xlink:href="#DejaVuSans-31" transform="translate(137.109375 0)"/>
    </g>
    <!-- 5 V active -->
    <g transform="translate(529.901875 349.239375) scale(0.1 -0.1)">
     <use xlink:href="#DejaVuSans-35"/>
     <use xlink:href="#DejaVuSans-20" transform="translate(63.623047 0)"/>
     <use xlink:href="#DejaVuSans-56" transform="translate(95.410156 0)"/>
     <use xlink:href="#DejaVuSans-20" transform="translate(163.818359 0)"/>
     <use xlink:href="#DejaVuSans-61" transform="translate(195.605469 0)"/>
     <use xlink:href="#DejaVuSans-63" transform="translate(256.884766 0)"/>
     <use xlink:href="#DejaVuSans-74" transform="translate(311.865234 0)"/>
     <use xlink:href="#DejaVuSans-69" transform="translate(351.074219 0)"/>
     <use xlink:href="#DejaVuSans-76" transform="translate(378.857422 0)"/>
     <use xlink:href="#DejaVuSans-65" transform="translate(438.037109 0)"/>
    </g>
    <!-- buzzer module -->
    <g transform="translate(517.829219 358.9175) scale(0.1 -0.1)">
     <defs>
      <path id="DejaVuSans-7a" d="M 353 3500 
L 3084 3500 
L 3084 2975 
L 922 459 
L 3084 459 
L 3084 0 
L 275 0 
L 275 525 
L 2438 3041 
L 353 3041 
L 353 3500 
z
" transform="scale(0.015625)"/>
     </defs>
     <use xlink:href="#DejaVuSans-62"/>
     <use xlink:href="#DejaVuSans-75" transform="translate(63.476562 0)"/>
     <use xlink:href="#DejaVuSans-7a" transform="translate(126.855469 0)"/>
     <use xlink:href="#DejaVuSans-7a" transform="translate(179.345703 0)"/>
     <use xlink:href="#DejaVuSans-65" transform="translate(231.835938 0)"/>
     <use xlink:href="#DejaVuSans-72" transform="translate(293.359375 0)"/>
     <use xlink:href="#DejaVuSans-20" transform="translate(334.472656 0)"/>
     <use xlink:href="#DejaVuSans-6d" transform="translate(366.259766 0)"/>
     <use xlink:href="#DejaVuSans-6f" transform="translate(463.671875 0)"/>
     <use xlink:href="#DejaVuSans-64" transform="translate(524.853516 0)"/>
     <use xlink:href="#DejaVuSans-75" transform="translate(588.330078 0)"/>
     <use xlink:href="#DejaVuSans-6c" transform="translate(651.708984 0)"/>
     <use xlink:href="#DejaVuSans-65" transform="translate(679.492188 0)"/>
    </g>
   </g>
   <g id="text_33">
    <!-- D6 buzzer ctrl -->
    <g transform="translate(454.993281 327.078438) scale(0.1 -0.1)">
     <use xlink:href="#DejaVuSans-44"/>
     <use xlink:href="#DejaVuSans-36" transform="translate(77.001953 0)"/>
     <use xlink:href="#DejaVuSans-20" transform="translate(140.625 0)"/>
     <use xlink:href="#DejaVuSans-62" transform="translate(172.412109 0)"/>
     <use xlink:href="#DejaVuSans-75" transform="translate(235.888672 0)"/>
     <use xlink:href="#DejaVuSans-7a" transform="translate(299.267578 0)"/>
     <use xlink:href="#DejaVuSans-7a" transform="translate(351.757812 0)"/>
     <use xlink:href="#DejaVuSans-65" transform="translate(404.248047 0)"/>
     <use xlink:href="#DejaVuSans-72" transform="translate(465.771484 0)"/>
     <use xlink:href="#DejaVuSans-20" transform="translate(506.884766 0)"/>
     <use xlink:href="#DejaVuSans-63" transform="translate(538.671875 0)"/>
     <use xlink:href="#DejaVuSans-74" transform="translate(593.652344 0)"/>
     <use xlink:href="#DejaVuSans-72" transform="translate(632.861328 0)"/>
     <use xlink:href="#DejaVuSans-6c" transform="translate(673.974609 0)"/>
    </g>
   </g>
   <g id="text_34">
    <!-- Sensor head mechanically mounted on servo horn -->
    <g transform="translate(347.861016 384.963438) scale(0.09 -0.09)">
     <use xlink:href="#DejaVuSans-53"/>
     <use xlink:href="#DejaVuSans-65" transform="translate(63.476562 0)"/>
     <use xlink:href="#DejaVuSans-6e" transform="translate(125 0)"/>
     <use xlink:href="#DejaVuSans-73" transform="translate(188.378906 0)"/>
     <use xlink:href="#DejaVuSans-6f" transform="translate(240.478516 0)"/>
     <use xlink:href="#DejaVuSans-72" transform="translate(301.660156 0)"/>
     <use xlink:href="#DejaVuSans-20" transform="translate(342.773438 0)"/>
     <use xlink:href="#DejaVuSans-68" transform="translate(374.560547 0)"/>
     <use xlink:href="#DejaVuSans-65" transform="translate(437.939453 0)"/>
     <use xlink:href="#DejaVuSans-61" transform="translate(499.462891 0)"/>
     <use xlink:href="#DejaVuSans-64" transform="translate(560.742188 0)"/>
     <use xlink:href="#DejaVuSans-20" transform="translate(624.21875 0)"/>
     <use xlink:href="#DejaVuSans-6d" transform="translate(656.005859 0)"/>
     <use xlink:href="#DejaVuSans-65" transform="translate(753.417969 0)"/>
     <use xlink:href="#DejaVuSans-63" transform="translate(814.941406 0)"/>
     <use xlink:href="#DejaVuSans-68" transform="translate(869.921875 0)"/>
     <use xlink:href="#DejaVuSans-61" transform="translate(933.300781 0)"/>
     <use xlink:href="#DejaVuSans-6e" transform="translate(994.580078 0)"/>
     <use xlink:href="#DejaVuSans-69" transform="translate(1057.958984 0)"/>
     <use xlink:href="#DejaVuSans-63" transform="translate(1085.742188 0)"/>
     <use xlink:href="#DejaVuSans-61" transform="translate(1140.722656 0)"/>
     <use xlink:href="#DejaVuSans-6c" transform="translate(1202.001953 0)"/>
     <use xlink:href="#DejaVuSans-6c" transform="translate(1229.785156 0)"/>
     <use xlink:href="#DejaVuSans-79" transform="translate(1257.568359 0)"/>
     <use xlink:href="#DejaVuSans-20" transform="translate(1316.748047 0)"/>
     <use xlink:href="#DejaVuSans-6d" transform="translate(1348.535156 0)"/>
     <use xlink:href="#DejaVuSans-6f" transform="translate(1445.947266 0)"/>
     <use xlink:href="#DejaVuSans-75" transform="translate(1507.128906 0)"/>
     <use xlink:href="#DejaVuSans-6e" transform="translate(1570.507812 0)"/>
     <use xlink:href="#DejaVuSans-74" transform="translate(1633.886719 0)"/>
     <use xlink:href="#DejaVuSans-65" transform="translate(1673.095703 0)"/>
     <use xlink:href="#DejaVuSans-64" transform="translate(1734.619141 0)"/>
     <use xlink:href="#DejaVuSans-20" transform="translate(1798.095703 0)"/>
     <use xlink:href="#DejaVuSans-6f" transform="translate(1829.882812 0)"/>
     <use xlink:href="#DejaVuSans-6e" transform="translate(1891.064453 0)"/>
     <use xlink:href="#DejaVuSans-20" transform="translate(1954.443359 0)"/>
     <use xlink:href="#DejaVuSans-73" transform="translate(1986.230469 0)"/>
     <use xlink:href="#DejaVuSans-65" transform="translate(2038.330078 0)"/>
     <use xlink:href="#DejaVuSans-72" transform="translate(2099.853516 0)"/>
     <use xlink:href="#DejaVuSans-76" transform="translate(2140.966797 0)"/>
     <use xlink:href="#DejaVuSans-6f" transform="translate(2200.146484 0)"/>
     <use xlink:href="#DejaVuSans-20" transform="translate(2261.328125 0)"/>
     <use xlink:href="#DejaVuSans-68" transform="translate(2293.115234 0)"/>
     <use xlink:href="#DejaVuSans-6f" transform="translate(2356.494141 0)"/>
     <use xlink:href="#DejaVuSans-72" transform="translate(2417.675781 0)"/>
     <use xlink:href="#DejaVuSans-6e" transform="translate(2457.039062 0)"/>
    </g>
   </g>
   <g id="patch_5">
    <path d="M 493.68 154.78 
C 494.396048 154.78 495.082866 154.495511 495.589188 153.989188 
C 496.095511 153.482866 496.38 152.796048 496.38 152.08 
C 496.38 151.363952 496.095511 150.677134 495.589188 150.170812 
C 495.082866 149.664489 494.396048 149.38 493.68 149.38 
C 492.963952 149.38 492.277134 149.664489 491.770812 150.170812 
C 491.264489 150.677134 490.98 151.363952 490.98 152.08 
C 490.98 152.796048 491.264489 153.482866 491.770812 153.989188 
C 492.277134 154.495511 492.963952 154.78 493.68 154.78 
z
" clip-path="url(#p2b37e06797)" style="stroke: #000000; stroke-width: 2; stroke-linejoin: miter"/>
   </g>
   <g id="text_35">
    <!-- +5V rail -->
    <g transform="translate(473.401875 143.700313) scale(0.1 -0.1)">
     <use xlink:href="#DejaVuSans-2b"/>
     <use xlink:href="#DejaVuSans-35" transform="translate(83.789062 0)"/>
     <use xlink:href="#DejaVuSans-56" transform="translate(147.412109 0)"/>
     <use xlink:href="#DejaVuSans-20" transform="translate(215.820312 0)"/>
     <use xlink:href="#DejaVuSans-72" transform="translate(247.607422 0)"/>
     <use xlink:href="#DejaVuSans-61" transform="translate(288.720703 0)"/>
     <use xlink:href="#DejaVuSans-69" transform="translate(350 0)"/>
     <use xlink:href="#DejaVuSans-6c" transform="translate(377.783203 0)"/>
    </g>
   </g>
   <g id="patch_6">
    <path d="M 493.68 172.78 
C 494.396048 172.78 495.082866 172.495511 495.589188 171.989188 
C 496.095511 171.482866 496.38 170.796048 496.38 170.08 
C 496.38 169.363952 496.095511 168.677134 495.589188 168.170812 
C 495.082866 167.664489 494.396048 167.38 493.68 167.38 
C 492.963952 167.38 492.277134 167.664489 491.770812 168.170812 
C 491.264489 168.677134 490.98 169.363952 490.98 170.08 
C 490.98 170.796048 491.264489 171.482866 491.770812 171.989188 
C 492.277134 172.495511 492.963952 172.78 493.68 172.78 
z
" clip-path="url(#p2b37e06797)" style="stroke: #000000; stroke-width: 2; stroke-linejoin: miter"/>
   </g>
   <g id="text_36">
    <!-- +5V rail -->
    <g transform="translate(473.401875 161.700313) scale(0.1 -0.1)">
     <use xlink:href="#DejaVuSans-2b"/>
     <use xlink:href="#DejaVuSans-35" transform="translate(83.789062 0)"/>
     <use xlink:href="#DejaVuSans-56" transform="translate(147.412109 0)"/>
     <use xlink:href="#DejaVuSans-20" transform="translate(215.820312 0)"/>
     <use xlink:href="#DejaVuSans-72" transform="translate(247.607422 0)"/>
     <use xlink:href="#DejaVuSans-61" transform="translate(288.720703 0)"/>
     <use xlink:href="#DejaVuSans-69" transform="translate(350 0)"/>
     <use xlink:href="#DejaVuSans-6c" transform="translate(377.783203 0)"/>
    </g>
   </g>
  </g>
 </g>
 <defs>
  <clipPath id="p2b37e06797">
   <rect x="0" y="0" width="635.136" height="417.4"/>
  </clipPath>
 </defs>
</svg>
