<svg xmlns="http://www.w3.org/2000/svg" xmlns:xlink="http://www.w3.org/1999/xlink" xml:lang="en" height="158.23999999999998pt" width="414.20000000000005pt" viewBox="-4.6 -94.6 414.20000000000005 158.23999999999998"><polygon points="344.7,-27 357.3,-18 344.7,-9 " style="stroke:black;fill:none;stroke-width:2.0;stroke-dasharray:-;stroke-linecap:round;stroke-linejoin:round;" /><path d="M 0.0,-0.0 L 108,-0 L 108,-90 L 0,-90 L 0,-0" style="stroke:black;fill:none;stroke-width:2.0;stroke-dasharray:-;stroke-linecap:round;stroke-linejoin:round;" /><path d="M 108.0,-18.0 L 126,-18" style="stroke:black;fill:none;stroke-width:2.0;stroke-dasharray:-;stroke-linecap:round;stroke-linejoin:round;" /><path d="M 108.0,-72.0 L 126,-72" style="stroke:black;fill:none;stroke-width:2.0;stroke-dasharray:-;stroke-linecap:round;stroke-linejoin:round;" /><path d="M 126.0,-18.0 L 171,-18 L 216,-18" style="stroke:black;fill:none;stroke-width:2.0;stroke-dasharray:-;stroke-linecap:round;stroke-linejoin:round;" /><path d="M 216.0,-18.0 L 243,-18 L 246,-27 L 252,-9 L 258,-27 L 264,-9 L 270,-27 L 276,-9 L 279,-18 L 306,-18" style="stroke:black;fill:none;stroke-width:2.0;stroke-dasharray:-;stroke-linecap:round;stroke-linejoin:round;" /><path d="M 306.0,-18.0 L 344.7,-18 M 357.3,-27 L 357.3,-9 M 357.3,-18 L 396,-18" style="stroke:black;fill:none;stroke-width:2.0;stroke-dasharray:-;stroke-linecap:round;stroke-linejoin:round;" /><path d="M 353.7,-31.5 L 359.128,-40.999" style="stroke:black;fill:none;stroke-width:2.0;stroke-dasharray:-;stroke-linecap:round;stroke-linejoin:round;" /><path d="M 361.708 -45.514 L 361.628 -39.57 L 356.627 -42.428 Z" style="stroke:black;fill:black;stroke-linecap:butt;stroke-linejoin:miter;" /><path d="M 345.59999999999997,-31.5 L 351.028,-40.999" style="stroke:black;fill:none;stroke-width:2.0;stroke-dasharray:-;stroke-linecap:round;stroke-linejoin:round;" /><path d="M 353.608 -45.514 L 353.528 -39.57 L 348.527 -42.428 Z" style="stroke:black;fill:black;stroke-linecap:butt;stroke-linejoin:miter;" /><path d="M 396.0,-18.0 L 396,9 L 396,36" style="stroke:black;fill:none;stroke-width:2.0;stroke-dasharray:-;stroke-linecap:round;stroke-linejoin:round;" /><path d="M 396.0,36.0 L 396,50.4 L 387,50.4 L 405,50.4 M 389.7,54.72 L 402.3,54.72 M 394.2,59.04 L 397.8,59.04" style="stroke:black;fill:none;stroke-width:2.0;stroke-dasharray:-;stroke-linecap:round;stroke-linejoin:round;" /><path d="M 126.0,-72.0 L 126,-50.4 L 126,-28.8" style="stroke:black;fill:none;stroke-width:2.0;stroke-dasharray:-;stroke-linecap:round;stroke-linejoin:round;" /><path d="M 126.0,-28.8 L 126,-14.4 L 117,-14.4 L 135,-14.4 M 119.7,-10.08 L 132.3,-10.08 M 124.2,-5.76 L 127.8,-5.76" style="stroke:black;fill:none;stroke-width:2.0;stroke-dasharray:-;stroke-linecap:round;stroke-linejoin:round;" /><text x="102.60000000000001" y="-32.0" dominant-baseline="central" fill="black" font-size="14" font-family="sans" text-anchor="end"><tspan x="102.60000000000001" dy="14">D13</tspan></text><text x="102.60000000000001" y="-86.0" dominant-baseline="central" fill="black" font-size="14" font-family="sans" text-anchor="end"><tspan x="102.60000000000001" dy="14">GND</tspan></text><text x="57.6" y="-66.6" dominant-baseline="central" fill="black" font-size="12" font-family="sans" text-anchor="middle"><tspan x="57.6" dy="12">Arduino Uno</tspan><tspan x="57.6" dy="12">(simplified)</tspan></text><text x="261.0" y="-54.599999999999994" dominant-baseline="ideographic" fill="black" font-size="12" font-family="sans" text-anchor="middle"><tspan x="261.0" dy="12">R1</tspan><tspan x="261.0" dy="12">330 Ω</tspan></text><text x="351.0" y="-17.4" dominant-baseline="hanging" fill="black" font-size="12" font-family="sans" text-anchor="middle"><tspan x="351.0" dy="12">LED1</tspan></text></svg>